<svg width="1024" height="500" viewBox="0 0 1024 500" fill="none" xmlns="http://www.w3.org/2000/svg">
  <defs>
    <linearGradient id="bg" x1="0" y1="0" x2="1024" y2="500" gradientUnits="userSpaceOnUse">
      <stop stop-color="#7C79F2"/><stop offset="0.5" stop-color="#6366F1"/><stop offset="1" stop-color="#4B43DC"/>
    </linearGradient>
    <radialGradient id="glow" cx="0.16" cy="0.0" r="0.85">
      <stop stop-color="#A9B4FF" stop-opacity="0.5"/><stop offset="0.6" stop-color="#A9B4FF" stop-opacity="0"/>
    </radialGradient>
    <linearGradient id="tile" x1="6" y1="4" x2="90" y2="92" gradientUnits="userSpaceOnUse">
      <stop stop-color="#8E98FF"/><stop offset="0.55" stop-color="#6F71F4"/><stop offset="1" stop-color="#5A52EA"/>
    </linearGradient>
  </defs>

  <rect width="1024" height="500" fill="url(#bg)"/>
  <rect width="1024" height="500" fill="url(#glow)"/>

  <!-- decorative soft shapes -->
  <circle cx="930" cy="70" r="120" fill="#ffffff" opacity="0.06"/>
  <circle cx="985" cy="430" r="150" fill="#ffffff" opacity="0.05"/>

  <!-- card-stack motif (right) -->
  <g transform="translate(792 250) rotate(-9)"><rect x="-150" y="-118" width="300" height="236" rx="30" fill="#ffffff" opacity="0.07"/></g>
  <g transform="translate(822 252) rotate(7)">
    <rect x="-150" y="-118" width="300" height="236" rx="30" fill="#ffffff" opacity="0.12"/>
    <rect x="-118" y="-78" width="64" height="64" rx="16" fill="#ffffff" opacity="0.5"/>
    <rect x="-40" y="-66" width="150" height="14" rx="7" fill="#ffffff" opacity="0.45"/>
    <rect x="-40" y="-40" width="110" height="12" rx="6" fill="#ffffff" opacity="0.32"/>
    <rect x="-118" y="18" width="236" height="12" rx="6" fill="#ffffff" opacity="0.25"/>
    <rect x="-118" y="42" width="180" height="12" rx="6" fill="#ffffff" opacity="0.2"/>
  </g>

  <!-- app icon -->
  <g transform="translate(103 169)"><rect width="184" height="184" rx="40" fill="#1E1B4B" opacity="0.22"/></g>
  <g transform="translate(96 158) scale(1.91667)">
    <rect x="0" y="0" width="96" height="96" rx="22" fill="url(#tile)"/>
    <g transform="translate(48 48) scale(1.2) translate(-48 -48)">
      <path fill-rule="evenodd" clip-rule="evenodd" d="M26 26 H48 A22 22 0 0 1 48 70 H26 Z M35 35 H48 A13 13 0 0 1 48 61 H35 Z" fill="#ffffff"/>
      <g fill="#ffffff">
        <rect x="37.5" y="40" width="4.8" height="4.8" rx="1.4"/>
        <rect x="45" y="40" width="4.8" height="4.8" rx="1.4"/>
        <rect x="37.5" y="47.5" width="4.8" height="4.8" rx="1.4"/>
        <rect x="45" y="47.5" width="4.8" height="4.8" rx="1.4"/>
        <rect x="52.5" y="43.75" width="4.8" height="4.8" rx="1.4"/>
      </g>
    </g>
  </g>

  <!-- wordmark + tagline (outlined Sora) -->
  <path d="M372.71 258.42L359.50 258.42L359.50 242.50L373.65 242.50Q378.95 242.50 383.22 240.89Q387.48 239.28 390.50 236.32Q393.51 233.35 395.07 229.14Q396.63 224.93 396.63 219.83Q396.63 214.53 395.07 210.37Q393.51 206.21 390.50 203.30Q387.48 200.38 383.22 198.88Q378.95 197.37 373.65 197.37L359.50 197.37L359.50 181.46L372.71 181.46Q383.01 181.46 390.70 184.47Q398.40 187.49 403.60 192.69Q408.80 197.89 411.35 204.60Q413.90 211.30 413.90 218.69L413.90 220.98Q413.90 227.84 411.35 234.55Q408.80 241.26 403.60 246.61Q398.40 251.97 390.70 255.19Q383.01 258.42 372.71 258.42M361.58 258.42L344.53 258.42L344.53 181.46L361.58 181.46L361.58 258.42M460.59 259.98Q450.30 259.98 442.91 256.39Q435.53 252.80 430.85 246.92Q426.17 241.05 423.93 234.24Q421.70 227.42 421.70 220.98L421.70 218.69Q421.70 211.62 423.98 204.70Q426.27 197.78 431 192.17Q435.74 186.55 442.96 183.17Q450.19 179.79 460.07 179.79Q470.37 179.79 478.27 183.64Q486.18 187.49 490.91 194.30Q495.64 201.11 496.47 210.26L479.31 210.26Q478.58 205.69 475.98 202.46Q473.38 199.24 469.28 197.47Q465.17 195.70 460.07 195.70Q454.98 195.70 451.02 197.47Q447.07 199.24 444.42 202.46Q441.77 205.69 440.36 210.11Q438.96 214.53 438.96 219.94Q438.96 225.24 440.36 229.66Q441.77 234.08 444.52 237.36Q447.28 240.63 451.34 242.35Q455.39 244.06 460.59 244.06Q468.50 244.06 473.96 240.22Q479.42 236.37 480.56 229.61L497.62 229.61Q496.68 237.93 492.05 244.84Q487.42 251.76 479.47 255.87Q471.51 259.98 460.59 259.98M555.65 258L542.44 258L542.44 241.15L539.63 241.15L539.63 222.85Q539.63 218.48 537.55 216.30Q535.47 214.11 530.90 214.11Q528.61 214.11 524.86 214.22Q521.12 214.32 517.17 214.53Q513.22 214.74 509.99 214.94L509.99 200.90Q512.38 200.70 515.61 200.49Q518.83 200.28 522.26 200.18Q525.70 200.07 528.71 200.07Q537.45 200.07 543.43 202.57Q549.41 205.06 552.53 210.11Q555.65 215.15 555.65 223.06L555.65 258M524.24 259.46Q518.10 259.46 513.48 257.27Q508.85 255.09 506.25 250.98Q503.65 246.87 503.65 241.15Q503.65 234.91 506.87 230.91Q510.10 226.90 515.92 224.98Q521.74 223.06 529.34 223.06L541.50 223.06L541.50 232.31L529.23 232.31Q524.86 232.31 522.52 234.44Q520.18 236.58 520.18 240.22Q520.18 243.65 522.52 245.78Q524.86 247.91 529.23 247.91Q532.04 247.91 534.28 246.92Q536.51 245.94 537.97 243.54Q539.42 241.15 539.63 236.89L543.58 241.05Q543.06 246.98 540.72 251.03Q538.38 255.09 534.28 257.27Q530.17 259.46 524.24 259.46M586.43 258L569.79 258L569.79 201.01L583 201.01L583 225.45L582.69 225.45Q582.69 213.38 587.84 206.83Q592.98 200.28 602.76 200.28L604.94 200.28L604.94 214.63L600.78 214.63Q593.92 214.63 590.18 218.32Q586.43 222.02 586.43 228.98L586.43 258M636.77 259.87Q630.74 259.87 625.80 257.69Q620.86 255.50 617.22 251.60Q613.58 247.70 611.65 242.40Q609.73 237.10 609.73 230.96L609.73 228.57Q609.73 222.43 611.55 217.13Q613.37 211.82 616.85 207.82Q620.34 203.82 625.22 201.58Q630.11 199.34 636.14 199.34Q643.01 199.34 648 202.31Q652.99 205.27 655.80 211.04Q658.61 216.82 658.92 225.24L654.55 221.18L654.55 182.08L671.30 182.08L671.30 258L658.09 258L658.09 234.39L660.38 234.39Q660.06 242.50 657 248.22Q653.93 253.94 648.73 256.91Q643.53 259.87 636.77 259.87M640.93 245.94Q644.78 245.94 647.95 244.22Q651.12 242.50 653.04 239.18Q654.97 235.85 654.97 231.17L654.97 227.32Q654.97 222.74 652.99 219.62Q651.02 216.50 647.79 214.84Q644.57 213.18 640.82 213.18Q636.66 213.18 633.39 215.31Q630.11 217.44 628.24 221.13Q626.37 224.82 626.37 229.71Q626.37 234.70 628.24 238.34Q630.11 241.98 633.44 243.96Q636.77 245.94 640.93 245.94" fill="#ffffff"/>
  <path d="M353.55 302.79L346.59 302.79L339.33 287.91L344.15 287.91L349.69 299.56L348.64 299.23L351.77 299.23L350.65 299.56L355.70 287.91L360.25 287.91L353.55 302.79M352.37 312L347.78 312L347.78 302.07L352.37 302.07L352.37 312M369.99 312.63Q367.61 312.63 365.80 311.87Q363.98 311.11 362.73 309.81Q361.47 308.50 360.83 306.85Q360.19 305.20 360.19 303.42L360.19 302.73Q360.19 300.88 360.86 299.21Q361.54 297.55 362.81 296.24Q364.08 294.94 365.89 294.20Q367.71 293.45 369.99 293.45Q372.26 293.45 374.08 294.20Q375.89 294.94 377.16 296.24Q378.44 297.55 379.09 299.21Q379.75 300.88 379.75 302.73L379.75 303.42Q379.75 305.20 379.11 306.85Q378.47 308.50 377.21 309.81Q375.96 311.11 374.14 311.87Q372.33 312.63 369.99 312.63M369.99 308.70Q371.67 308.70 372.82 307.96Q373.98 307.21 374.57 305.94Q375.17 304.67 375.17 303.06Q375.17 301.41 374.56 300.14Q373.95 298.87 372.78 298.12Q371.60 297.38 369.99 297.38Q368.37 297.38 367.20 298.12Q366.03 298.87 365.40 300.14Q364.77 301.41 364.77 303.06Q364.77 304.67 365.38 305.94Q365.99 307.21 367.15 307.96Q368.30 308.70 369.99 308.70M390.08 312.56L389.89 312.56Q386.78 312.56 385.08 310.51Q383.38 308.47 383.38 304.44L383.38 294.05L387.97 294.05L387.97 304.84Q387.97 306.49 388.90 307.46Q389.82 308.44 391.40 308.44Q392.99 308.44 393.99 307.41Q395 306.39 395 304.64L395 294.05L399.59 294.05L399.59 312L395.96 312L395.96 304.38L396.32 304.38Q396.32 307.08 395.63 308.90Q394.94 310.71 393.55 311.64Q392.16 312.56 390.08 312.56M409.45 312L404.87 312L404.87 294.08L408.50 294.08L408.50 301.67L408.40 301.67Q408.40 297.81 410.05 295.83Q411.70 293.85 414.90 293.85L415.56 293.85L415.56 297.84L414.31 297.84Q412 297.84 410.73 299.08Q409.45 300.32 409.45 302.66L409.45 312M433.18 312.59Q431.30 312.59 429.72 311.90Q428.13 311.21 426.98 309.95Q425.82 308.70 425.20 307.03Q424.57 305.37 424.57 303.42L424.57 302.73Q424.57 300.81 425.18 299.13Q425.79 297.45 426.90 296.19Q428 294.94 429.57 294.23Q431.14 293.52 433.05 293.52Q435.16 293.52 436.76 294.43Q438.36 295.33 439.32 297.15Q440.28 298.96 440.38 301.70L439.02 300.12L439.02 287.91L443.61 287.91L443.61 312L439.98 312L439.98 304.38L440.77 304.38Q440.67 307.12 439.65 308.95Q438.63 310.78 436.96 311.69Q435.29 312.59 433.18 312.59M434.20 308.73Q435.56 308.73 436.68 308.12Q437.80 307.51 438.48 306.34Q439.15 305.17 439.15 303.58L439.15 302.26Q439.15 300.68 438.46 299.61Q437.77 298.54 436.65 297.96Q435.52 297.38 434.20 297.38Q432.72 297.38 431.58 298.09Q430.44 298.80 429.80 300.09Q429.16 301.37 429.16 303.09Q429.16 304.81 429.82 306.08Q430.48 307.35 431.61 308.04Q432.75 308.73 434.20 308.73M454.27 312L449.68 312L449.68 294.08L454.27 294.08L454.27 312M454.27 297.51L447.17 297.51L447.17 294.08L454.27 294.08L454.27 297.51M451.37 291.94Q450.01 291.94 449.37 291.23Q448.72 290.52 448.72 289.43Q448.72 288.34 449.37 287.65Q450.01 286.95 451.37 286.95Q452.72 286.95 453.34 287.65Q453.97 288.34 453.97 289.43Q453.97 290.52 453.34 291.23Q452.72 291.94 451.37 291.94M466.55 319.06Q465.26 319.06 463.92 318.96Q462.59 318.86 461.43 318.70L461.43 314.87Q462.62 315 463.97 315.12Q465.32 315.23 466.51 315.23Q468.72 315.23 470.09 314.71Q471.46 314.18 472.11 313.04Q472.75 311.90 472.75 310.15L472.75 306.62L473.74 304.38Q473.64 306.85 472.72 308.58Q471.79 310.32 470.21 311.22Q468.62 312.13 466.55 312.13Q464.70 312.13 463.20 311.44Q461.69 310.75 460.62 309.52Q459.55 308.30 458.95 306.65Q458.36 305 458.36 303.12L458.36 302.43Q458.36 300.55 458.97 298.92Q459.58 297.28 460.70 296.06Q461.83 294.84 463.38 294.18Q464.93 293.52 466.81 293.52Q469.02 293.52 470.65 294.48Q472.29 295.43 473.21 297.25Q474.13 299.06 474.23 301.70L473.44 301.84L473.44 294.08L477.07 294.08L477.07 309.89Q477.07 313.15 475.95 315.17Q474.83 317.18 472.50 318.12Q470.18 319.06 466.55 319.06M467.87 308.20Q469.19 308.20 470.27 307.61Q471.36 307.02 472.02 305.89Q472.68 304.77 472.68 303.19L472.68 302.03Q472.68 300.52 472.01 299.46Q471.33 298.40 470.24 297.86Q469.15 297.31 467.87 297.31Q466.41 297.31 465.31 297.99Q464.20 298.67 463.57 299.89Q462.95 301.11 462.95 302.79Q462.95 304.44 463.57 305.66Q464.20 306.88 465.31 307.55Q466.41 308.20 467.87 308.20M487.53 312L482.95 312L482.95 294.08L487.53 294.08L487.53 312M487.53 297.51L480.44 297.51L480.44 294.08L487.53 294.08L487.53 297.51M484.63 291.94Q483.28 291.94 482.63 291.23Q481.99 290.52 481.99 289.43Q481.99 288.34 482.63 287.65Q483.28 286.95 484.63 286.95Q485.98 286.95 486.61 287.65Q487.24 288.34 487.24 289.43Q487.24 290.52 486.61 291.23Q485.98 291.94 484.63 291.94M503.18 312.23L500.60 312.23Q498.13 312.23 496.53 311.59Q494.93 310.94 494.13 309.41Q493.34 307.88 493.34 305.27L493.37 289.03L497.66 289.03L497.63 305.56Q497.63 306.88 498.34 307.59Q499.05 308.30 500.37 308.30L503.18 308.30L503.18 312.23M503.18 297.45L490.50 297.45L490.50 294.08L503.18 294.08L503.18 297.45M521.46 312L517.83 312L517.83 306.69L517.07 306.69L517.07 300.78Q517.07 299.23 516.31 298.47Q515.55 297.71 513.97 297.71Q513.14 297.71 511.99 297.74Q510.83 297.78 509.66 297.83Q508.49 297.88 507.56 297.94L507.56 294.05Q508.32 293.98 509.28 293.92Q510.24 293.85 511.24 293.83Q512.25 293.82 513.14 293.82Q515.91 293.82 517.74 294.54Q519.58 295.27 520.52 296.82Q521.46 298.37 521.46 300.88L521.46 312M512.05 312.46Q510.11 312.46 508.64 311.77Q507.17 311.08 506.36 309.79Q505.55 308.50 505.55 306.69Q505.55 304.71 506.52 303.45Q507.50 302.20 509.26 301.57Q511.03 300.94 513.41 300.94L517.56 300.94L517.56 303.68L513.34 303.68Q511.76 303.68 510.91 304.46Q510.07 305.24 510.07 306.46Q510.07 307.68 510.91 308.44Q511.76 309.19 513.34 309.19Q514.30 309.19 515.10 308.85Q515.91 308.50 516.46 307.66Q517 306.82 517.07 305.37L518.19 306.65Q518.03 308.54 517.28 309.82Q516.54 311.11 515.24 311.79Q513.93 312.46 512.05 312.46M531.19 312L526.61 312L526.61 287.91L531.19 287.91L531.19 312M531.19 291.34L524.36 291.34L524.36 287.91L531.19 287.91L531.19 291.34M551.65 312L547.16 312L541.55 294.08L546.27 294.08L551.65 312M553.37 312L548.52 312L548.52 308.24L553.37 308.24L553.37 312M554.52 312L550.33 312L554.95 294.08L559.37 294.08L554.52 312M568.28 312L563.70 312L563.70 294.08L568.28 294.08L568.28 312M568.28 297.51L561.19 297.51L561.19 294.08L568.28 294.08L568.28 297.51M565.38 291.94Q564.03 291.94 563.38 291.23Q562.74 290.52 562.74 289.43Q562.74 288.34 563.38 287.65Q564.03 286.95 565.38 286.95Q566.73 286.95 567.36 287.65Q567.99 288.34 567.99 289.43Q567.99 290.52 567.36 291.23Q566.73 291.94 565.38 291.94M580.07 312.56Q576.37 312.56 574.27 310.99Q572.18 309.43 572.08 306.65L576.20 306.65Q576.30 307.58 577.23 308.34Q578.15 309.10 580.13 309.10Q581.78 309.10 582.75 308.50Q583.73 307.91 583.73 306.88Q583.73 305.99 582.99 305.47Q582.24 304.94 580.46 304.77L578.88 304.61Q575.87 304.28 574.26 302.89Q572.64 301.51 572.64 299.20Q572.64 297.35 573.56 296.09Q574.49 294.84 576.12 294.20Q577.76 293.55 579.87 293.55Q583.17 293.55 585.21 295Q587.26 296.46 587.36 299.26L583.23 299.26Q583.17 298.34 582.31 297.68Q581.45 297.02 579.83 297.02Q578.38 297.02 577.59 297.58Q576.80 298.14 576.80 299.03Q576.80 299.89 577.44 300.35Q578.09 300.81 579.54 300.98L581.12 301.14Q584.29 301.47 586.09 302.89Q587.89 304.31 587.89 306.72Q587.89 308.50 586.91 309.81Q585.94 311.11 584.19 311.83Q582.44 312.56 580.07 312.56M597.13 312L592.54 312L592.54 294.08L597.13 294.08L597.13 312M597.13 297.51L590.03 297.51L590.03 294.08L597.13 294.08L597.13 297.51M594.22 291.94Q592.87 291.94 592.23 291.23Q591.58 290.52 591.58 289.43Q591.58 288.34 592.23 287.65Q592.87 286.95 594.22 286.95Q595.58 286.95 596.20 287.65Q596.83 288.34 596.83 289.43Q596.83 290.52 596.20 291.23Q595.58 291.94 594.22 291.94M612.77 312.23L610.19 312.23Q607.72 312.23 606.12 311.59Q604.52 310.94 603.73 309.41Q602.93 307.88 602.93 305.27L602.97 289.03L607.26 289.03L607.22 305.56Q607.22 306.88 607.93 307.59Q608.64 308.30 609.96 308.30L612.77 308.30L612.77 312.23M612.77 297.45L600.10 297.45L600.10 294.08L612.77 294.08L612.77 297.45M622.07 312L617.49 312L617.49 294.08L622.07 294.08L622.07 312M622.07 297.51L614.98 297.51L614.98 294.08L622.07 294.08L622.07 297.51M619.17 291.94Q617.82 291.94 617.17 291.23Q616.53 290.52 616.53 289.43Q616.53 288.34 617.17 287.65Q617.82 286.95 619.17 286.95Q620.52 286.95 621.15 287.65Q621.78 288.34 621.78 289.43Q621.78 290.52 621.15 291.23Q620.52 291.94 619.17 291.94M631.94 312L627.35 312L627.35 294.08L630.98 294.08L630.98 301.77L630.65 301.77Q630.65 299.03 631.38 297.20Q632.11 295.37 633.54 294.44Q634.98 293.52 637.12 293.52L637.32 293.52Q640.52 293.52 642.17 295.58Q643.82 297.64 643.82 301.74L643.82 312L639.23 312L639.23 301.34Q639.23 299.69 638.29 298.67Q637.35 297.64 635.70 297.64Q634.02 297.64 632.98 298.68Q631.94 299.72 631.94 301.47L631.94 312M655.73 319.06Q654.45 319.06 653.11 318.96Q651.77 318.86 650.62 318.70L650.62 314.87Q651.81 315 653.16 315.12Q654.51 315.23 655.70 315.23Q657.91 315.23 659.28 314.71Q660.65 314.18 661.29 313.04Q661.94 311.90 661.94 310.15L661.94 306.62L662.93 304.38Q662.83 306.85 661.91 308.58Q660.98 310.32 659.40 311.22Q657.81 312.13 655.73 312.13Q653.89 312.13 652.38 311.44Q650.88 310.75 649.81 309.52Q648.74 308.30 648.14 306.65Q647.55 305 647.55 303.12L647.55 302.43Q647.55 300.55 648.16 298.92Q648.77 297.28 649.89 296.06Q651.02 294.84 652.57 294.18Q654.12 293.52 656 293.52Q658.21 293.52 659.84 294.48Q661.48 295.43 662.40 297.25Q663.32 299.06 663.42 301.70L662.63 301.84L662.63 294.08L666.26 294.08L666.26 309.89Q666.26 313.15 665.14 315.17Q664.02 317.18 661.69 318.12Q659.36 319.06 655.73 319.06M657.05 308.20Q658.37 308.20 659.46 307.61Q660.55 307.02 661.21 305.89Q661.87 304.77 661.87 303.19L661.87 302.03Q661.87 300.52 661.20 299.46Q660.52 298.40 659.43 297.86Q658.34 297.31 657.05 297.31Q655.60 297.31 654.50 297.99Q653.39 298.67 652.76 299.89Q652.14 301.11 652.14 302.79Q652.14 304.44 652.76 305.66Q653.39 306.88 654.50 307.55Q655.60 308.20 657.05 308.20M686.36 312.63Q684.02 312.63 682.32 311.83Q680.62 311.04 679.48 309.72Q678.34 308.40 677.78 306.75Q677.22 305.10 677.22 303.39L677.22 302.76Q677.22 300.94 677.79 299.28Q678.37 297.61 679.53 296.31Q680.68 295 682.38 294.23Q684.08 293.45 686.33 293.45Q688.67 293.45 690.52 294.36Q692.36 295.27 693.47 296.89Q694.58 298.50 694.71 300.65L690.25 300.65Q690.09 299.26 689.08 298.34Q688.07 297.41 686.33 297.41Q684.81 297.41 683.80 298.14Q682.79 298.87 682.30 300.14Q681.80 301.41 681.80 303.06Q681.80 304.64 682.28 305.93Q682.76 307.21 683.77 307.94Q684.77 308.67 686.36 308.67Q687.55 308.67 688.40 308.24Q689.26 307.81 689.77 307.05Q690.29 306.29 690.42 305.33L694.87 305.33Q694.74 307.51 693.60 309.15Q692.46 310.78 690.60 311.70Q688.73 312.63 686.36 312.63M713.02 312L709.39 312L709.39 306.69L708.63 306.69L708.63 300.78Q708.63 299.23 707.87 298.47Q707.12 297.71 705.53 297.71Q704.71 297.71 703.55 297.74Q702.40 297.78 701.22 297.83Q700.05 297.88 699.13 297.94L699.13 294.05Q699.89 293.98 700.85 293.92Q701.80 293.85 702.81 293.83Q703.82 293.82 704.71 293.82Q707.48 293.82 709.31 294.54Q711.14 295.27 712.08 296.82Q713.02 298.37 713.02 300.88L713.02 312M703.62 312.46Q701.67 312.46 700.20 311.77Q698.73 311.08 697.92 309.79Q697.12 308.50 697.12 306.69Q697.12 304.71 698.09 303.45Q699.06 302.20 700.83 301.57Q702.59 300.94 704.97 300.94L709.13 300.94L709.13 303.68L704.90 303.68Q703.32 303.68 702.48 304.46Q701.64 305.24 701.64 306.46Q701.64 307.68 702.48 308.44Q703.32 309.19 704.90 309.19Q705.86 309.19 706.67 308.85Q707.48 308.50 708.02 307.66Q708.57 306.82 708.63 305.37L709.76 306.65Q709.59 308.54 708.85 309.82Q708.11 311.11 706.80 311.79Q705.50 312.46 703.62 312.46M722.53 312L717.94 312L717.94 294.08L721.57 294.08L721.57 301.67L721.47 301.67Q721.47 297.81 723.12 295.83Q724.77 293.85 727.97 293.85L728.63 293.85L728.63 297.84L727.38 297.84Q725.07 297.84 723.80 299.08Q722.53 300.32 722.53 302.66L722.53 312M738.99 312.59Q737.11 312.59 735.53 311.90Q733.94 311.21 732.79 309.95Q731.63 308.70 731.01 307.03Q730.38 305.37 730.38 303.42L730.38 302.73Q730.38 300.81 730.99 299.13Q731.60 297.45 732.71 296.19Q733.81 294.94 735.38 294.23Q736.95 293.52 738.86 293.52Q740.97 293.52 742.57 294.43Q744.17 295.33 745.13 297.15Q746.09 298.96 746.19 301.70L744.83 300.12L744.83 287.91L749.42 287.91L749.42 312L745.79 312L745.79 304.38L746.58 304.38Q746.48 307.12 745.46 308.95Q744.44 310.78 742.77 311.69Q741.11 312.59 738.99 312.59M740.02 308.73Q741.37 308.73 742.49 308.12Q743.61 307.51 744.29 306.34Q744.97 305.17 744.97 303.58L744.97 302.26Q744.97 300.68 744.27 299.61Q743.58 298.54 742.46 297.96Q741.34 297.38 740.02 297.38Q738.53 297.38 737.39 298.09Q736.25 298.80 735.61 300.09Q734.97 301.37 734.97 303.09Q734.97 304.81 735.63 306.08Q736.29 307.35 737.43 308.04Q738.56 308.73 740.02 308.73M759.06 312L753.91 312L753.91 306.72L759.06 306.72" fill="#E5E9FF" opacity="0.92"/>
</svg>
