<svg width="300" height="84" viewBox="0 0 300 84" fill="none" xmlns="http://www.w3.org/2000/svg" role="img" aria-label="DCard">
  <defs>
    <linearGradient id="dcardLogo" x1="6" y1="6" x2="78" y2="78" gradientUnits="userSpaceOnUse">
      <stop stop-color="#818CF8"/><stop offset="0.55" stop-color="#6366F1"/><stop offset="1" stop-color="#4F46E5"/>
    </linearGradient>
  </defs>
  <!-- mark -->
  <g transform="translate(6 6) scale(0.75)">
    <rect x="0" y="0" width="96" height="96" rx="20" fill="url(#dcardLogo)"/>
    <g transform="translate(48 48) scale(1.2) translate(-48 -48)">
      <path fill-rule="evenodd" clip-rule="evenodd"
            d="M26 26 H48 A22 22 0 0 1 48 70 H26 Z M35 35 H48 A13 13 0 0 1 48 61 H35 Z" fill="#ffffff"/>
      <g fill="#ffffff">
        <rect x="37.5" y="40" width="4.8" height="4.8" rx="1.4"/>
        <rect x="45" y="40" width="4.8" height="4.8" rx="1.4"/>
        <rect x="37.5" y="47.5" width="4.8" height="4.8" rx="1.4"/>
        <rect x="45" y="47.5" width="4.8" height="4.8" rx="1.4"/>
        <rect x="52.5" y="43.75" width="4.8" height="4.8" rx="1.4"/>
      </g>
    </g>
  </g>
  <!-- wordmark -->
  <text x="96" y="54" font-family="'Sora','Inter',system-ui,-apple-system,Segoe UI,Roboto,sans-serif"
        font-size="44" font-weight="700" letter-spacing="-1.5" fill="#1E1B4B">D<tspan fill="#4F46E5">Card</tspan></text>
</svg>
