<svg width="247" height="84" viewBox="0 0 247 84" fill="none" xmlns="http://www.w3.org/2000/svg" role="img" aria-label="DCard">
  <defs>
    <linearGradient id="dcardLogo" x1="6" y1="6" x2="78" y2="78" gradientUnits="userSpaceOnUse">
      <stop stop-color="#818CF8"/><stop offset="0.55" stop-color="#6366F1"/><stop offset="1" stop-color="#4F46E5"/>
    </linearGradient>
  </defs>
  <g transform="translate(6 6) scale(0.75)">
    <rect x="0" y="0" width="96" height="96" rx="20" fill="url(#dcardLogo)"/>
    <g transform="translate(48 48) scale(1.2) translate(-48 -48)">
      <path fill-rule="evenodd" clip-rule="evenodd" d="M26 26 H48 A22 22 0 0 1 48 70 H26 Z M35 35 H48 A13 13 0 0 1 48 61 H35 Z" fill="#ffffff"/>
      <g fill="#ffffff">
        <rect x="37.5" y="40" width="4.8" height="4.8" rx="1.4"/>
        <rect x="45" y="40" width="4.8" height="4.8" rx="1.4"/>
        <rect x="37.5" y="47.5" width="4.8" height="4.8" rx="1.4"/>
        <rect x="45" y="47.5" width="4.8" height="4.8" rx="1.4"/>
        <rect x="52.5" y="43.75" width="4.8" height="4.8" rx="1.4"/>
      </g>
    </g>
  </g>
  <g transform="translate(90.39 58.13)">
    <path d="M15.53 0.18L9.94 0.18L9.94-6.56L15.93-6.56Q18.17-6.56 19.98-7.24Q21.78-7.92 23.06-9.17Q24.33-10.43 24.99-12.21Q25.65-13.99 25.65-16.15Q25.65-18.39 24.99-20.15Q24.33-21.91 23.06-23.14Q21.78-24.38 19.98-25.01Q18.17-25.65 15.93-25.65L9.94-25.65L9.94-32.38L15.53-32.38Q19.89-32.38 23.14-31.11Q26.40-29.83 28.60-27.63Q30.80-25.43 31.88-22.59Q32.96-19.76 32.96-16.63L32.96-15.66Q32.96-12.76 31.88-9.92Q30.80-7.08 28.60-4.82Q26.40-2.55 23.14-1.19Q19.89 0.18 15.53 0.18M10.82 0.18L3.61 0.18L3.61-32.38L10.82-32.38" fill="#1E1B4B"/>
    <path d="M52.71 0.84Q48.36 0.84 45.23-0.68Q42.11-2.20 40.13-4.69Q38.15-7.17 37.20-10.05Q36.26-12.94 36.26-15.66L36.26-16.63Q36.26-19.62 37.22-22.55Q38.19-25.48 40.19-27.85Q42.20-30.23 45.25-31.66Q48.31-33.09 52.49-33.09Q56.85-33.09 60.19-31.46Q63.54-29.83 65.54-26.95Q67.54-24.07 67.89-20.20L60.63-20.20Q60.32-22.13 59.22-23.50Q58.12-24.86 56.39-25.61Q54.65-26.36 52.49-26.36Q50.34-26.36 48.66-25.61Q46.99-24.86 45.87-23.50Q44.75-22.13 44.15-20.26Q43.56-18.39 43.56-16.10Q43.56-13.86 44.15-11.99Q44.75-10.12 45.91-8.73Q47.08-7.35 48.80-6.62Q50.51-5.90 52.71-5.90Q56.06-5.90 58.37-7.52Q60.68-9.15 61.16-12.01L68.38-12.01Q67.98-8.49 66.02-5.57Q64.06-2.64 60.70-0.90Q57.33 0.84 52.71 0.84M92.93 0L87.34 0L87.34-7.13L86.15-7.13L86.15-14.87Q86.15-16.72 85.27-17.64Q84.39-18.57 82.46-18.57Q81.49-18.57 79.90-18.52Q78.32-18.48 76.65-18.39Q74.98-18.30 73.61-18.22L73.61-24.16Q74.62-24.24 75.99-24.33Q77.35-24.42 78.80-24.46Q80.26-24.51 81.53-24.51Q85.23-24.51 87.76-23.45Q90.29-22.40 91.61-20.26Q92.93-18.13 92.93-14.78L92.93 0M79.64 0.62Q77.04 0.62 75.09-0.31Q73.13-1.23 72.03-2.97Q70.93-4.71 70.93-7.13Q70.93-9.77 72.29-11.46Q73.66-13.16 76.12-13.97Q78.58-14.78 81.80-14.78L86.94-14.78L86.94-10.87L81.75-10.87Q79.90-10.87 78.91-9.97Q77.92-9.06 77.92-7.52Q77.92-6.07 78.91-5.17Q79.90-4.27 81.75-4.27Q82.94-4.27 83.89-4.69Q84.83-5.10 85.45-6.12Q86.06-7.13 86.15-8.93L87.82-7.17Q87.60-4.66 86.61-2.95Q85.62-1.23 83.89-0.31Q82.15 0.62 79.64 0.62M105.95 0L98.91 0L98.91-24.11L104.50-24.11L104.50-13.77L104.37-13.77Q104.37-18.88 106.55-21.65Q108.72-24.42 112.86-24.42L113.78-24.42L113.78-18.35L112.02-18.35Q109.12-18.35 107.54-16.79Q105.95-15.22 105.95-12.28L105.95 0M127.25 0.79Q124.70 0.79 122.61-0.13Q120.52-1.06 118.98-2.71Q117.44-4.36 116.62-6.60Q115.81-8.84 115.81-11.44L115.81-12.45Q115.81-15.05 116.58-17.29Q117.35-19.54 118.82-21.23Q120.30-22.92 122.36-23.87Q124.43-24.82 126.98-24.82Q129.89-24.82 132-23.56Q134.11-22.31 135.30-19.87Q136.49-17.42 136.62-13.86L134.77-15.58L134.77-32.12L141.86-32.12L141.86 0L136.27 0L136.27-9.99L137.24-9.99Q137.10-6.56 135.81-4.14Q134.51-1.72 132.31-0.46Q130.11 0.79 127.25 0.79M129.01-5.10Q130.64-5.10 131.98-5.83Q133.32-6.56 134.13-7.96Q134.95-9.37 134.95-11.35L134.95-12.98Q134.95-14.92 134.11-16.24Q133.28-17.56 131.91-18.26Q130.55-18.96 128.96-18.96Q127.20-18.96 125.82-18.06Q124.43-17.16 123.64-15.60Q122.85-14.04 122.85-11.97Q122.85-9.86 123.64-8.32Q124.43-6.78 125.84-5.94Q127.25-5.10 129.01-5.10" fill="#4F46E5"/>
  </g>
</svg>
