<svg width="300" height="84" viewBox="0 0 300 84" fill="none" xmlns="http://www.w3.org/2000/svg" role="img" aria-label="DCard">
  <defs>
    <linearGradient id="dcardLogo" x1="6" y1="6" x2="78" y2="78" gradientUnits="userSpaceOnUse">
      <stop stop-color="#818CF8"/><stop offset="0.55" stop-color="#6366F1"/><stop offset="1" stop-color="#4F46E5"/>
    </linearGradient>
  </defs>
  <!-- mark -->
  <g transform="translate(6 6) scale(0.75)">
    <rect x="0" y="0" width="96" height="96" rx="20" fill="url(#dcardLogo)"/>
    <g transform="translate(48 48) scale(1.18) translate(-48 -48)">
      <path fill-rule="evenodd" clip-rule="evenodd"
            d="M24 32 H42 A16 16 0 0 1 42 64 H24 Z M31 39 H42 A9 9 0 0 1 42 57 H31 Z" fill="#ffffff"/>
      <g fill="none" stroke="#ffffff" stroke-linecap="round">
        <path d="M58 40 A10 10 0 0 1 58 56" stroke-width="3.4"/>
        <path d="M64 34 A17 17 0 0 1 64 62" stroke-width="3.4" opacity="0.5"/>
      </g>
    </g>
  </g>
  <!-- wordmark -->
  <text x="96" y="54" font-family="'Sora','Inter',system-ui,-apple-system,Segoe UI,Roboto,sans-serif"
        font-size="44" font-weight="700" letter-spacing="-1.5" fill="#1E1B4B">D<tspan fill="#4F46E5">Card</tspan></text>
</svg>
