<svg width="1080" height="1920" viewBox="0 0 1080 1920" fill="none" xmlns="http://www.w3.org/2000/svg">
  <defs>
    <linearGradient id="bg" x1="0" y1="0" x2="1080" y2="1920" gradientUnits="userSpaceOnUse">
      <stop stop-color="#7C79F2"/><stop offset="0.5" stop-color="#6366F1"/><stop offset="1" stop-color="#4B43DC"/>
    </linearGradient>
    <radialGradient id="glow" cx="0.5" cy="0.06" r="0.7">
      <stop stop-color="#AEB8FF" stop-opacity="0.45"/><stop offset="0.7" stop-color="#AEB8FF" stop-opacity="0"/>
    </radialGradient>
  </defs>
  <rect width="1080" height="1920" fill="url(#bg)"/>
  <rect width="1080" height="1920" fill="url(#glow)"/>
  <circle cx="120" cy="1700" r="200" fill="#ffffff" opacity="0.05"/>
  <circle cx="980" cy="120" r="150" fill="#ffffff" opacity="0.05"/>

  <!-- caption -->
  <path d="M112.24 251.52Q104.32 251.52 98.88 249Q93.44 246.48 90.64 242.12Q87.84 237.76 87.84 232.08L100.56 232.08Q100.56 234.32 101.80 236.24Q103.04 238.16 105.60 239.32Q108.16 240.48 112.24 240.48Q115.92 240.48 118.40 239.52Q120.88 238.56 122.16 236.84Q123.44 235.12 123.44 232.88Q123.44 230.08 121.04 228.44Q118.64 226.80 113.28 226.32L108.88 225.92Q100.16 225.20 94.96 220.48Q89.76 215.76 89.76 208Q89.76 202.40 92.44 198.32Q95.12 194.24 99.92 192.04Q104.72 189.84 111.28 189.84Q118.16 189.84 123.08 192.20Q128 194.56 130.64 198.84Q133.28 203.12 133.28 208.88L120.48 208.88Q120.48 206.72 119.44 204.92Q118.40 203.12 116.36 202Q114.32 200.88 111.28 200.88Q108.40 200.88 106.44 201.84Q104.48 202.80 103.52 204.44Q102.56 206.08 102.56 208Q102.56 210.48 104.32 212.32Q106.08 214.16 110.08 214.48L114.56 214.88Q120.96 215.44 125.84 217.64Q130.72 219.84 133.48 223.64Q136.24 227.44 136.24 232.88Q136.24 238.48 133.32 242.68Q130.40 246.88 125.04 249.20Q119.68 251.52 112.24 251.52M157.36 250L144.56 250L144.56 191.60L157.36 191.60L157.36 225.28L155.44 225.28Q155.44 218.64 157.12 214.08Q158.80 209.52 162.08 207.16Q165.36 204.80 170.32 204.80L170.88 204.80Q178.16 204.80 NaN 209.96Q185.84 215.12 185.84 225.04L185.84 250L173.04 250L173.04 224.24Q173.04 220.64 170.92 218.44Q168.80 216.24 165.36 216.24Q161.76 216.24 159.56 218.56Q157.36 220.88 157.36 224.72L157.36 250M233.36 250L223.20 250L223.20 237.04L221.04 237.04L221.04 222.96Q221.04 219.60 219.44 217.92Q217.84 216.24 214.32 216.24Q212.56 216.24 209.68 216.32Q206.80 216.40 203.76 216.56Q200.72 216.72 198.24 216.88L198.24 206.08Q200.08 205.92 202.56 205.76Q205.04 205.60 207.68 205.52Q210.32 205.44 212.64 205.44Q219.36 205.44 223.96 207.36Q228.56 209.28 230.96 213.16Q233.36 217.04 233.36 223.12L233.36 250M209.20 251.12Q204.48 251.12 200.92 249.44Q197.36 247.76 195.36 244.60Q193.36 241.44 193.36 237.04Q193.36 232.24 195.84 229.16Q198.32 226.08 202.80 224.60Q207.28 223.12 213.12 223.12L222.48 223.12L222.48 230.24L213.04 230.24Q209.68 230.24 207.88 231.88Q206.08 233.52 206.08 236.32Q206.08 238.96 207.88 240.60Q209.68 242.24 213.04 242.24Q215.20 242.24 216.92 241.48Q218.64 240.72 219.76 238.88Q220.88 237.04 221.04 233.76L224.08 236.96Q223.68 241.52 221.88 244.64Q220.08 247.76 216.92 249.44Q213.76 251.12 209.20 251.12M257.04 250L244.24 250L244.24 206.16L254.40 206.16L254.40 224.96L254.16 224.96Q254.16 215.68 258.12 210.64Q262.08 205.60 269.60 205.60L271.28 205.60L271.28 216.64L268.08 216.64Q262.80 216.64 259.92 219.48Q257.04 222.32 257.04 227.68L257.04 250M297.76 251.52Q292.16 251.52 287.88 249.60Q283.60 247.68 280.76 244.44Q277.92 241.20 276.44 237.16Q274.96 233.12 274.96 228.88L274.96 227.28Q274.96 222.88 276.44 218.84Q277.92 214.80 280.72 211.60Q283.52 208.40 287.72 206.52Q291.92 204.64 297.28 204.64Q304.32 204.64 309.16 207.80QNaN 210.96 316.56 216.04Q319.12 221.12 319.12 227.12L319.12 231.44L280.32 231.44L280.32 224.16L311.36 224.16L307.20 227.52Q307.20 223.60 306.08 220.80Q304.96 218 302.76 216.52Q300.56 215.04 297.28 215.04Q293.92 215.04 291.60 216.56Q289.28 218.08 288.08 221Q286.88 223.92 286.88 228.16Q286.88 232.08 NaN 235Q289.12 237.92 291.52 239.52Q293.92 241.12 297.76 241.12Q301.28 241.12 303.52 239.76Q305.76 238.40 306.56 236.40L318.32 236.40Q317.36 240.80 314.56 244.24Q311.76 247.68 307.52 249.60Q303.28 251.52 297.76 251.52M369.44 250L360.48 250L368.48 207.60L382.48 207.60L391.76 250L381.84 250L372.32 207.92LNaN 207.92L369.44 250M366.24 250L357.44 250L357.36 239.36L366.16 239.36L366.24 250M363.44 250L351.68 250L339.92 206.16L352.48 206.16L363.44 250MNaN 250L385.12 250L385.20 239.36LNaN 239.36LNaN 250M399.68 250L388.72 250L398.48 206.16L410.24 206.16L399.68 250M433.04 250L420.24 250L420.24 206.16L433.04 206.16L433.04 250M433.04 215.60L414.40 215.60L414.40 206.16L433.04 206.16L433.04 215.60M425.20 201.84Q421.60 201.84 419.88 199.96Q418.16 198.08 418.16 195.20Q418.16 192.24 419.88 190.36Q421.60 188.48 425.20 188.48Q428.80 188.48 430.52 190.36Q432.24 192.24 432.24 195.20Q432.24 198.08 430.52 199.96Q428.80 201.84 425.20 201.84M470.96 250.56L464.80 250.56Q458.16 250.56 454.08 248.92QNaN 247.28 448.12 243.40Q446.24 239.52 446.24 232.88L446.24 194.32L458.16 194.32L458.16 233.36Q458.16 236.48 459.80 238.12Q461.44 239.76 464.48 239.76L470.96 239.76L470.96 250.56M470.96 215.52L439.60 215.52L439.60 206.16L470.96 206.16L470.96 215.52M492.40 250L479.60 250L479.60 191.60L492.40 191.60L492.40 225.28L490.48 225.28Q490.48 218.64 492.16 214.08Q493.84 209.52 497.12 207.16Q500.40 204.80 505.36 204.80L505.92 204.80Q513.20 204.80 517.04 209.96Q520.88 215.12 520.88 225.04L520.88 250L508.08 250L508.08 224.24Q508.08 220.64 505.96 218.44Q503.84 216.24 500.40 216.24Q496.80 216.24 494.60 218.56Q492.40 220.88 492.40 224.72L492.40 250M585.20 250L575.04 250L575.04 237.04L572.88 237.04L572.88 222.96Q572.88 219.60 571.28 217.92Q569.68 216.24 566.16 216.24Q564.40 216.24 561.52 216.32Q558.64 216.40 555.60 216.56Q552.56 216.72 550.08 216.88L550.08 206.08Q551.92 205.92 554.40 205.76Q556.88 205.60 559.52 205.52Q562.16 205.44 564.48 205.44Q571.20 205.44 575.80 207.36Q580.40 209.28 582.80 213.16Q585.20 217.04 585.20 223.12L585.20 250M561.04 251.12Q556.32 251.12 552.76 249.44Q549.20 247.76 547.20 244.60Q545.20 241.44 545.20 237.04Q545.20 232.24 547.68 229.16Q550.16 226.08 554.64 224.60Q559.12 223.12 564.96 223.12L574.32 223.12L574.32 230.24L564.88 230.24Q561.52 230.24 559.72 231.88Q557.92 233.52 557.92 236.32Q557.92 238.96 559.72 240.60Q561.52 242.24 564.88 242.24Q567.04 242.24 568.76 241.48Q570.48 240.72 571.60 238.88Q572.72 237.04 572.88 233.76L575.92 236.96Q575.52 241.52 573.72 244.64Q571.92 247.76 568.76 249.44Q565.60 251.12 561.04 251.12M638.96 250.56L632.80 250.56Q626.16 250.56 622.08 248.92Q618 247.28 616.12 243.40Q614.24 239.52 614.24 232.88L614.24 194.32L626.16 194.32L626.16 233.36Q626.16 236.48 627.80 238.12Q629.44 239.76 632.48 239.76L638.96 239.76L638.96 250.56M638.96 215.52L607.60 215.52L607.60 206.16L638.96 206.16L638.96 215.52M684.08 250L673.92 250L673.92 237.04L671.76 237.04L671.76 222.96Q671.76 219.60 670.16 217.92Q668.56 216.24 665.04 216.24Q663.28 216.24 660.40 216.32Q657.52 216.40 654.48 216.56Q651.44 216.72 648.96 216.88L648.96 206.08Q650.80 205.92 653.28 205.76Q655.76 205.60 658.40 205.52Q661.04 205.44 663.36 205.44Q670.08 205.44 674.68 207.36Q679.28 209.28 681.68 213.16Q684.08 217.04 684.08 223.12L684.08 250M659.92 251.12Q655.20 251.12 651.64 249.44Q648.08 247.76 646.08 244.60Q644.08 241.44 644.08 237.04Q644.08 232.24 646.56 229.16Q649.04 226.08 653.52 224.60Q658 223.12 663.84 223.12L673.20 223.12L673.20 230.24L663.76 230.24Q660.40 230.24 658.60 231.88Q656.80 233.52 656.80 236.32Q656.80 238.96 658.60 240.60Q660.40 242.24 663.76 242.24Q665.92 242.24 667.64 241.48Q669.36 240.72 670.48 238.88Q671.60 237.04 671.76 233.76L674.80 236.96Q674.40 241.52 672.60 244.64Q670.80 247.76 667.64 249.44Q664.48 251.12 659.92 251.12M707.76 266L694.96 266L694.96 206.16L705.12 206.16L705.12 225.12L703.76 225.04Q704.08 218.48 706.48 213.96Q708.88 209.44 712.96 207.16Q717.04 204.88 722.16 204.88Q726.72 204.88 730.44 206.56Q734.16 208.24 736.84 211.24Q739.52 214.24 740.92 218.28Q742.32 222.32 742.32 227.12L742.32 228.96Q742.32 233.68 740.96 237.80Q739.60 241.92 737 244.96Q734.40 248 730.68 249.72Q726.96 251.44 722.16 251.44Q717.20 251.44 713.24 249.40Q709.28 247.36 706.88 243.16Q704.48 238.96 704.24 232.48L707.76 237.28L707.76 266M718.56 240.72Q721.84 240.72 724.28 239.12Q726.72 237.52 728.08 234.64Q729.44 231.76 729.44 228Q729.44 224.24 728.08 221.44Q726.72 218.64 724.32 217.08Q721.92 215.52 718.56 215.52Q715.68 215.52 713.12 216.88Q710.56 218.24 709 220.76Q707.44 223.28 707.44 226.88L707.44 229.84Q707.44 233.28 709.08 235.72Q710.72 238.16 713.28 239.44Q715.84 240.72 718.56 240.72M789.36 251.52Q783.60 251.52 779.12 249.72Q774.64 247.92 771.56 244.80Q768.48 241.68 766.88 237.64Q765.28 233.60 765.28 229.12L765.28 227.28Q765.28 222.72 766.92 218.60Q768.56 214.48 771.72 211.36Q774.88 208.24 779.36 206.44Q783.84 204.64 789.36 204.64Q795.04 204.64 799.48 206.44Q803.92 208.24 807.04 211.36Q810.16 214.48 811.84 218.60Q813.52 222.72 813.52 227.28L813.52 229.12Q813.52 233.60 811.92 237.64Q810.32 241.68 807.24 244.80Q804.16 247.92 799.68 249.72Q795.20 251.52 789.36 251.52M789.36 240.72Q793.12 240.72 795.60 239.12Q798.08 237.52 799.40 234.64Q800.72 231.76 800.72 228.24Q800.72 224.48 799.36 221.64Q798 218.80 795.48 217.12Q792.96 215.44 789.36 215.44Q785.84 215.44 783.28 217.12Q780.72 218.80 779.40 221.64Q778.08 224.48 778.08 228.24Q778.08 231.76 779.36 234.64Q780.64 237.52 783.20 239.12Q785.76 240.72 789.36 240.72M835.28 250L822.48 250L822.48 206.16L832.64 206.16L832.64 224.96L832.40 224.96Q832.40 215.68 836.36 210.64Q840.32 205.60 847.84 205.60L849.52 205.60L849.52 216.64L846.32 216.64Q841.04 216.64 838.16 219.48Q835.28 222.32 835.28 227.68L835.28 250M921.28 267.44L913.12 267.44Q907.68 267.44 903.72 266.16Q899.76 264.88 897.56 261.52Q895.36 258.16 895.36 251.92L895.36 242.96L907.60 242.96L907.60 252.48Q907.60 254.80 908.92 256.04Q910.24 257.28 912.56 257.28L921.28 257.28L921.28 267.44M901.68 251.52Q893.76 251.52 887.88 248.76Q882 246 878.16 241.48Q874.32 236.96 872.44 231.68Q870.56 226.40 870.56 221.52L870.56 219.76Q870.56 214.32 872.52 209Q874.48 203.68 878.40 199.36Q882.32 195.04 888.16 192.44Q894 189.84 901.68 189.84Q909.36 189.84 915.20 192.44Q921.04 195.04 924.96 199.36Q928.88 203.68 930.88 209Q932.88 214.32 932.88 219.76L932.88 221.52Q932.88 226.40 930.96 231.68Q929.04 236.96 925.20 241.48Q921.36 246 915.48 248.76Q909.60 251.52 901.68 251.52M901.68 239.28Q905.84 239.28 909.16 237.84Q912.48 236.40 914.84 233.84Q917.20 231.28 918.40 227.92Q919.60 224.56 919.60 220.72Q919.60 216.64 918.36 213.24Q917.12 209.84 914.76 207.32Q912.40 204.80 909.12 203.44Q905.84 202.08 901.68 202.08Q897.52 202.08 894.24 203.44Q890.96 204.80 888.60 207.32Q886.24 209.84 885.04 213.24Q883.84 216.64 883.84 220.72Q883.84 224.56 885.04 227.92Q886.24 231.28 888.60 233.84Q890.96 236.40 894.24 237.84Q897.52 239.28 901.68 239.28M955.92 250L942.80 250L942.80 191.12L955.92 191.12L955.92 250M993.44 250L978.24 250L961.12 224.88L975.52 224.88L993.44 250M965.76 231.28L952.40 231.28L952.40 220.96L966.80 220.96Q969.68 220.96 971.80 219.80Q973.92 218.64 975.08 216.52Q976.24 214.40 976.24 211.60Q976.24 208.80 975.08 206.68Q973.92 204.56 971.80 203.40Q969.68 202.24 966.80 202.24L952.40 202.24L952.40 191.12L965.76 191.12Q973.04 191.12 978.40 193.32Q983.76 195.52 986.64 199.84Q989.52 204.16 989.52 210.72L989.52 212Q989.52 218.48 986.60 222.76Q983.68 227.04 978.36 229.16Q973.04 231.28 965.76 231.28" fill="#ffffff"/>
  <path d="M138.26 350L132.98 350L132.98 320.80L142.30 320.80L154.58 345.28L155.90 345.28L155.10 346L155.10 320.80L160.46 320.80L160.46 350L151.10 350L138.82 325.52L137.46 325.52L138.26 324.80L138.26 350M177.66 350.76Q174.78 350.76 172.58 349.84Q170.38 348.92 168.86 347.34Q167.34 345.76 166.56 343.76Q165.78 341.76 165.78 339.60L165.78 338.76Q165.78 336.52 166.60 334.50Q167.42 332.48 168.96 330.90Q170.50 329.32 172.70 328.42Q174.90 327.52 177.66 327.52Q180.42 327.52 182.62 328.42Q184.82 329.32 186.36 330.90Q187.90 332.48 188.70 334.50Q189.50 336.52 189.50 338.76L189.50 339.60Q189.50 341.76 188.72 343.76Q187.94 345.76 186.42 347.34Q184.90 348.92 182.70 349.84Q180.50 350.76 177.66 350.76M177.66 346Q179.70 346 181.10 345.10Q182.50 344.20 183.22 342.66Q183.94 341.12 183.94 339.16Q183.94 337.16 183.20 335.62Q182.46 334.08 181.04 333.18Q179.62 332.28 177.66 332.28Q175.70 332.28 174.28 333.18Q172.86 334.08 172.10 335.62Q171.34 337.16 171.34 339.16Q171.34 341.12 172.08 342.66Q172.82 344.20 174.22 345.10Q175.62 346 177.66 346M220.58 350L216.18 350L216.18 343.56L215.26 343.56L215.26 336.40Q215.26 334.52 214.34 333.60Q213.42 332.68 211.50 332.68Q210.50 332.68 209.10 332.72Q207.70 332.76 206.28 332.82Q204.86 332.88 203.74 332.96L203.74 328.24Q204.66 328.16 205.82 328.08Q206.98 328 208.20 327.98Q209.42 327.96 210.50 327.96Q213.86 327.96 216.08 328.84Q218.30 329.72 219.44 331.60Q220.58 333.48 220.58 336.52L220.58 350M209.18 350.56Q206.82 350.56 205.04 349.72Q203.26 348.88 202.28 347.32Q201.30 345.76 201.30 343.56Q201.30 341.16 202.48 339.64Q203.66 338.12 205.80 337.36Q207.94 336.60 210.82 336.60L215.86 336.60L215.86 339.92L210.74 339.92Q208.82 339.92 207.80 340.86Q206.78 341.80 206.78 343.28Q206.78 344.76 207.80 345.68Q208.82 346.60 210.74 346.60Q211.90 346.60 212.88 346.18Q213.86 345.76 214.52 344.74Q215.18 343.72 215.26 341.96L216.62 343.52Q216.42 345.80 215.52 347.36Q214.62 348.92 213.04 349.74Q211.46 350.56 209.18 350.56M232.10 358L226.54 358L226.54 328.28L230.94 328.28L230.94 337.64L230.26 337.60Q230.42 334.28 231.64 332.04Q232.86 329.80 234.90 328.70Q236.94 327.60 239.46 327.60Q241.78 327.60 243.64 328.44Q245.50 329.28 246.84 330.80Q248.18 332.32 248.90 334.34Q249.62 336.36 249.62 338.68L249.62 339.52Q249.62 341.88 248.92 343.90Q248.22 345.92 246.88 347.46Q245.54 349 243.66 349.86Q241.78 350.72 239.46 350.72Q237.02 350.72 NaN 349.70Q232.98 348.68 231.74 346.54Q230.50 344.40 230.34 341L232.10 343.68L232.10 358M238.06 346.04Q239.86 346.04 241.20 345.16Q242.54 344.28 243.30 342.70Q244.06 341.12 244.06 339.12Q244.06 337.04 243.30 335.52Q242.54 334 241.20 333.14Q239.86 332.28 238.06 332.28Q236.42 332.28 235.04 333Q233.66 333.72 232.80 335.12Q231.94 336.52 231.94 338.48L231.94 340.08Q231.94 341.96 232.82 343.28Q233.70 344.60 235.10 345.32Q236.50 346.04 238.06 346.04M260.06 358L254.50 358L254.50 328.28L258.90 328.28L258.90 337.64L258.22 337.60Q258.38 334.28 259.60 332.04Q260.82 329.80 262.86 328.70Q264.90 327.60 267.42 327.60Q269.74 327.60 271.60 328.44Q273.46 329.28 274.80 330.80Q276.14 332.32 276.86 334.34Q277.58 336.36 277.58 338.68L277.58 339.52Q277.58 341.88 276.88 343.90Q276.18 345.92 274.84 347.46Q273.50 349 271.62 349.86Q269.74 350.72 267.42 350.72Q264.98 350.72 262.96 349.70Q260.94 348.68 259.70 346.54Q258.46 344.40 258.30 341L260.06 343.68L260.06 358M266.02 346.04Q267.82 346.04 269.16 345.16Q270.50 344.28 271.26 342.70Q272.02 341.12 272.02 339.12Q272.02 337.04 271.26 335.52Q270.50 334 269.16 333.14Q267.82 332.28 266.02 332.28Q264.38 332.28 NaN 333Q261.62 333.72 260.76 335.12Q259.90 336.52 259.90 338.48L259.90 340.08Q259.90 341.96 260.78 343.28Q261.66 344.60 263.06 345.32Q264.46 346.04 266.02 346.04M296.66 350L291.10 350L291.10 328.28L295.50 328.28L295.50 337.60L295.10 337.60Q295.10 334.28 295.98 332.06Q296.86 329.84 298.60 328.72Q300.34 327.60 302.94 327.60L303.18 327.60Q307.06 327.60 309.06 330.10Q311.06 332.60 311.06 337.56L311.06 350L305.50 350L305.50 337.08Q305.50 335.08 304.36 333.84Q303.22 332.60 301.22 332.60Q299.18 332.60 297.92 333.86Q296.66 335.12 296.66 337.24L296.66 350M326.74 350.76Q323.94 350.76 321.84 349.80Q319.74 348.84 318.36 347.22Q316.98 345.60 316.28 343.60Q315.58 341.60 315.58 339.52L315.58 338.76Q315.58 336.60 316.28 334.58Q316.98 332.56 318.36 330.98Q319.74 329.40 321.78 328.46Q323.82 327.52 326.50 327.52Q330.02 327.52 332.40 329.06Q334.78 330.60 335.98 333.10Q337.18 335.60 337.18 338.48L337.18 340.48L317.94 340.48L317.94 337.08L333.70 337.08L331.98 338.76Q331.98 336.68 331.38 335.20Q330.78 333.72 329.56 332.92Q328.34 332.12 326.50 332.12Q324.66 332.12 323.38 332.96Q322.10 333.80 321.44 335.38Q320.78 336.96 320.78 339.16Q320.78 341.20 321.42 342.78Q322.06 344.36 323.38 345.26Q324.70 346.16 326.74 346.16Q328.78 346.16 330.06 345.34Q331.34 344.52 331.70 343.32L336.82 343.32Q336.34 345.56 334.98 347.24Q333.62 348.92 331.52 349.84Q329.42 350.76 326.74 350.76M351.54 350.76Q348.74 350.76 346.64 349.80Q344.54 348.84 343.16 347.22Q341.78 345.60 341.08 343.60Q340.38 341.60 340.38 339.52L340.38 338.76Q340.38 336.60 341.08 334.58Q341.78 332.56 343.16 330.98Q344.54 329.40 346.58 328.46Q348.62 327.52 351.30 327.52Q354.82 327.52 357.20 329.06Q359.58 330.60 360.78 333.10Q361.98 335.60 361.98 338.48L361.98 340.48L342.74 340.48L342.74 337.08L358.50 337.08L356.78 338.76Q356.78 336.68 356.18 335.20Q355.58 333.72 354.36 332.92Q353.14 332.12 351.30 332.12Q349.46 332.12 348.18 332.96Q346.90 333.80 346.24 335.38Q345.58 336.96 345.58 339.16Q345.58 341.20 346.22 342.78Q346.86 344.36 348.18 345.26Q349.50 346.16 351.54 346.16Q353.58 346.16 354.86 345.34Q356.14 344.52 356.50 343.32L361.62 343.32Q361.14 345.56 359.78 347.24Q358.42 348.92 356.32 349.84Q354.22 350.76 351.54 350.76M375.62 350.72Q373.34 350.72 371.42 349.88Q369.50 349.04 368.10 347.52Q366.70 346 365.94 343.98Q365.18 341.96 365.18 339.60L365.18 338.76Q365.18 336.44 365.92 334.40Q366.66 332.36 NaN 330.84Q369.34 329.32 371.24 328.46Q373.14 327.60 375.46 327.60Q378.02 327.60 379.96 328.70Q381.90 329.80 383.06 332Q384.22 334.20 384.34 337.52L382.70 335.60L382.70 320.80L388.26 320.80L388.26 350L383.86 350L383.86 340.76L384.82 340.76Q384.70 344.08 383.46 346.30Q382.22 348.52 380.20 349.62Q378.18 350.72 375.62 350.72M376.86 346.04Q378.50 346.04 379.86 345.30Q381.22 344.56 382.04 343.14Q382.86 341.72 382.86 339.80L382.86 338.20Q382.86 336.28 382.02 334.98Q381.18 333.68 379.82 332.98Q378.46 332.28 376.86 332.28Q375.06 332.28 373.68 333.14Q372.30 334 371.52 335.56Q370.74 337.12 370.74 339.20Q370.74 341.28 371.54 342.82Q372.34 344.36 373.72 345.20Q375.10 346.04 376.86 346.04M404.30 350.76Q401.50 350.76 399.40 349.80Q397.30 348.84 395.92 347.22Q394.54 345.60 393.84 343.60Q393.14 341.60 393.14 339.52L393.14 338.76Q393.14 336.60 393.84 334.58Q394.54 332.56 395.92 330.98Q397.30 329.40 399.34 328.46Q401.38 327.52 404.06 327.52Q407.58 327.52 409.96 329.06Q412.34 330.60 413.54 333.10Q414.74 335.60 414.74 338.48L414.74 340.48L395.50 340.48L395.50 337.08L411.26 337.08L409.54 338.76Q409.54 336.68 408.94 335.20Q408.34 333.72 407.12 332.92Q405.90 332.12 404.06 332.12Q402.22 332.12 400.94 332.96Q399.66 333.80 NaN 335.38Q398.34 336.96 398.34 339.16Q398.34 341.20 398.98 342.78Q399.62 344.36 400.94 345.26Q402.26 346.16 404.30 346.16Q406.34 346.16 407.62 345.34Q408.90 344.52 409.26 343.32L414.38 343.32Q413.90 345.56 412.54 347.24Q411.18 348.92 409.08 349.84Q406.98 350.76 404.30 350.76M428.38 350.72Q426.10 350.72 424.18 349.88Q422.26 349.04 420.86 347.52Q419.46 346 418.70 343.98Q417.94 341.96 417.94 339.60L417.94 338.76Q417.94 336.44 418.68 334.40Q419.42 332.36 420.76 330.84Q422.10 329.32 NaN 328.46Q425.90 327.60 428.22 327.60Q430.78 327.60 432.72 328.70Q434.66 329.80 435.82 332Q436.98 334.20 437.10 337.52L435.46 335.60L435.46 320.80L441.02 320.80L441.02 350L436.62 350L436.62 340.76L437.58 340.76Q437.46 344.08 436.22 346.30Q434.98 348.52 432.96 349.62Q430.94 350.72 428.38 350.72M429.62 346.04Q431.26 346.04 432.62 345.30Q433.98 344.56 434.80 343.14Q435.62 341.72 435.62 339.80L435.62 338.20Q435.62 336.28 434.78 334.98Q433.94 333.68 432.58 332.98Q431.22 332.28 429.62 332.28Q427.82 332.28 426.44 333.14Q425.06 334 424.28 335.56Q423.50 337.12 423.50 339.20Q423.50 341.28 424.30 342.82Q425.10 344.36 426.48 345.20Q427.86 346.04 429.62 346.04M461.70 350L456.50 350L456.50 327.76Q456.50 324.04 458.56 322.26Q460.62 320.48 464.66 320.48L467.38 320.48L467.38 324.76L464.26 324.76Q463.02 324.76 462.36 325.42Q461.70 326.08 461.70 327.28L461.70 350M467.74 332.72L453.78 332.72L453.78 328.64L467.74 328.64L467.74 332.72M481.54 350.76Q478.66 350.76 476.46 349.84Q474.26 348.92 472.74 347.34Q471.22 345.76 470.44 343.76Q469.66 341.76 469.66 339.60L469.66 338.76Q469.66 336.52 470.48 334.50Q471.30 332.48 472.84 330.90Q474.38 329.32 476.58 328.42Q478.78 327.52 481.54 327.52Q484.30 327.52 486.50 328.42Q488.70 329.32 490.24 330.90Q491.78 332.48 492.58 334.50Q493.38 336.52 493.38 338.76L493.38 339.60Q493.38 341.76 492.60 343.76Q491.82 345.76 490.30 347.34Q488.78 348.92 486.58 349.84Q484.38 350.76 481.54 350.76M481.54 346Q483.58 346 484.98 345.10Q486.38 344.20 487.10 342.66Q487.82 341.12 487.82 339.16Q487.82 337.16 487.08 335.62Q486.34 334.08 484.92 333.18Q483.50 332.28 481.54 332.28Q479.58 332.28 478.16 333.18Q476.74 334.08 475.98 335.62Q475.22 337.16 475.22 339.16Q475.22 341.12 475.96 342.66Q476.70 344.20 478.10 345.10Q479.50 346 481.54 346M503.82 350L498.26 350L498.26 328.28L502.66 328.28L502.66 337.48L502.54 337.48Q502.54 332.80 504.54 330.40Q506.54 328 510.42 328L511.22 328L511.22 332.84L509.70 332.84Q506.90 332.84 505.36 334.34Q503.82 335.84 503.82 338.68L503.82 350M536.14 350.28L533.02 350.28Q530.02 350.28 528.08 349.50Q526.14 348.72 525.18 346.86Q524.22 345 524.22 341.84L524.26 322.16L529.46 322.16L529.42 342.20Q529.42 343.80 530.28 344.66Q531.14 345.52 532.74 345.52L536.14 345.52L536.14 350.28M536.14 332.36L520.78 332.36L520.78 328.28L536.14 328.28L536.14 332.36M546.38 350L540.82 350L540.82 320.80L546.38 320.80L546.38 337.84L545.42 337.84Q545.42 334.56 546.26 332.28Q547.10 330 548.76 328.80Q550.42 327.60 552.98 327.60L553.22 327.60Q556.94 327.60 558.86 330.16Q560.78 332.72 560.78 337.60L560.78 350L555.22 350L555.22 337.08Q555.22 335 554.04 333.80Q552.86 332.60 550.94 332.60Q548.90 332.60 547.64 333.94Q546.38 335.28 546.38 337.44L546.38 350M576.46 350.76Q573.66 350.76 571.56 349.80Q569.46 348.84 568.08 347.22Q566.70 345.60 NaN 343.60Q565.30 341.60 565.30 339.52L565.30 338.76Q565.30 336.60 NaN 334.58Q566.70 332.56 568.08 330.98Q569.46 329.40 571.50 328.46Q573.54 327.52 576.22 327.52Q579.74 327.52 582.12 329.06Q584.50 330.60 585.70 333.10Q586.90 335.60 586.90 338.48L586.90 340.48L567.66 340.48L567.66 337.08L583.42 337.08L581.70 338.76Q581.70 336.68 581.10 335.20Q580.50 333.72 579.28 332.92Q578.06 332.12 576.22 332.12Q574.38 332.12 573.10 332.96Q571.82 333.80 571.16 335.38Q570.50 336.96 570.50 339.16Q570.50 341.20 571.14 342.78Q571.78 344.36 573.10 345.26Q574.42 346.16 576.46 346.16Q578.50 346.16 579.78 345.34Q581.06 344.52 581.42 343.32L586.54 343.32Q586.06 345.56 584.70 347.24Q583.34 348.92 581.24 349.84Q579.14 350.76 576.46 350.76M605.74 358L600.18 358L600.18 328.28L604.58 328.28L604.58 337.64L603.90 337.60Q604.06 334.28 605.28 332.04Q606.50 329.80 608.54 328.70Q610.58 327.60 613.10 327.60Q615.42 327.60 617.28 328.44Q619.14 329.28 620.48 330.80Q621.82 332.32 622.54 334.34Q623.26 336.36 623.26 338.68L623.26 339.52Q623.26 341.88 622.56 343.90Q621.86 345.92 620.52 347.46Q619.18 349 617.30 349.86Q615.42 350.72 613.10 350.72Q610.66 350.72 608.64 349.70Q606.62 348.68 605.38 346.54Q604.14 344.40 603.98 341L605.74 343.68L605.74 358M611.70 346.04Q613.50 346.04 614.84 345.16Q616.18 344.28 616.94 342.70Q617.70 341.12 617.70 339.12Q617.70 337.04 616.94 335.52Q616.18 334 614.84 333.14Q613.50 332.28 611.70 332.28Q610.06 332.28 608.68 333Q607.30 333.72 606.44 335.12Q605.58 336.52 605.58 338.48L605.58 340.08Q605.58 341.96 606.46 343.28Q607.34 344.60 608.74 345.32Q610.14 346.04 611.70 346.04M637.86 350.76Q635.06 350.76 632.96 349.80Q630.86 348.84 629.48 347.22Q628.10 345.60 627.40 343.60Q626.70 341.60 626.70 339.52L626.70 338.76Q626.70 336.60 627.40 334.58Q628.10 332.56 629.48 330.98Q630.86 329.40 632.90 328.46Q634.94 327.52 637.62 327.52Q641.14 327.52 643.52 329.06Q645.90 330.60 647.10 333.10Q648.30 335.60 648.30 338.48L648.30 340.48L629.06 340.48L629.06 337.08L644.82 337.08L643.10 338.76Q643.10 336.68 642.50 335.20Q641.90 333.72 640.68 332.92Q639.46 332.12 637.62 332.12Q635.78 332.12 634.50 332.96Q633.22 333.80 632.56 335.38Q631.90 336.96 631.90 339.16Q631.90 341.20 632.54 342.78Q633.18 344.36 634.50 345.26Q635.82 346.16 637.86 346.16Q639.90 346.16 641.18 345.34Q642.46 344.52 642.82 343.32L647.94 343.32Q647.46 345.56 646.10 347.24Q644.74 348.92 642.64 349.84Q640.54 350.76 637.86 350.76M663.38 350.76Q660.50 350.76 658.30 349.84Q656.10 348.92 654.58 347.34Q653.06 345.76 652.28 343.76Q651.50 341.76 651.50 339.60L651.50 338.76Q651.50 336.52 652.32 334.50Q653.14 332.48 654.68 330.90Q656.22 329.32 658.42 328.42Q660.62 327.52 663.38 327.52Q666.14 327.52 668.34 328.42Q670.54 329.32 672.08 330.90Q673.62 332.48 674.42 334.50Q675.22 336.52 675.22 338.76L675.22 339.60Q675.22 341.76 674.44 343.76Q673.66 345.76 672.14 347.34Q670.62 348.92 668.42 349.84Q666.22 350.76 663.38 350.76M663.38 346Q665.42 346 666.82 345.10Q668.22 344.20 668.94 342.66Q669.66 341.12 669.66 339.16Q669.66 337.16 668.92 335.62Q668.18 334.08 666.76 333.18Q665.34 332.28 663.38 332.28Q661.42 332.28 NaN 333.18Q658.58 334.08 657.82 335.62Q657.06 337.16 657.06 339.16Q657.06 341.12 657.80 342.66Q658.54 344.20 659.94 345.10Q661.34 346 663.38 346M685.66 358L680.10 358L680.10 328.28L684.50 328.28L684.50 337.64L683.82 337.60Q683.98 334.28 685.20 332.04Q686.42 329.80 688.46 328.70Q690.50 327.60 693.02 327.60Q695.34 327.60 697.20 328.44Q699.06 329.28 700.40 330.80Q701.74 332.32 702.46 334.34Q703.18 336.36 703.18 338.68L703.18 339.52Q703.18 341.88 702.48 343.90Q701.78 345.92 700.44 347.46Q699.10 349 697.22 349.86Q695.34 350.72 693.02 350.72Q690.58 350.72 688.56 349.70Q686.54 348.68 685.30 346.54Q684.06 344.40 683.90 341L685.66 343.68L685.66 358M691.62 346.04Q693.42 346.04 694.76 345.16Q696.10 344.28 696.86 342.70Q697.62 341.12 697.62 339.12Q697.62 337.04 696.86 335.52Q696.10 334 694.76 333.14Q693.42 332.28 691.62 332.28Q689.98 332.28 688.60 333Q687.22 333.72 686.36 335.12Q685.50 336.52 685.50 338.48L685.50 340.08Q685.50 341.96 686.38 343.28Q687.26 344.60 688.66 345.32Q690.06 346.04 691.62 346.04M713.90 350L708.34 350L708.34 320.80L713.90 320.80L713.90 350M713.90 324.96L705.62 324.96L705.62 320.80L713.90 320.80L713.90 324.96M729.98 350.76Q727.18 350.76 725.08 349.80Q722.98 348.84 721.60 347.22Q720.22 345.60 719.52 343.60Q718.82 341.60 718.82 339.52L718.82 338.76Q718.82 336.60 719.52 334.58Q720.22 332.56 721.60 330.98Q722.98 329.40 725.02 328.46Q727.06 327.52 729.74 327.52Q733.26 327.52 735.64 329.06Q738.02 330.60 739.22 333.10Q740.42 335.60 740.42 338.48L740.42 340.48L721.18 340.48L721.18 337.08L736.94 337.08L735.22 338.76Q735.22 336.68 734.62 335.20Q734.02 333.72 732.80 332.92Q731.58 332.12 729.74 332.12Q727.90 332.12 726.62 332.96Q725.34 333.80 724.68 335.38Q724.02 336.96 724.02 339.16Q724.02 341.20 724.66 342.78Q725.30 344.36 726.62 345.26Q727.94 346.16 729.98 346.16Q732.02 346.16 733.30 345.34Q734.58 344.52 734.94 343.32L740.06 343.32Q739.58 345.56 738.22 347.24Q736.86 348.92 734.76 349.84Q732.66 350.76 729.98 350.76M756.62 358.56L753.06 358.56L753.06 353.80L757.14 353.80Q758.30 353.80 759.08 353.50Q759.86 353.20 760.38 352.54Q760.90 351.88 761.18 350.72L767.02 328.28L772.34 328.28L765.90 351.92Q765.26 354.36 764.10 355.82Q762.94 357.28 761.12 357.92Q759.30 358.56 756.62 358.56M764.46 349.52L759.82 349.52L759.82 345.12L764.46 345.12L764.46 349.52M763.18 349.52L757.94 349.52L750.90 328.28L756.50 328.28L763.18 349.52M786.14 350.76Q783.26 350.76 781.06 349.84Q778.86 348.92 777.34 347.34Q775.82 345.76 775.04 343.76Q774.26 341.76 774.26 339.60L774.26 338.76Q774.26 336.52 775.08 334.50Q775.90 332.48 777.44 330.90Q778.98 329.32 781.18 328.42Q783.38 327.52 786.14 327.52Q788.90 327.52 791.10 328.42Q793.30 329.32 794.84 330.90Q796.38 332.48 797.18 334.50Q797.98 336.52 797.98 338.76L797.98 339.60Q797.98 341.76 797.20 343.76Q796.42 345.76 794.90 347.34Q793.38 348.92 791.18 349.84Q788.98 350.76 786.14 350.76M786.14 346Q788.18 346 789.58 345.10Q790.98 344.20 791.70 342.66Q792.42 341.12 792.42 339.16Q792.42 337.16 791.68 335.62Q790.94 334.08 789.52 333.18Q788.10 332.28 786.14 332.28Q784.18 332.28 782.76 333.18Q781.34 334.08 780.58 335.62Q779.82 337.16 779.82 339.16Q779.82 341.12 780.56 342.66Q781.30 344.20 782.70 345.10Q784.10 346 786.14 346M810.50 350.68L810.26 350.68Q806.50 350.68 804.44 348.20Q802.38 345.72 802.38 340.84L802.38 328.24L807.94 328.24L807.94 341.32Q807.94 343.32 809.06 344.50Q810.18 345.68 812.10 345.68Q814.02 345.68 815.24 344.44Q816.46 343.20 816.46 341.08L816.46 328.24L822.02 328.24L822.02 350L817.62 350L817.62 340.76L818.06 340.76Q818.06 344.04 817.22 346.24Q816.38 348.44 814.70 349.56Q813.02 350.68 810.50 350.68M842.62 350L837.06 350L837.06 328.28L841.46 328.28L841.46 337.60L841.06 337.60Q841.06 334.32 841.90 332.10Q842.74 329.88 844.40 328.74Q846.06 327.60 848.54 327.60L848.78 327.60Q851.30 327.60 852.96 328.74Q854.62 329.88 855.44 332.10Q856.26 334.32 856.26 337.60L854.86 337.60Q854.86 334.32 855.72 332.10Q856.58 329.88 858.24 328.74Q859.90 327.60 862.38 327.60L862.62 327.60Q865.14 327.60 866.82 328.74Q868.50 329.88 869.36 332.10Q870.22 334.32 870.22 337.60L870.22 350L864.66 350L864.66 337.08Q864.66 335.04 863.62 333.82Q862.58 332.60 860.66 332.60Q858.74 332.60 857.58 333.86Q856.42 335.12 856.42 337.24L856.42 350L850.86 350L850.86 337.08Q850.86 335.04 849.82 333.82Q848.78 332.60 846.86 332.60Q844.94 332.60 843.78 333.86Q842.62 335.12 842.62 337.24L842.62 350M885.90 350.76Q883.10 350.76 881 349.80Q878.90 348.84 877.52 347.22Q876.14 345.60 875.44 343.60Q874.74 341.60 874.74 339.52L874.74 338.76Q874.74 336.60 875.44 334.58Q876.14 332.56 877.52 330.98Q878.90 329.40 880.94 328.46Q882.98 327.52 885.66 327.52Q889.18 327.52 891.56 329.06Q893.94 330.60 895.14 333.10Q896.34 335.60 896.34 338.48L896.34 340.48L877.10 340.48L877.10 337.08L892.86 337.08L891.14 338.76Q891.14 336.68 890.54 335.20Q889.94 333.72 888.72 332.92Q887.50 332.12 885.66 332.12Q883.82 332.12 882.54 332.96Q881.26 333.80 880.60 335.38Q879.94 336.96 879.94 339.16Q879.94 341.20 880.58 342.78Q881.22 344.36 882.54 345.26Q883.86 346.16 885.90 346.16Q887.94 346.16 889.22 345.34Q890.50 344.52 890.86 343.32L895.98 343.32Q895.50 345.56 894.14 347.24Q892.78 348.92 890.68 349.84Q888.58 350.76 885.90 350.76M910.70 350.76Q907.90 350.76 905.80 349.80Q903.70 348.84 902.32 347.22Q900.94 345.60 900.24 343.60Q899.54 341.60 899.54 339.52L899.54 338.76Q899.54 336.60 900.24 334.58Q900.94 332.56 902.32 330.98Q903.70 329.40 905.74 328.46Q907.78 327.52 910.46 327.52Q913.98 327.52 916.36 329.06Q918.74 330.60 919.94 333.10Q921.14 335.60 921.14 338.48L921.14 340.48L901.90 340.48L901.90 337.08L917.66 337.08L915.94 338.76Q915.94 336.68 915.34 335.20Q914.74 333.72 913.52 332.92Q912.30 332.12 910.46 332.12Q908.62 332.12 907.34 332.96Q906.06 333.80 905.40 335.38Q904.74 336.96 904.74 339.16Q904.74 341.20 905.38 342.78Q906.02 344.36 907.34 345.26Q908.66 346.16 910.70 346.16Q912.74 346.16 914.02 345.34Q915.30 344.52 915.66 343.32L920.78 343.32Q920.30 345.56 918.94 347.24Q917.58 348.92 915.48 349.84Q913.38 350.76 910.70 350.76M938.34 350.28L935.22 350.28Q932.22 350.28 930.28 349.50Q928.34 348.72 927.38 346.86Q926.42 345 926.42 341.84L926.46 322.16L931.66 322.16L931.62 342.20Q931.62 343.80 932.48 344.66Q933.34 345.52 934.94 345.52L938.34 345.52L938.34 350.28M938.34 332.36L922.98 332.36L922.98 328.28L938.34 328.28L938.34 332.36M948.38 350L942.14 350L942.14 343.60L948.38 343.60" fill="#E6E9FF" opacity="0.92"/>

  <!-- device frame -->
  <rect x="158" y="548" width="764" height="1324" rx="68" fill="#16142E"/>
  <rect x="180" y="570" width="720" height="1280" rx="48" fill="#EEF1FB"/>
  <!-- notch -->
  <rect x="470" y="564" width="140" height="22" rx="11" fill="#16142E"/>
  <!-- placeholder label -->
  <g fill="#9AA3C7" font-family="sans-serif" text-anchor="middle">
    <text x="540" y="1202" font-size="40" font-weight="700">Drop screenshot here</text>
    <text x="540" y="1254" font-size="32">3. QR share screen</text>
    <text x="540" y="1306" font-size="26" opacity="0.8">1080 × 1920 (9:16)</text>
  </g>
</svg>
