<svg width="1080" height="1920" viewBox="0 0 1080 1920" fill="none" xmlns="http://www.w3.org/2000/svg">
  <defs>
    <linearGradient id="bg" x1="0" y1="0" x2="1080" y2="1920" gradientUnits="userSpaceOnUse">
      <stop stop-color="#7C79F2"/><stop offset="0.5" stop-color="#6366F1"/><stop offset="1" stop-color="#4B43DC"/>
    </linearGradient>
    <radialGradient id="glow" cx="0.5" cy="0.06" r="0.7">
      <stop stop-color="#AEB8FF" stop-opacity="0.45"/><stop offset="0.7" stop-color="#AEB8FF" stop-opacity="0"/>
    </radialGradient>
  </defs>
  <rect width="1080" height="1920" fill="url(#bg)"/>
  <rect width="1080" height="1920" fill="url(#glow)"/>
  <circle cx="120" cy="1700" r="200" fill="#ffffff" opacity="0.05"/>
  <circle cx="980" cy="120" r="150" fill="#ffffff" opacity="0.05"/>

  <!-- caption -->
  <path d="M80.06 250.37L68.16 250.37L68.16 241.02L80.65 241.02Q84.01 241.02 85.68 239.27Q87.36 237.52 87.36 234.31Q87.36 231.09 85.68 229.38Q84.01 227.66 80.65 227.66L68.16 227.66L68.16 220.44L80.06 220.44Q85.61 220.44 89.92 221.79Q94.23 223.14 96.71 226.13Q99.19 229.12 99.19 234.23L99.19 235.25Q99.19 240 97 243.39Q94.81 246.79 90.58 248.58Q86.34 250.37 80.06 250.37M69.62 250.37L57.94 250.37L57.94 196.27L69.62 196.27L69.62 250.37M77.95 225.76L68.16 225.76L68.16 218.61L78.68 218.61Q82.11 218.61 83.64 216.86Q85.17 215.11 85.17 212.19Q85.17 209.12 83.64 207.37Q82.11 205.62 78.68 205.62L68.16 205.62L68.16 196.27L77.95 196.27Q87.14 196.27 92.07 200.14Q97 204.01 97 211.16L97 212.26Q97 217.22 94.48 220.22Q91.96 223.21 87.69 224.49Q83.42 225.76 77.95 225.76M121.82 251.24L121.31 251.24Q114.37 251.24 110.65 246.75Q106.93 242.26 106.93 233.21L106.93 210L118.61 210L118.61 233.79Q118.61 237.01 120.43 238.90Q122.26 240.80 125.32 240.80Q128.46 240.80 130.43 238.83Q132.40 236.86 132.40 233.50L132.40 210L144.08 210L144.08 250L134.81 250L134.81 233.14L135.62 233.14Q135.62 239.20 134.05 243.25Q132.48 247.30 129.41 249.27Q126.35 251.24 121.82 251.24M168.47 250L156.79 250L156.79 210L168.47 210L168.47 250M168.47 218.61L151.46 218.61L151.46 210L168.47 210L168.47 218.61M161.31 206.05Q158.03 206.05 156.46 204.34Q154.89 202.62 154.89 200Q154.89 197.29 156.46 195.58Q158.03 193.86 161.31 193.86Q164.60 193.86 166.17 195.58Q167.74 197.29 167.74 200Q167.74 202.62 166.17 204.34Q164.60 206.05 161.31 206.05M191.53 250L179.78 250L179.78 196.71L191.53 196.71L191.53 250M191.53 205.32L175.04 205.32L175.04 196.71L191.53 196.71L191.53 205.32M218.76 251.31Q214.53 251.31 211.06 249.78Q207.59 248.25 205.04 245.51Q202.48 242.77 201.13 239.05Q199.78 235.33 199.78 231.02L199.78 229.34Q199.78 225.03 201.06 221.31Q202.34 217.59 204.78 214.78Q207.23 211.97 210.66 210.40Q214.09 208.83 218.33 208.83Q223.14 208.83 226.65 210.91Q230.15 212.99 232.12 217.04Q234.09 221.09 234.31 227L231.25 224.16L231.25 196.71L243 196.71L243 250L233.73 250L233.73 233.43L235.33 233.43Q235.12 239.12 232.96 243.14Q230.81 247.15 227.16 249.23Q223.51 251.31 218.76 251.31M221.68 241.53Q224.38 241.53 226.61 240.33Q228.84 239.12 230.19 236.79Q231.54 234.45 231.54 231.17L231.54 228.47Q231.54 225.25 230.15 223.06Q228.76 220.87 226.50 219.71Q224.24 218.54 221.61 218.54Q218.69 218.54 216.39 220.03Q214.09 221.53 212.78 224.12Q211.46 226.71 211.46 230.14Q211.46 233.65 212.78 236.20Q214.09 238.76 216.43 240.15Q218.76 241.53 221.68 241.53M275.63 265.84L268.48 265.84L268.48 255.91L276.80 255.91Q278.70 255.91 280.01 255.44Q281.32 254.96 282.13 253.87Q282.93 252.77 283.44 250.88L293.30 210L304.39 210L293.22 253.21Q292.06 257.88 289.98 260.66Q287.89 263.43 284.43 264.64Q280.96 265.84 275.63 265.84M289.50 249.12L281.03 249.12L281.03 240L289.50 240L289.50 249.12M287.31 249.12L276.21 249.12L263.95 210L275.70 210L287.31 249.12M329.07 251.39Q323.81 251.39 319.72 249.74Q315.63 248.10 312.82 245.25Q310.01 242.41 308.55 238.72Q307.09 235.03 307.09 230.95L307.09 229.27Q307.09 225.11 308.59 221.35Q310.09 217.59 312.97 214.74Q315.85 211.89 319.94 210.25Q324.03 208.61 329.07 208.61Q334.25 208.61 338.30 210.25Q342.35 211.89 345.20 214.74Q348.05 217.59 349.58 221.35Q351.11 225.11 351.11 229.27L351.11 230.95Q351.11 235.03 349.65 238.72Q348.19 242.41 345.38 245.25Q342.57 248.10 338.48 249.74Q334.40 251.39 329.07 251.39M329.07 241.53Q332.50 241.53 334.76 240.07Q337.02 238.61 338.23 235.98Q339.43 233.36 339.43 230.14Q339.43 226.71 338.19 224.12Q336.95 221.53 334.65 220Q332.35 218.46 329.07 218.46Q325.85 218.46 323.52 220Q321.18 221.53 319.98 224.12Q318.77 226.71 318.77 230.14Q318.77 233.36 319.94 235.98Q321.11 238.61 323.45 240.07Q325.78 241.53 329.07 241.53M373.30 251.24L372.79 251.24Q365.86 251.24 362.14 246.75Q358.41 242.26 358.41 233.21L358.41 210L370.09 210L370.09 233.79Q370.09 237.01 371.92 238.90Q373.74 240.80 376.81 240.80Q379.95 240.80 381.92 238.83Q383.89 236.86 383.89 233.50L383.89 210L395.57 210L395.57 250L386.30 250L386.30 233.14L387.10 233.14Q387.10 239.20 385.53 243.25Q383.96 247.30 380.90 249.27Q377.83 251.24 373.30 251.24M418.05 250L406.37 250L406.37 210L415.64 210L415.64 227.15L415.43 227.15Q415.43 218.68 419.04 214.08Q422.65 209.49 429.51 209.49L431.05 209.49L431.05 219.56L428.13 219.56Q423.31 219.56 420.68 222.15Q418.05 224.74 418.05 229.63L418.05 250M470.39 251.39Q465.21 251.39 461.38 249.67Q457.55 247.96 454.99 245.04Q452.44 242.12 451.20 238.43Q449.95 234.74 449.95 230.80L449.95 229.41Q449.95 225.33 451.27 221.57Q452.58 217.81 455.14 214.89Q457.69 211.97 461.53 210.29Q465.36 208.61 470.32 208.61Q475.72 208.61 479.88 210.69Q484.05 212.77 486.53 216.49Q489.01 220.22 489.30 225.03L477.84 225.03Q477.55 222.33 475.69 220.47Q473.83 218.61 470.32 218.61Q467.40 218.61 465.47 220.07Q463.53 221.53 462.58 224.09Q461.63 226.64 461.63 230.14Q461.63 233.36 462.51 235.95Q463.39 238.54 465.32 239.96Q467.26 241.39 470.39 241.39Q472.73 241.39 474.37 240.55Q476.02 239.71 477 238.21Q477.99 236.71 478.21 234.74L489.59 234.74Q489.37 239.71 486.82 243.47Q484.26 247.23 480.03 249.31Q475.80 251.39 470.39 251.39M530.47 250L521.20 250L521.20 238.17L519.23 238.17L519.23 225.33Q519.23 222.26 517.77 220.73Q516.31 219.19 513.10 219.19Q511.49 219.19 508.87 219.27Q506.24 219.34 503.46 219.49Q500.69 219.63 498.43 219.78L498.43 209.92Q500.11 209.78 502.37 209.63Q504.63 209.49 507.04 209.41Q509.45 209.34 511.57 209.34Q517.70 209.34 521.90 211.09Q526.09 212.84 528.28 216.38Q530.47 219.92 530.47 225.47L530.47 250M508.43 251.02Q504.12 251.02 500.87 249.49Q497.62 247.96 495.80 245.07Q493.97 242.19 493.97 238.17Q493.97 233.79 496.24 230.98Q498.50 228.17 502.59 226.82Q506.68 225.47 512 225.47L520.55 225.47L520.55 231.97L511.93 231.97Q508.87 231.97 507.22 233.47Q505.58 234.96 505.58 237.52Q505.58 239.93 507.22 241.42Q508.87 242.92 511.93 242.92Q513.90 242.92 515.47 242.23Q517.04 241.53 518.06 239.85Q519.09 238.17 519.23 235.18L522.01 238.10Q521.64 242.26 520 245.11Q518.36 247.96 515.47 249.49Q512.59 251.02 508.43 251.02M552.08 250L540.40 250L540.40 210L549.67 210L549.67 227.15L549.45 227.15Q549.45 218.68 553.07 214.08Q556.68 209.49 563.54 209.49L565.08 209.49L565.08 219.56L562.16 219.56Q557.34 219.56 554.71 222.15Q552.08 224.74 552.08 229.63L552.08 250M587.41 251.31Q583.18 251.31 579.71 249.78Q576.24 248.25 573.69 245.51Q571.13 242.77 569.78 239.05Q568.43 235.33 568.43 231.02L568.43 229.34Q568.43 225.03 569.71 221.31Q570.99 217.59 573.43 214.78Q575.88 211.97 579.31 210.40Q582.74 208.83 586.98 208.83Q591.79 208.83 595.30 210.91Q598.80 212.99 600.77 217.04Q602.74 221.09 602.96 227L599.90 224.16L599.90 196.71L611.65 196.71L611.65 250L602.38 250L602.38 233.43L603.98 233.43Q603.77 239.12 601.61 243.14Q599.46 247.15 595.81 249.23Q592.16 251.31 587.41 251.31M590.33 241.53Q593.03 241.53 595.26 240.33Q597.49 239.12 598.84 236.79Q600.19 234.45 600.19 231.17L600.19 228.47Q600.19 225.25 598.80 223.06Q597.41 220.87 595.15 219.71Q592.89 218.54 590.26 218.54Q587.34 218.54 585.04 220.03Q582.74 221.53 581.43 224.12Q580.11 226.71 580.11 230.14Q580.11 233.65 581.43 236.20Q582.74 238.76 585.08 240.15Q587.41 241.53 590.33 241.53M651.14 250L639.46 250L639.46 210L651.14 210L651.14 250M651.14 218.61L634.13 218.61L634.13 210L651.14 210L651.14 218.61M643.99 206.05Q640.70 206.05 639.13 204.34Q637.56 202.62 637.56 200Q637.56 197.29 639.13 195.58Q640.70 193.86 643.99 193.86Q647.27 193.86 648.84 195.58Q650.41 197.29 650.41 200Q650.41 202.62 648.84 204.34Q647.27 206.05 643.99 206.05M673.63 250L661.95 250L661.95 210L671.22 210L671.22 227.15L670.56 227.15Q670.56 221.02 672.13 216.93Q673.70 212.84 676.91 210.80Q680.12 208.75 684.72 208.75L685.23 208.75Q692.24 208.75 695.93 213.32Q699.61 217.88 699.61 227.15L699.61 250L687.93 250L687.93 226.49Q687.93 223.28 686.04 221.24Q684.14 219.19 680.93 219.19Q677.64 219.19 675.63 221.27Q673.63 223.35 673.63 226.71L673.63 250M736.55 250L724.87 250L724.87 210L734.14 210L734.14 227.22L733.49 227.22Q733.49 221.09 735.02 217Q736.55 212.92 739.62 210.84Q742.68 208.75 747.14 208.75L747.65 208.75Q752.17 208.75 755.20 210.84Q758.23 212.92 759.80 217Q761.37 221.09 761.37 227.22L758.53 227.22Q758.53 221.09 760.09 217Q761.66 212.92 764.73 210.84Q767.80 208.75 772.25 208.75L772.76 208.75Q777.29 208.75 780.39 210.84Q783.49 212.92 785.10 217Q786.70 221.09 786.70 227.22L786.70 250L775.02 250L775.02 226.57Q775.02 223.28 773.31 221.24Q771.59 219.19 768.45 219.19Q765.31 219.19 763.49 221.27Q761.66 223.35 761.66 226.79L761.66 250L749.91 250L749.91 226.57Q749.91 223.28 748.20 221.24Q746.48 219.19 743.41 219.19Q740.20 219.19 738.38 221.27Q736.55 223.35 736.55 226.79L736.55 250M810.21 250L798.53 250L798.53 210L810.21 210L810.21 250M810.21 218.61L793.20 218.61L793.20 210L810.21 210L810.21 218.61M803.06 206.05Q799.77 206.05 798.20 204.34Q796.63 202.62 796.63 200Q796.63 197.29 798.20 195.58Q799.77 193.86 803.06 193.86Q806.34 193.86 807.91 195.58Q809.48 197.29 809.48 200Q809.48 202.62 807.91 204.34Q806.34 206.05 803.06 206.05M832.69 250L821.01 250L821.01 210L830.28 210L830.28 227.15L829.63 227.15Q829.63 221.02 831.20 216.93Q832.77 212.84 835.98 210.80Q839.19 208.75 843.79 208.75L844.30 208.75Q851.31 208.75 854.99 213.32Q858.68 217.88 858.68 227.15L858.68 250L847 250L847 226.49Q847 223.28 845.10 221.24Q843.21 219.19 839.99 219.19Q836.71 219.19 834.70 221.27Q832.69 223.35 832.69 226.71L832.69 250M882.63 251.24L882.11 251.24Q875.18 251.24 871.46 246.75Q867.73 242.26 867.73 233.21L867.73 210L879.41 210L879.41 233.79Q879.41 237.01 881.24 238.90Q883.06 240.80 886.13 240.80Q889.27 240.80 891.24 238.83Q893.21 236.86 893.21 233.50L893.21 210L904.89 210L904.89 250L895.62 250L895.62 233.14L896.42 233.14Q896.42 239.20 894.85 243.25Q893.28 247.30 890.22 249.27Q887.15 251.24 882.63 251.24M939.49 250.51L933.87 250.51Q927.81 250.51 924.09 249.01Q920.37 247.52 918.65 243.98Q916.94 240.44 916.94 234.38L916.94 199.19L927.81 199.19L927.81 234.82Q927.81 237.66 929.31 239.16Q930.81 240.66 933.58 240.66L939.49 240.66L939.49 250.51M939.49 218.54L910.88 218.54L910.88 210L939.49 210L939.49 218.54M965.55 251.39Q960.44 251.39 956.54 249.63Q952.63 247.88 950.04 244.93Q947.45 241.97 946.10 238.28Q944.75 234.60 944.75 230.73L944.75 229.27Q944.75 225.25 946.10 221.57Q947.45 217.88 950 214.96Q952.56 212.04 956.39 210.32Q960.22 208.61 965.12 208.61Q971.54 208.61 975.96 211.49Q980.37 214.38 982.71 219.01Q985.04 223.65 985.04 229.12L985.04 233.06L949.64 233.06L949.64 226.42L977.96 226.42L974.17 229.49Q974.17 225.91 973.15 223.35Q972.12 220.80 970.12 219.45Q968.11 218.10 965.12 218.10Q962.05 218.10 959.93 219.49Q957.82 220.87 956.72 223.54Q955.63 226.20 955.63 230.07Q955.63 233.65 956.65 236.31Q957.67 238.98 959.86 240.44Q962.05 241.90 965.55 241.90Q968.77 241.90 970.81 240.66Q972.85 239.41 973.58 237.59L984.31 237.59Q983.44 241.60 980.88 244.74Q978.33 247.88 974.46 249.63Q970.59 251.39 965.55 251.39M1007.97 251.24Q999.43 251.24 994.61 247.74Q989.79 244.23 989.50 237.88L999.86 237.88Q1000.16 239.78 1002.16 241.28Q1004.17 242.77 1008.19 242.77Q1011.25 242.77 1013.26 241.71Q1015.27 240.66 1015.27 238.69Q1015.27 236.93 1013.73 235.87Q1012.20 234.82 1008.26 234.38L1005.12 234.09Q997.89 233.36 994.28 230.07Q990.67 226.79 990.67 221.68Q990.67 217.44 992.78 214.59Q994.90 211.75 998.66 210.29Q1002.42 208.83 1007.24 208.83Q1014.97 208.83 1019.72 212.22Q1024.46 215.62 1024.68 222.04L1014.32 222.04Q1014.03 220.07 1012.27 218.72Q1010.52 217.37 1007.09 217.37Q1004.39 217.37 1002.78 218.39Q1001.18 219.41 1001.18 221.16Q1001.18 222.84 1002.56 223.72Q1003.95 224.60 1007.09 224.96L1010.23 225.25Q1017.60 226.06 1021.69 229.34Q1025.78 232.63 1025.78 238.17Q1025.78 242.19 1023.59 245.15Q1021.40 248.10 1017.38 249.67Q1013.37 251.24 1007.97 251.24" fill="#ffffff"/>
  <path d="M160.38 346.15L154.70 346.15L164.66 316.95L173.94 316.95L184.18 346.15L178.34 346.15L169.66 320.83L171.70 321.71L166.70 321.71L168.78 320.83L160.38 346.15M177.06 338.39L161.66 338.39L163.46 333.59L175.30 333.59L177.06 338.39M196.74 346.87Q194.46 346.87 192.54 346.03Q190.62 345.19 189.22 343.67Q187.82 342.15 187.06 340.13Q186.30 338.11 186.30 335.75L186.30 334.91Q186.30 332.59 187.04 330.55Q187.78 328.51 189.12 326.99Q190.46 325.47 192.36 324.61Q194.26 323.75 196.58 323.75Q199.14 323.75 201.08 324.85Q203.02 325.95 204.18 328.15Q205.34 330.35 205.46 333.67L203.82 331.75L203.82 316.95L209.38 316.95L209.38 346.15L204.98 346.15L204.98 336.91L205.94 336.91Q205.82 340.23 204.58 342.45Q203.34 344.67 201.32 345.77Q199.30 346.87 196.74 346.87M197.98 342.19Q199.62 342.19 200.98 341.45Q202.34 340.71 203.16 339.29Q203.98 337.87 203.98 335.95L203.98 334.35Q203.98 332.43 203.14 331.13Q202.30 329.83 200.94 329.13Q199.58 328.43 197.98 328.43Q196.18 328.43 194.80 329.29Q193.42 330.15 192.64 331.71Q191.86 333.27 191.86 335.35Q191.86 337.43 192.66 338.97Q193.46 340.51 194.84 341.35Q196.22 342.19 197.98 342.19M224.70 346.87Q222.42 346.87 220.50 346.03Q218.58 345.19 217.18 343.67Q215.78 342.15 215.02 340.13Q214.26 338.11 214.26 335.75L214.26 334.91Q214.26 332.59 NaN 330.55Q215.74 328.51 217.08 326.99Q218.42 325.47 220.32 324.61Q222.22 323.75 224.54 323.75Q227.10 323.75 229.04 324.85Q230.98 325.95 232.14 328.15Q233.30 330.35 233.42 333.67L231.78 331.75L231.78 316.95L237.34 316.95L237.34 346.15L232.94 346.15L232.94 336.91L233.90 336.91Q233.78 340.23 232.54 342.45Q231.30 344.67 229.28 345.77Q227.26 346.87 224.70 346.87M225.94 342.19Q227.58 342.19 228.94 341.45Q230.30 340.71 231.12 339.29Q231.94 337.87 231.94 335.95L231.94 334.35Q231.94 332.43 231.10 331.13Q230.26 329.83 228.90 329.13Q227.54 328.43 225.94 328.43Q224.14 328.43 222.76 329.29Q221.38 330.15 220.60 331.71Q219.82 333.27 219.82 335.35Q219.82 337.43 220.62 338.97Q221.42 340.51 222.80 341.35Q224.18 342.19 225.94 342.19M255.22 354.71L251.66 354.71L251.66 349.95L255.74 349.95Q256.90 349.95 257.68 349.65Q258.46 349.35 258.98 348.69Q259.50 348.03 259.78 346.87L265.62 324.43L270.94 324.43L264.50 348.07Q263.86 350.51 262.70 351.97Q261.54 353.43 259.72 354.07Q257.90 354.71 255.22 354.71M263.06 345.67L258.42 345.67L258.42 341.27L263.06 341.27L263.06 345.67M261.78 345.67L256.54 345.67L249.50 324.43L255.10 324.43L261.78 345.67M284.74 346.91Q281.86 346.91 279.66 345.99Q277.46 345.07 275.94 343.49Q274.42 341.91 273.64 339.91Q272.86 337.91 272.86 335.75L272.86 334.91Q272.86 332.67 273.68 330.65Q274.50 328.63 276.04 327.05Q277.58 325.47 279.78 324.57Q281.98 323.67 284.74 323.67Q287.50 323.67 289.70 324.57Q291.90 325.47 293.44 327.05Q294.98 328.63 295.78 330.65Q296.58 332.67 296.58 334.91L296.58 335.75Q296.58 337.91 295.80 339.91Q295.02 341.91 293.50 343.49Q291.98 345.07 289.78 345.99Q287.58 346.91 284.74 346.91M284.74 342.15Q286.78 342.15 288.18 341.25Q289.58 340.35 290.30 338.81Q291.02 337.27 291.02 335.31Q291.02 333.31 290.28 331.77Q289.54 330.23 288.12 329.33Q286.70 328.43 284.74 328.43Q282.78 328.43 281.36 329.33Q279.94 330.23 279.18 331.77Q278.42 333.31 278.42 335.31Q278.42 337.27 279.16 338.81Q279.90 340.35 281.30 341.25Q282.70 342.15 284.74 342.15M309.10 346.83L308.86 346.83Q305.10 346.83 303.04 344.35Q300.98 341.87 300.98 336.99L300.98 324.39L306.54 324.39L306.54 337.47Q306.54 339.47 307.66 340.65Q308.78 341.83 310.70 341.83Q312.62 341.83 313.84 340.59Q315.06 339.35 315.06 337.23L315.06 324.39L320.62 324.39L320.62 346.15L316.22 346.15L316.22 336.91L316.66 336.91Q316.66 340.19 315.82 342.39Q314.98 344.59 313.30 345.71Q311.62 346.83 309.10 346.83M332.58 346.15L327.02 346.15L327.02 324.43L331.42 324.43L331.42 333.63L331.30 333.63Q331.30 328.95 333.30 326.55Q335.30 324.15 339.18 324.15L339.98 324.15L339.98 328.99L338.46 328.99Q335.66 328.99 334.12 330.49Q332.58 331.99 332.58 334.83L332.58 346.15M357.90 354.15L352.34 354.15L352.34 324.43L356.74 324.43L356.74 333.79L356.06 333.75Q356.22 330.43 357.44 328.19Q358.66 325.95 360.70 324.85Q362.74 323.75 365.26 323.75Q367.58 323.75 369.44 324.59Q371.30 325.43 372.64 326.95Q373.98 328.47 374.70 330.49Q375.42 332.51 375.42 334.83L375.42 335.67Q375.42 338.03 374.72 340.05Q374.02 342.07 372.68 343.61Q371.34 345.15 369.46 346.01Q367.58 346.87 365.26 346.87Q362.82 346.87 360.80 345.85Q358.78 344.83 357.54 342.69Q356.30 340.55 356.14 337.15L357.90 339.83L357.90 354.15M363.86 342.19Q365.66 342.19 NaN 341.31Q368.34 340.43 369.10 338.85Q369.86 337.27 369.86 335.27Q369.86 333.19 369.10 331.67Q368.34 330.15 NaN 329.29Q365.66 328.43 363.86 328.43Q362.22 328.43 360.84 329.15Q359.46 329.87 358.60 331.27Q357.74 332.67 357.74 334.63L357.74 336.23Q357.74 338.11 358.62 339.43Q359.50 340.75 360.90 341.47Q362.30 342.19 363.86 342.19M385.86 346.15L380.30 346.15L380.30 316.95L385.86 316.95L385.86 333.99L384.90 333.99Q384.90 330.71 385.74 328.43Q386.58 326.15 388.24 324.95Q389.90 323.75 392.46 323.75L392.70 323.75Q396.42 323.75 398.34 326.31Q400.26 328.87 400.26 333.75L400.26 346.15L394.70 346.15L394.70 333.23Q394.70 331.15 393.52 329.95Q392.34 328.75 390.42 328.75Q388.38 328.75 387.12 330.09Q385.86 331.43 385.86 333.59L385.86 346.15M416.66 346.91Q413.78 346.91 411.58 345.99Q409.38 345.07 407.86 343.49Q406.34 341.91 405.56 339.91Q404.78 337.91 404.78 335.75L404.78 334.91Q404.78 332.67 405.60 330.65Q406.42 328.63 407.96 327.05Q409.50 325.47 411.70 324.57Q413.90 323.67 416.66 323.67Q419.42 323.67 421.62 324.57Q423.82 325.47 425.36 327.05Q426.90 328.63 427.70 330.65Q428.50 332.67 428.50 334.91L428.50 335.75Q428.50 337.91 427.72 339.91Q426.94 341.91 425.42 343.49Q423.90 345.07 421.70 345.99Q419.50 346.91 416.66 346.91M416.66 342.15Q418.70 342.15 420.10 341.25Q421.50 340.35 422.22 338.81Q422.94 337.27 422.94 335.31Q422.94 333.31 422.20 331.77Q421.46 330.23 420.04 329.33Q418.62 328.43 416.66 328.43Q414.70 328.43 413.28 329.33Q411.86 330.23 411.10 331.77Q410.34 333.31 410.34 335.31Q410.34 337.27 411.08 338.81Q411.82 340.35 413.22 341.25Q414.62 342.15 416.66 342.15M445.94 346.43L442.82 346.43Q439.82 346.43 437.88 345.65Q435.94 344.87 434.98 343.01Q434.02 341.15 434.02 337.99L434.06 318.31L439.26 318.31L439.22 338.35Q439.22 339.95 440.08 340.81Q440.94 341.67 442.54 341.67L445.94 341.67L445.94 346.43M445.94 328.51L430.58 328.51L430.58 324.43L445.94 324.43L445.94 328.51M460.94 346.91Q458.06 346.91 455.86 345.99Q453.66 345.07 452.14 343.49Q450.62 341.91 449.84 339.91Q449.06 337.91 449.06 335.75L449.06 334.91Q449.06 332.67 449.88 330.65Q450.70 328.63 452.24 327.05Q453.78 325.47 455.98 324.57Q458.18 323.67 460.94 323.67Q463.70 323.67 465.90 324.57Q468.10 325.47 469.64 327.05Q471.18 328.63 471.98 330.65Q472.78 332.67 472.78 334.91L472.78 335.75Q472.78 337.91 NaN 339.91Q471.22 341.91 469.70 343.49Q468.18 345.07 465.98 345.99Q463.78 346.91 460.94 346.91M460.94 342.15Q462.98 342.15 464.38 341.25Q465.78 340.35 466.50 338.81Q467.22 337.27 467.22 335.31Q467.22 333.31 466.48 331.77Q465.74 330.23 464.32 329.33Q462.90 328.43 460.94 328.43Q458.98 328.43 457.56 329.33Q456.14 330.23 455.38 331.77Q454.62 333.31 454.62 335.31Q454.62 337.27 455.36 338.81Q456.10 340.35 457.50 341.25Q458.90 342.15 460.94 342.15M483.26 341.27L478.86 352.79L474.54 351.15L478.62 339.55L483.26 341.27M502.14 346.15L496.58 346.15L496.58 324.43L500.98 324.43L500.98 333.63L500.86 333.63Q500.86 328.95 502.86 326.55Q504.86 324.15 508.74 324.15L509.54 324.15L509.54 328.99L508.02 328.99Q505.22 328.99 503.68 330.49Q502.14 331.99 502.14 334.83L502.14 346.15M523.54 346.91Q520.66 346.91 518.46 345.99Q516.26 345.07 514.74 343.49Q513.22 341.91 512.44 339.91Q511.66 337.91 511.66 335.75L511.66 334.91Q511.66 332.67 512.48 330.65Q513.30 328.63 514.84 327.05Q516.38 325.47 518.58 324.57Q520.78 323.67 523.54 323.67Q526.30 323.67 528.50 324.57Q530.70 325.47 532.24 327.05Q533.78 328.63 534.58 330.65Q535.38 332.67 535.38 334.91L535.38 335.75Q535.38 337.91 534.60 339.91Q533.82 341.91 532.30 343.49Q530.78 345.07 528.58 345.99Q526.38 346.91 523.54 346.91M523.54 342.15Q525.58 342.15 526.98 341.25Q528.38 340.35 529.10 338.81Q529.82 337.27 529.82 335.31Q529.82 333.31 529.08 331.77Q528.34 330.23 526.92 329.33Q525.50 328.43 523.54 328.43Q521.58 328.43 520.16 329.33Q518.74 330.23 517.98 331.77Q517.22 333.31 517.22 335.31Q517.22 337.27 517.96 338.81Q518.70 340.35 520.10 341.25Q521.50 342.15 523.54 342.15M546.10 346.15L540.54 346.15L540.54 316.95L546.10 316.95L546.10 346.15M546.10 321.11L537.82 321.11L537.82 316.95L546.10 316.95L546.10 321.11M562.18 346.91Q559.38 346.91 557.28 345.95Q555.18 344.99 553.80 343.37Q552.42 341.75 551.72 339.75Q551.02 337.75 551.02 335.67L551.02 334.91Q551.02 332.75 551.72 330.73Q552.42 328.71 553.80 327.13Q555.18 325.55 557.22 324.61Q559.26 323.67 561.94 323.67Q565.46 323.67 567.84 325.21Q570.22 326.75 571.42 329.25Q572.62 331.75 572.62 334.63L572.62 336.63L553.38 336.63L553.38 333.23L569.14 333.23L567.42 334.91Q567.42 332.83 566.82 331.35Q566.22 329.87 NaN 329.07Q563.78 328.27 561.94 328.27Q560.10 328.27 558.82 329.11Q557.54 329.95 556.88 331.53Q556.22 333.11 556.22 335.31Q556.22 337.35 556.86 338.93Q557.50 340.51 558.82 341.41Q560.14 342.31 562.18 342.31Q564.22 342.31 565.50 341.49Q566.78 340.67 567.14 339.47L572.26 339.47Q571.78 341.71 570.42 343.39Q569.06 345.07 566.96 345.99Q564.86 346.91 562.18 346.91M582.98 341.27L578.58 352.79L574.26 351.15L578.34 339.55L582.98 341.27M605.94 346.91Q603.10 346.91 601.04 345.95Q598.98 344.99 597.60 343.39Q596.22 341.79 595.54 339.79Q594.86 337.79 594.86 335.71L594.86 334.95Q594.86 332.75 595.56 330.73Q596.26 328.71 597.66 327.13Q599.06 325.55 601.12 324.61Q603.18 323.67 605.90 323.67Q608.74 323.67 610.98 324.77Q613.22 325.87 614.56 327.83Q615.90 329.79 616.06 332.39L610.66 332.39Q610.46 330.71 609.24 329.59Q608.02 328.47 605.90 328.47Q604.06 328.47 602.84 329.35Q601.62 330.23 601.02 331.77Q600.42 333.31 600.42 335.31Q600.42 337.23 NaN 338.79Q601.58 340.35 602.80 341.23Q604.02 342.11 605.94 342.11Q607.38 342.11 608.42 341.59Q609.46 341.07 610.08 340.15Q610.70 339.23 610.86 338.07L616.26 338.07Q616.10 340.71 614.72 342.69Q613.34 344.67 611.08 345.79Q608.82 346.91 605.94 346.91M631.14 346.91Q628.26 346.91 626.06 345.99Q623.86 345.07 622.34 343.49Q620.82 341.91 620.04 339.91Q619.26 337.91 619.26 335.75L619.26 334.91Q619.26 332.67 620.08 330.65Q620.90 328.63 622.44 327.05Q623.98 325.47 626.18 324.57Q628.38 323.67 631.14 323.67Q633.90 323.67 636.10 324.57Q638.30 325.47 639.84 327.05Q641.38 328.63 642.18 330.65Q642.98 332.67 642.98 334.91L642.98 335.75Q642.98 337.91 642.20 339.91Q641.42 341.91 639.90 343.49Q638.38 345.07 636.18 345.99Q633.98 346.91 631.14 346.91M631.14 342.15Q633.18 342.15 634.58 341.25Q635.98 340.35 636.70 338.81Q637.42 337.27 637.42 335.31Q637.42 333.31 636.68 331.77Q635.94 330.23 634.52 329.33Q633.10 328.43 631.14 328.43Q629.18 328.43 627.76 329.33Q626.34 330.23 625.58 331.77Q624.82 333.31 624.82 335.31Q624.82 337.27 625.56 338.81Q626.30 340.35 627.70 341.25Q629.10 342.15 631.14 342.15M653.42 346.15L647.86 346.15L647.86 324.43L652.26 324.43L652.26 333.75L651.86 333.75Q651.86 330.43 652.74 328.21Q653.62 325.99 655.36 324.87Q657.10 323.75 659.70 323.75L659.94 323.75Q663.82 323.75 665.82 326.25Q667.82 328.75 667.82 333.71L667.82 346.15L662.26 346.15L662.26 333.23Q662.26 331.23 661.12 329.99Q659.98 328.75 657.98 328.75Q655.94 328.75 654.68 330.01Q653.42 331.27 653.42 333.39L653.42 346.15M686.34 346.43L683.22 346.43Q680.22 346.43 678.28 345.65Q676.34 344.87 675.38 343.01Q674.42 341.15 674.42 337.99L674.46 318.31L679.66 318.31L679.62 338.35Q679.62 339.95 680.48 340.81Q681.34 341.67 682.94 341.67L686.34 341.67L686.34 346.43M686.34 328.51L670.98 328.51L670.98 324.43L686.34 324.43L686.34 328.51M708.50 346.15L704.10 346.15L704.10 339.71L703.18 339.71L703.18 332.55Q703.18 330.67 702.26 329.75Q701.34 328.83 699.42 328.83Q698.42 328.83 697.02 328.87Q695.62 328.91 694.20 328.97Q692.78 329.03 691.66 329.11L691.66 324.39Q692.58 324.31 693.74 324.23Q694.90 324.15 696.12 324.13Q697.34 324.11 698.42 324.11Q701.78 324.11 704 324.99Q706.22 325.87 707.36 327.75Q708.50 329.63 708.50 332.67L708.50 346.15M697.10 346.71Q694.74 346.71 692.96 345.87Q691.18 345.03 690.20 343.47Q689.22 341.91 689.22 339.71Q689.22 337.31 690.40 335.79Q691.58 334.27 693.72 333.51Q695.86 332.75 698.74 332.75L703.78 332.75L703.78 336.07L698.66 336.07Q696.74 336.07 695.72 337.01Q694.70 337.95 694.70 339.43Q694.70 340.91 695.72 341.83Q696.74 342.75 698.66 342.75Q699.82 342.75 700.80 342.33Q701.78 341.91 702.44 340.89Q703.10 339.87 703.18 338.11L704.54 339.67Q704.34 341.95 703.44 343.51Q702.54 345.07 700.96 345.89Q699.38 346.71 697.10 346.71M724.10 346.91Q721.26 346.91 719.20 345.95Q717.14 344.99 715.76 343.39Q714.38 341.79 713.70 339.79Q713.02 337.79 713.02 335.71L713.02 334.95Q713.02 332.75 713.72 330.73Q714.42 328.71 715.82 327.13Q717.22 325.55 719.28 324.61Q721.34 323.67 724.06 323.67Q726.90 323.67 729.14 324.77Q731.38 325.87 732.72 327.83Q734.06 329.79 734.22 332.39L728.82 332.39Q728.62 330.71 727.40 329.59Q726.18 328.47 724.06 328.47Q722.22 328.47 721 329.35Q719.78 330.23 719.18 331.77Q718.58 333.31 718.58 335.31Q718.58 337.23 719.16 338.79Q719.74 340.35 720.96 341.23Q722.18 342.11 724.10 342.11Q725.54 342.11 726.58 341.59Q727.62 341.07 728.24 340.15Q728.86 339.23 729.02 338.07L734.42 338.07Q734.26 340.71 732.88 342.69Q731.50 344.67 729.24 345.79Q726.98 346.91 724.10 346.91M751.42 346.43L748.30 346.43Q745.30 346.43 743.36 345.65Q741.42 344.87 740.46 343.01Q739.50 341.15 739.50 337.99L739.54 318.31L744.74 318.31L744.70 338.35Q744.70 339.95 745.56 340.81Q746.42 341.67 748.02 341.67L751.42 341.67L751.42 346.43M751.42 328.51L736.06 328.51L736.06 324.43L751.42 324.43L751.42 328.51M782.30 346.15L777.90 346.15L777.90 339.71L776.98 339.71L776.98 332.55Q776.98 330.67 776.06 329.75Q775.14 328.83 773.22 328.83Q772.22 328.83 770.82 328.87Q769.42 328.91 768 328.97Q766.58 329.03 765.46 329.11L765.46 324.39Q766.38 324.31 767.54 324.23Q768.70 324.15 769.92 324.13Q771.14 324.11 772.22 324.11Q775.58 324.11 777.80 324.99Q780.02 325.87 781.16 327.75Q782.30 329.63 782.30 332.67L782.30 346.15M770.90 346.71Q768.54 346.71 766.76 345.87Q764.98 345.03 764 343.47Q763.02 341.91 763.02 339.71Q763.02 337.31 764.20 335.79Q765.38 334.27 767.52 333.51Q769.66 332.75 772.54 332.75L777.58 332.75L777.58 336.07L772.46 336.07Q770.54 336.07 769.52 337.01Q768.50 337.95 768.50 339.43Q768.50 340.91 769.52 341.83Q770.54 342.75 772.46 342.75Q773.62 342.75 774.60 342.33Q775.58 341.91 776.24 340.89Q776.90 339.87 776.98 338.11L778.34 339.67Q778.14 341.95 777.24 343.51Q776.34 345.07 774.76 345.89Q773.18 346.71 770.90 346.71M793.82 346.15L788.26 346.15L788.26 324.43L792.66 324.43L792.66 333.75L792.26 333.75Q792.26 330.43 793.14 328.21Q794.02 325.99 795.76 324.87Q797.50 323.75 800.10 323.75L800.34 323.75Q804.22 323.75 806.22 326.25Q808.22 328.75 808.22 333.71L808.22 346.15L802.66 346.15L802.66 333.23Q802.66 331.23 801.52 329.99Q800.38 328.75 798.38 328.75Q796.34 328.75 795.08 330.01Q793.82 331.27 793.82 333.39L793.82 346.15M823.18 346.87Q820.90 346.87 818.98 346.03Q817.06 345.19 815.66 343.67Q814.26 342.15 813.50 340.13Q812.74 338.11 812.74 335.75L812.74 334.91Q812.74 332.59 813.48 330.55Q814.22 328.51 815.56 326.99Q816.90 325.47 818.80 324.61Q820.70 323.75 823.02 323.75Q825.58 323.75 827.52 324.85Q829.46 325.95 830.62 328.15Q831.78 330.35 831.90 333.67L830.26 331.75L830.26 316.95L835.82 316.95L835.82 346.15L831.42 346.15L831.42 336.91L832.38 336.91Q832.26 340.23 831.02 342.45Q829.78 344.67 827.76 345.77Q825.74 346.87 823.18 346.87M824.42 342.19Q826.06 342.19 827.42 341.45Q828.78 340.71 829.60 339.29Q830.42 337.87 830.42 335.95L830.42 334.35Q830.42 332.43 829.58 331.13Q828.74 329.83 827.38 329.13Q826.02 328.43 824.42 328.43Q822.62 328.43 821.24 329.29Q819.86 330.15 819.08 331.71Q818.30 333.27 818.30 335.35Q818.30 337.43 819.10 338.97Q819.90 340.51 821.28 341.35Q822.66 342.19 824.42 342.19M863.54 346.87Q860.86 346.87 858.82 345.73Q856.78 344.59 855.62 342.39Q854.46 340.19 854.34 337.07L855.18 337.07L855.18 346.15L850.78 346.15L850.78 316.95L856.34 316.95L856.34 331.55L854.86 333.83Q855.02 330.47 856.20 328.23Q857.38 325.99 859.38 324.87Q861.38 323.75 863.90 323.75Q866.14 323.75 867.98 324.59Q869.82 325.43 871.14 326.93Q872.46 328.43 873.16 330.43Q873.86 332.43 873.86 334.79L873.86 335.63Q873.86 337.99 873.14 340.03Q872.42 342.07 871.06 343.61Q869.70 345.15 867.80 346.01Q865.90 346.87 863.54 346.87M862.30 342.19Q864.10 342.19 865.44 341.29Q866.78 340.39 867.54 338.83Q868.30 337.27 868.30 335.23Q868.30 333.15 867.54 331.63Q866.78 330.11 865.44 329.27Q864.10 328.43 862.30 328.43Q860.66 328.43 859.28 329.15Q857.90 329.87 857.04 331.27Q856.18 332.67 856.18 334.63L856.18 336.23Q856.18 338.11 857.06 339.43Q857.94 340.75 859.34 341.47Q860.74 342.19 862.30 342.19M885.34 346.15L879.78 346.15L879.78 324.43L885.34 324.43L885.34 346.15M885.34 328.59L876.74 328.59L876.74 324.43L885.34 324.43L885.34 328.59M881.82 321.83Q880.18 321.83 879.40 320.97Q878.62 320.11 878.62 318.79Q878.62 317.47 879.40 316.63Q880.18 315.79 881.82 315.79Q883.46 315.79 884.22 316.63Q884.98 317.47 884.98 318.79Q884.98 320.11 884.22 320.97Q883.46 321.83 881.82 321.83M902.18 346.91Q899.30 346.91 897.10 345.99Q894.90 345.07 893.38 343.49Q891.86 341.91 891.08 339.91Q890.30 337.91 890.30 335.75L890.30 334.91Q890.30 332.67 891.12 330.65Q891.94 328.63 893.48 327.05Q895.02 325.47 897.22 324.57Q899.42 323.67 902.18 323.67Q904.94 323.67 907.14 324.57Q909.34 325.47 910.88 327.05Q912.42 328.63 913.22 330.65Q914.02 332.67 914.02 334.91L914.02 335.75Q914.02 337.91 913.24 339.91Q912.46 341.91 910.94 343.49Q909.42 345.07 907.22 345.99Q905.02 346.91 902.18 346.91M902.18 342.15Q904.22 342.15 905.62 341.25Q907.02 340.35 907.74 338.81Q908.46 337.27 908.46 335.31Q908.46 333.31 907.72 331.77Q906.98 330.23 905.56 329.33Q904.14 328.43 902.18 328.43Q900.22 328.43 898.80 329.33Q897.38 330.23 896.62 331.77Q895.86 333.31 895.86 335.31Q895.86 337.27 896.60 338.81Q897.34 340.35 898.74 341.25Q900.14 342.15 902.18 342.15M923.78 346.15L917.54 346.15L917.54 339.75L923.78 339.75" fill="#E6E9FF" opacity="0.92"/>

  <!-- device frame -->
  <rect x="158" y="548" width="764" height="1324" rx="68" fill="#16142E"/>
  <rect x="180" y="570" width="720" height="1280" rx="48" fill="#EEF1FB"/>
  <!-- notch -->
  <rect x="470" y="564" width="140" height="22" rx="11" fill="#16142E"/>
  <!-- placeholder label -->
  <g fill="#9AA3C7" font-family="sans-serif" text-anchor="middle">
    <text x="540" y="1202" font-size="40" font-weight="700">Drop screenshot here</text>
    <text x="540" y="1254" font-size="32">2. Card editor</text>
    <text x="540" y="1306" font-size="26" opacity="0.8">1080 × 1920 (9:16)</text>
  </g>
</svg>
