<svg width="1080" height="1920" viewBox="0 0 1080 1920" fill="none" xmlns="http://www.w3.org/2000/svg">
  <defs>
    <linearGradient id="bg" x1="0" y1="0" x2="1080" y2="1920" gradientUnits="userSpaceOnUse">
      <stop stop-color="#7C79F2"/><stop offset="0.5" stop-color="#6366F1"/><stop offset="1" stop-color="#4B43DC"/>
    </linearGradient>
    <radialGradient id="glow" cx="0.5" cy="0.06" r="0.7">
      <stop stop-color="#AEB8FF" stop-opacity="0.45"/><stop offset="0.7" stop-color="#AEB8FF" stop-opacity="0"/>
    </radialGradient>
  </defs>
  <rect width="1080" height="1920" fill="url(#bg)"/>
  <rect width="1080" height="1920" fill="url(#glow)"/>
  <circle cx="120" cy="1700" r="200" fill="#ffffff" opacity="0.05"/>
  <circle cx="980" cy="120" r="150" fill="#ffffff" opacity="0.05"/>

  <!-- caption -->
  <path d="M73.11 250L62.07 250L62.07 199.63L73.11 199.63L73.11 250M93.74 250L71.73 250L71.73 240.62L93.74 240.62L93.74 250M92.16 229.09L71.73 229.09L71.73 219.71L92.16 219.71L92.16 229.09M93.26 209.01L71.73 209.01L71.73 199.63L93.26 199.63L93.26 209.01M134.04 250L125.28 250L125.28 238.82L123.41 238.82L123.41 226.68Q123.41 223.78 122.03 222.33Q120.65 220.88 117.62 220.88Q116.10 220.88 113.61 220.95Q111.13 221.02 108.51 221.16Q105.89 221.30 103.75 221.43L103.75 212.12Q105.33 211.98 107.47 211.84Q109.61 211.70 111.89 211.64Q114.17 211.57 116.17 211.57Q121.96 211.57 125.93 213.22Q129.90 214.88 131.97 218.23Q134.04 221.57 134.04 226.82L134.04 250M113.20 250.97Q109.13 250.97 106.06 249.52Q102.99 248.07 101.26 245.34Q99.54 242.62 99.54 238.82Q99.54 234.68 101.68 232.03Q103.82 229.37 107.68 228.09Q111.54 226.82 116.58 226.82L124.65 226.82L124.65 232.96L116.51 232.96Q113.61 232.96 112.06 234.37Q110.51 235.79 110.51 238.20Q110.51 240.48 112.06 241.89Q113.61 243.31 116.51 243.31Q118.38 243.31 119.86 242.65Q121.34 242 122.31 240.41Q123.27 238.82 123.41 235.99L126.03 238.75Q125.69 242.69 124.14 245.38Q122.58 248.07 119.86 249.52Q117.13 250.97 113.20 250.97M154.46 250L143.42 250L143.42 212.19L152.19 212.19L152.19 228.40L151.98 228.40Q151.98 220.40 155.39 216.05Q158.81 211.70 165.30 211.70L166.74 211.70L166.74 221.23L163.98 221.23Q159.43 221.23 156.95 223.68Q154.46 226.13 154.46 230.75L154.46 250M183.51 250L172.47 250L172.47 212.19L181.23 212.19L181.23 228.40L180.61 228.40Q180.61 222.61 182.10 218.74Q183.58 214.88 186.62 212.95Q189.65 211.01 194 211.01L194.48 211.01Q201.11 211.01 204.59 215.33Q208.08 219.64 208.08 228.40L208.08 250L197.04 250L197.04 227.78Q197.04 224.75 195.24 222.81Q193.45 220.88 190.41 220.88Q187.31 220.88 185.41 222.85Q183.51 224.81 183.51 227.99L183.51 250M242.99 250L231.95 250L231.95 212.19L240.71 212.19L240.71 228.40L240.51 228.40Q240.51 220.40 243.92 216.05Q247.34 211.70 253.82 211.70L255.27 211.70L255.27 221.23L252.51 221.23Q247.96 221.23 245.47 223.68Q242.99 226.13 242.99 230.75L242.99 250M278.11 251.31Q273.28 251.31 269.59 249.66Q265.90 248 263.45 245.20Q261 242.41 259.72 238.93Q258.45 235.44 258.45 231.78L258.45 230.40Q258.45 226.61 259.72 223.12Q261 219.64 263.41 216.88Q265.83 214.12 269.45 212.50Q273.07 210.88 277.70 210.88Q283.77 210.88 287.94 213.60Q292.12 216.33 294.33 220.71Q296.53 225.09 296.53 230.27L296.53 233.99L263.07 233.99L263.07 227.71L289.84 227.71L286.25 230.61Q286.25 227.23 285.29 224.81Q284.32 222.40 282.42 221.12Q280.53 219.85 277.70 219.85Q274.80 219.85 272.80 221.16Q270.80 222.47 269.76 224.99Q268.73 227.51 268.73 231.16Q268.73 234.54 269.69 237.06Q270.66 239.58 272.73 240.96Q274.80 242.34 278.11 242.34Q281.15 242.34 283.08 241.17Q285.01 240 285.70 238.27L295.84 238.27Q295.02 242.06 292.60 245.03Q290.19 248 286.53 249.66Q282.87 251.31 278.11 251.31M325.10 250L317.37 250L324.27 213.43L336.35 213.43L344.35 250L335.79 250L327.58 213.71L332.48 213.71L325.10 250M322.34 250L314.75 250L314.68 240.82L322.27 240.82L322.34 250M319.92 250L309.78 250L299.64 212.19L310.47 212.19L319.92 250M346.28 250L338.62 250L338.69 240.82L346.28 240.82L346.28 250M351.18 250L341.73 250L350.15 212.19L360.29 212.19L351.18 250M398.17 250L389.41 250L389.41 238.82L387.54 238.82L387.54 226.68Q387.54 223.78 386.16 222.33Q384.78 220.88 381.75 220.88Q380.23 220.88 377.75 220.95Q375.26 221.02 372.64 221.16Q370.02 221.30 367.88 221.43L367.88 212.12Q369.47 211.98 371.61 211.84Q373.74 211.70 376.02 211.64Q378.30 211.57 380.30 211.57Q386.10 211.57 390.06 213.22Q394.03 214.88 396.10 218.23Q398.17 221.57 398.17 226.82L398.17 250M377.33 250.97Q373.26 250.97 370.19 249.52Q367.12 248.07 365.40 245.34Q363.67 242.62 363.67 238.82Q363.67 234.68 365.81 232.03Q367.95 229.37 371.81 228.09Q375.68 226.82 380.71 226.82L388.79 226.82L388.79 232.96L380.64 232.96Q377.75 232.96 376.19 234.37Q374.64 235.79 374.64 238.20Q374.64 240.48 376.19 241.89Q377.75 243.31 380.64 243.31Q382.51 243.31 383.99 242.65Q385.47 242 386.44 240.41Q387.41 238.82 387.54 235.99L390.17 238.75Q389.82 242.69 388.27 245.38Q386.72 248.07 383.99 249.52Q381.27 250.97 377.33 250.97M418.59 250L407.55 250L407.55 212.19L416.32 212.19L416.32 228.40L416.11 228.40Q416.11 220.40 419.53 216.05Q422.94 211.70 429.43 211.70L430.88 211.70L430.88 221.23L428.12 221.23Q423.56 221.23 421.08 223.68Q418.59 226.13 418.59 230.75L418.59 250M451.99 251.24Q447.99 251.24 444.71 249.79Q441.43 248.34 439.02 245.76Q436.60 243.17 435.33 239.65Q434.05 236.13 434.05 232.06L434.05 230.47Q434.05 226.40 435.26 222.88Q436.47 219.36 438.78 216.71Q441.09 214.05 444.33 212.57Q447.57 211.08 451.58 211.08Q456.13 211.08 459.44 213.05Q462.75 215.02 464.62 218.85Q466.48 222.68 466.69 228.26L463.79 225.57L463.79 199.63L474.90 199.63L474.90 250L466.14 250L466.14 234.34L467.65 234.34Q467.45 239.72 465.41 243.51Q463.38 247.31 459.93 249.28Q456.48 251.24 451.99 251.24M454.75 242Q457.30 242 459.41 240.86Q461.51 239.72 462.79 237.51Q464.07 235.30 464.07 232.20L464.07 229.65Q464.07 226.61 462.75 224.54Q461.44 222.47 459.30 221.37Q457.17 220.26 454.68 220.26Q451.92 220.26 449.75 221.68Q447.57 223.09 446.33 225.54Q445.09 227.99 445.09 231.23Q445.09 234.54 446.33 236.96Q447.57 239.37 449.78 240.69Q451.99 242 454.75 242M499.26 251.17Q491.18 251.17 486.63 247.86Q482.07 244.55 481.80 238.55L491.60 238.55Q491.87 240.34 493.77 241.75Q495.67 243.17 499.46 243.17Q502.36 243.17 504.26 242.17Q506.16 241.17 506.16 239.31Q506.16 237.65 504.71 236.65Q503.26 235.65 499.53 235.23L496.56 234.96Q489.73 234.27 486.32 231.16Q482.90 228.06 482.90 223.23Q482.90 219.23 484.90 216.53Q486.90 213.84 490.46 212.46Q494.01 211.08 498.57 211.08Q505.88 211.08 510.36 214.29Q514.85 217.50 515.06 223.57L505.26 223.57Q504.98 221.71 503.33 220.43Q501.67 219.16 498.43 219.16Q495.87 219.16 494.36 220.12Q492.84 221.09 492.84 222.75Q492.84 224.33 494.15 225.16Q495.46 225.99 498.43 226.33L501.39 226.61Q508.36 227.37 512.23 230.47Q516.09 233.58 516.09 238.82Q516.09 242.62 514.02 245.41Q511.95 248.21 508.16 249.69Q504.36 251.17 499.26 251.17M534.79 240.82L526.65 261.80L518.16 258.49L525.41 237.37L534.79 240.82M568.88 250L557.84 250L557.84 212.19L568.88 212.19L568.88 250M568.88 220.33L552.80 220.33L552.80 212.19L568.88 212.19L568.88 220.33M562.11 208.46Q559.01 208.46 557.53 206.84Q556.04 205.22 556.04 202.74Q556.04 200.18 557.53 198.56Q559.01 196.94 562.11 196.94Q565.22 196.94 566.70 198.56Q568.19 200.18 568.19 202.74Q568.19 205.22 566.70 206.84Q565.22 208.46 562.11 208.46M590.13 250L579.09 250L579.09 212.19L587.85 212.19L587.85 228.40L587.23 228.40Q587.23 222.61 588.71 218.74Q590.20 214.88 593.23 212.95Q596.27 211.01 600.62 211.01L601.10 211.01Q607.72 211.01 611.21 215.33Q614.69 219.64 614.69 228.40L614.69 250L603.65 250L603.65 227.78Q603.65 224.75 601.86 222.81Q600.06 220.88 597.03 220.88Q593.92 220.88 592.03 222.85Q590.13 224.81 590.13 227.99L590.13 250M641.81 250L631.11 250L619.80 212.19L631.18 212.19L641.81 250M645.67 250L634.56 250L634.56 240.82L645.67 240.82L645.67 250M648.64 250L638.64 250L647.81 212.19L658.44 212.19L648.64 250M677.83 250L666.79 250L666.79 212.19L677.83 212.19L677.83 250M677.83 220.33L661.75 220.33L661.75 212.19L677.83 212.19L677.83 220.33M671.07 208.46Q667.96 208.46 666.48 206.84Q664.99 205.22 664.99 202.74Q664.99 200.18 666.48 198.56Q667.96 196.94 671.07 196.94Q674.17 196.94 675.65 198.56Q677.14 200.18 677.14 202.74Q677.14 205.22 675.65 206.84Q674.17 208.46 671.07 208.46M710.53 250.48L705.22 250.48Q699.49 250.48 695.97 249.07Q692.46 247.65 690.83 244.31Q689.21 240.96 689.21 235.23L689.21 201.98L699.49 201.98L699.49 235.65Q699.49 238.34 700.91 239.75Q702.32 241.17 704.94 241.17L710.53 241.17L710.53 250.48M710.53 220.26L683.49 220.26L683.49 212.19L710.53 212.19L710.53 220.26M735.17 251.31Q730.34 251.31 726.65 249.66Q722.95 248 720.50 245.20Q718.05 242.41 716.78 238.93Q715.50 235.44 715.50 231.78L715.50 230.40Q715.50 226.61 716.78 223.12Q718.05 219.64 720.47 216.88Q722.88 214.12 726.51 212.50Q730.13 210.88 734.75 210.88Q740.82 210.88 745 213.60Q749.17 216.33 751.38 220.71Q753.59 225.09 753.59 230.27L753.59 233.99L720.12 233.99L720.12 227.71L746.90 227.71L743.31 230.61Q743.31 227.23 742.34 224.81Q741.38 222.40 739.48 221.12Q737.58 219.85 734.75 219.85Q731.85 219.85 729.85 221.16Q727.85 222.47 726.82 224.99Q725.78 227.51 725.78 231.16Q725.78 234.54 726.75 237.06Q727.71 239.58 729.78 240.96Q731.85 242.34 735.17 242.34Q738.20 242.34 740.13 241.17Q742.07 240 742.76 238.27L752.90 238.27Q752.07 242.06 749.66 245.03Q747.24 248 743.58 249.66Q739.93 251.31 735.17 251.31M786.50 250L776.22 250L776.22 211.84Q776.22 205.29 779.95 202.11Q783.67 198.94 790.92 198.94L795.75 198.94L795.75 207.22L790.44 207.22Q788.57 207.22 787.54 208.25Q786.50 209.29 786.50 211.15L786.50 250M796.30 221.02L771.74 221.02L771.74 212.95L796.30 212.95L796.30 221.02M812.65 250L801.61 250L801.61 212.19L810.38 212.19L810.38 228.40L810.17 228.40Q810.17 220.40 813.59 216.05Q817 211.70 823.49 211.70L824.94 211.70L824.94 221.23L822.18 221.23Q817.62 221.23 815.14 223.68Q812.65 226.13 812.65 230.75L812.65 250M843.50 250L832.46 250L832.46 212.19L843.50 212.19L843.50 250M843.50 220.33L827.42 220.33L827.42 212.19L843.50 212.19L843.50 220.33M836.73 208.46Q833.63 208.46 832.15 206.84Q830.66 205.22 830.66 202.74Q830.66 200.18 832.15 198.56Q833.63 196.94 836.73 196.94Q839.84 196.94 841.32 198.56Q842.81 200.18 842.81 202.74Q842.81 205.22 841.32 206.84Q839.84 208.46 836.73 208.46M871.03 251.31Q866.20 251.31 862.51 249.66Q858.81 248 856.37 245.20Q853.92 242.41 852.64 238.93Q851.36 235.44 851.36 231.78L851.36 230.40Q851.36 226.61 852.64 223.12Q853.92 219.64 856.33 216.88Q858.75 214.12 862.37 212.50Q865.99 210.88 870.61 210.88Q876.69 210.88 880.86 213.60Q885.03 216.33 887.24 220.71Q889.45 225.09 889.45 230.27L889.45 233.99L855.99 233.99L855.99 227.71L882.76 227.71L879.17 230.61Q879.17 227.23 878.20 224.81Q877.24 222.40 875.34 221.12Q873.44 219.85 870.61 219.85Q867.72 219.85 865.71 221.16Q863.71 222.47 862.68 224.99Q861.64 227.51 861.64 231.16Q861.64 234.54 862.61 237.06Q863.58 239.58 865.65 240.96Q867.72 242.34 871.03 242.34Q874.06 242.34 876 241.17Q877.93 240 878.62 238.27L888.76 238.27Q887.93 242.06 885.52 245.03Q883.10 248 879.45 249.66Q875.79 251.31 871.03 251.31M907.80 250L896.76 250L896.76 212.19L905.53 212.19L905.53 228.40L904.91 228.40Q904.91 222.61 906.39 218.74Q907.87 214.88 910.91 212.95Q913.95 211.01 918.29 211.01L918.78 211.01Q925.40 211.01 928.88 215.33Q932.37 219.64 932.37 228.40L932.37 250L921.33 250L921.33 227.78Q921.33 224.75 919.53 222.81Q917.74 220.88 914.70 220.88Q911.60 220.88 909.70 222.85Q907.80 224.81 907.80 227.99L907.80 250M957.35 251.24Q953.34 251.24 950.07 249.79Q946.79 248.34 944.37 245.76Q941.96 243.17 940.68 239.65Q939.41 236.13 939.41 232.06L939.41 230.47Q939.41 226.40 940.61 222.88Q941.82 219.36 944.13 216.71Q946.44 214.05 949.69 212.57Q952.93 211.08 956.93 211.08Q961.49 211.08 964.80 213.05Q968.11 215.02 969.97 218.85Q971.84 222.68 972.04 228.26L969.15 225.57L969.15 199.63L980.25 199.63L980.25 250L971.49 250L971.49 234.34L973.01 234.34Q972.80 239.72 970.77 243.51Q968.73 247.31 965.28 249.28Q961.83 251.24 957.35 251.24M960.11 242Q962.66 242 964.76 240.86Q966.87 239.72 968.15 237.51Q969.42 235.30 969.42 232.20L969.42 229.65Q969.42 226.61 968.11 224.54Q966.80 222.47 964.66 221.37Q962.52 220.26 960.04 220.26Q957.28 220.26 955.10 221.68Q952.93 223.09 951.69 225.54Q950.45 227.99 950.45 231.23Q950.45 234.54 951.69 236.96Q952.93 239.37 955.14 240.69Q957.35 242 960.11 242M1004.61 251.17Q996.54 251.17 991.98 247.86Q987.43 244.55 987.15 238.55L996.95 238.55Q997.23 240.34 999.13 241.75Q1001.02 243.17 1004.82 243.17Q1007.72 243.17 1009.61 242.17Q1011.51 241.17 1011.51 239.31Q1011.51 237.65 1010.06 236.65Q1008.61 235.65 1004.89 235.23L1001.92 234.96Q995.09 234.27 991.67 231.16Q988.26 228.06 988.26 223.23Q988.26 219.23 990.26 216.53Q992.26 213.84 995.81 212.46Q999.37 211.08 1003.92 211.08Q1011.24 211.08 1015.72 214.29Q1020.21 217.50 1020.41 223.57L1010.61 223.57Q1010.34 221.71 1008.68 220.43Q1007.03 219.16 1003.78 219.16Q1001.23 219.16 999.71 220.12Q998.19 221.09 998.19 222.75Q998.19 224.33 999.51 225.16Q1000.82 225.99 1003.78 226.33L1006.75 226.61Q1013.72 227.37 1017.58 230.47Q1021.45 233.58 1021.45 238.82Q1021.45 242.62 1019.38 245.41Q1017.31 248.21 1013.51 249.69Q1009.72 251.17 1004.61 251.17" fill="#ffffff"/>
  <path d="M295.20 344.71Q291.44 344.71 288.58 343.45Q285.72 342.19 283.78 340.05Q281.84 337.91 280.86 335.21Q279.88 332.51 279.88 329.59L279.88 328.71Q279.88 325.95 280.84 323.31Q281.80 320.67 283.66 318.55Q285.52 316.43 288.26 315.17Q291 313.91 294.56 313.91Q298.40 313.91 301.36 315.33Q304.32 316.75 306.12 319.29Q307.92 321.83 308.24 325.19L302.52 325.19Q302.24 323.31 301.12 321.97Q300 320.63 298.30 319.91Q296.60 319.19 294.56 319.19Q292.52 319.19 290.86 319.91Q289.20 320.63 288.04 321.95Q286.88 323.27 286.26 325.11Q285.64 326.95 285.64 329.19Q285.64 331.63 286.32 333.55Q287 335.47 288.24 336.81Q289.48 338.15 291.24 338.85Q293 339.55 295.20 339.55Q298.12 339.55 300.32 338.33Q302.52 337.11 303.52 335.15L302.52 339.75L302.52 332.23L307.76 332.23L307.76 338.71Q305.88 341.55 302.64 343.13Q299.40 344.71 295.20 344.71M310.20 333.35L294.28 333.35L294.28 329.11L310.20 329.11L310.20 333.35M320 343.95L314.44 343.95L314.44 322.23L318.84 322.23L318.84 331.43L318.72 331.43Q318.72 326.75 320.72 324.35Q322.72 321.95 326.60 321.95L327.40 321.95L327.40 326.79L325.88 326.79Q323.08 326.79 321.54 328.29Q320 329.79 320 332.63L320 343.95M341.40 344.71Q338.52 344.71 336.32 343.79Q334.12 342.87 332.60 341.29Q331.08 339.71 330.30 337.71Q329.52 335.71 329.52 333.55L329.52 332.71Q329.52 330.47 330.34 328.45Q331.16 326.43 332.70 324.85Q334.24 323.27 336.44 322.37Q338.64 321.47 341.40 321.47Q344.16 321.47 346.36 322.37Q348.56 323.27 350.10 324.85Q351.64 326.43 352.44 328.45Q353.24 330.47 353.24 332.71L353.24 333.55Q353.24 335.71 352.46 337.71Q351.68 339.71 350.16 341.29Q348.64 342.87 346.44 343.79Q344.24 344.71 341.40 344.71M341.40 339.95Q343.44 339.95 344.84 339.05Q346.24 338.15 346.96 336.61Q347.68 335.07 347.68 333.11Q347.68 331.11 346.94 329.57Q346.20 328.03 344.78 327.13Q343.36 326.23 341.40 326.23Q339.44 326.23 338.02 327.13Q336.60 328.03 335.84 329.57Q335.08 331.11 335.08 333.11Q335.08 335.07 335.82 336.61Q336.56 338.15 337.96 339.05Q339.36 339.95 341.40 339.95M369.16 343.95L365.08 343.95L369.20 322.95L375.60 322.95L380.36 343.95L375.96 343.95L371.12 323.07L373.44 323.07L369.16 343.95M367.84 343.95L363.44 343.95L363.40 339.39L367.84 339.39L367.84 343.95M366.32 343.95L361.20 343.95L355.28 322.23L360.68 322.23L366.32 343.95M381.76 343.95L377.36 343.95L377.36 339.39L381.80 339.39L381.76 343.95M383.92 343.95L379.12 343.95L384.12 322.23L389.16 322.23L383.92 343.95M413.68 343.95L409.60 343.95L413.72 322.95L420.12 322.95L424.88 343.95L420.48 343.95L415.64 323.07L417.96 323.07L413.68 343.95M412.36 343.95L407.96 343.95L407.92 339.39L412.36 339.39L412.36 343.95M410.84 343.95L405.72 343.95L399.80 322.23L405.20 322.23L410.84 343.95M426.28 343.95L421.88 343.95L421.88 339.39L426.32 339.39L426.28 343.95M428.44 343.95L423.64 343.95L428.64 322.23L433.68 322.23L428.44 343.95M444.64 343.95L439.08 343.95L439.08 322.23L444.64 322.23L444.64 343.95M444.64 326.39L436.04 326.39L436.04 322.23L444.64 322.23L444.64 326.39M441.12 319.63Q439.48 319.63 438.70 318.77Q437.92 317.91 437.92 316.59Q437.92 315.27 438.70 314.43Q439.48 313.59 441.12 313.59Q442.76 313.59 443.52 314.43Q444.28 315.27 444.28 316.59Q444.28 317.91 443.52 318.77Q442.76 319.63 441.12 319.63M463.60 344.23L460.48 344.23Q457.48 344.23 455.54 343.45Q453.60 342.67 452.64 340.81Q451.68 338.95 451.68 335.79L451.72 316.11L456.92 316.11L456.88 336.15Q456.88 337.75 457.74 338.61Q458.60 339.47 460.20 339.47L463.60 339.47L463.60 344.23M463.60 326.31L448.24 326.31L448.24 322.23L463.60 322.23L463.60 326.31M473.84 343.95L468.28 343.95L468.28 314.75L473.84 314.75L473.84 331.79L472.88 331.79Q472.88 328.51 473.72 326.23Q474.56 323.95 476.22 322.75Q477.88 321.55 480.44 321.55L480.68 321.55Q484.40 321.55 486.32 324.11Q488.24 326.67 488.24 331.55L488.24 343.95L482.68 343.95L482.68 331.03Q482.68 328.95 481.50 327.75Q480.32 326.55 478.40 326.55Q476.36 326.55 475.10 327.89Q473.84 329.23 473.84 331.39L473.84 343.95M508.40 343.95L502.84 343.95L502.84 322.23L507.24 322.23L507.24 331.43L507.12 331.43Q507.12 326.75 509.12 324.35Q511.12 321.95 515 321.95L515.80 321.95L515.80 326.79L514.28 326.79Q511.48 326.79 509.94 328.29Q508.40 329.79 508.40 332.63L508.40 343.95M529.08 344.71Q526.28 344.71 524.18 343.75Q522.08 342.79 520.70 341.17Q519.32 339.55 518.62 337.55Q517.92 335.55 517.92 333.47L517.92 332.71Q517.92 330.55 518.62 328.53Q519.32 326.51 520.70 324.93Q522.08 323.35 524.12 322.41Q526.16 321.47 528.84 321.47Q532.36 321.47 534.74 323.01Q537.12 324.55 538.32 327.05Q539.52 329.55 539.52 332.43L539.52 334.43L520.28 334.43L520.28 331.03L536.04 331.03L534.32 332.71Q534.32 330.63 533.72 329.15Q533.12 327.67 531.90 326.87Q530.68 326.07 528.84 326.07Q527 326.07 525.72 326.91Q524.44 327.75 523.78 329.33Q523.12 330.91 523.12 333.11Q523.12 335.15 523.76 336.73Q524.40 338.31 525.72 339.21Q527.04 340.11 529.08 340.11Q531.12 340.11 532.40 339.29Q533.68 338.47 534.04 337.27L539.16 337.27Q538.68 339.51 537.32 341.19Q535.96 342.87 533.86 343.79Q531.76 344.71 529.08 344.71M549.88 343.95L544.68 343.95L544.68 321.71Q544.68 317.99 546.74 316.21Q548.80 314.43 552.84 314.43L555.56 314.43L555.56 318.71L552.44 318.71Q551.20 318.71 550.54 319.37Q549.88 320.03 549.88 321.23L549.88 343.95M555.92 326.67L541.96 326.67L541.96 322.59L555.92 322.59L555.92 326.67M569 344.71Q566.20 344.71 564.10 343.75Q562 342.79 560.62 341.17Q559.24 339.55 558.54 337.55Q557.84 335.55 557.84 333.47L557.84 332.71Q557.84 330.55 558.54 328.53Q559.24 326.51 560.62 324.93Q562 323.35 564.04 322.41Q566.08 321.47 568.76 321.47Q572.28 321.47 574.66 323.01Q577.04 324.55 578.24 327.05Q579.44 329.55 579.44 332.43L579.44 334.43L560.20 334.43L560.20 331.03L575.96 331.03L574.24 332.71Q574.24 330.63 573.64 329.15Q573.04 327.67 571.82 326.87Q570.60 326.07 568.76 326.07Q566.92 326.07 565.64 326.91Q564.36 327.75 563.70 329.33Q563.04 330.91 563.04 333.11Q563.04 335.15 563.68 336.73Q564.32 338.31 565.64 339.21Q566.96 340.11 569 340.11Q571.04 340.11 572.32 339.29Q573.60 338.47 573.96 337.27L579.08 337.27Q578.60 339.51 577.24 341.19Q575.88 342.87 573.78 343.79Q571.68 344.71 569 344.71M589.64 343.95L584.08 343.95L584.08 322.23L588.48 322.23L588.48 331.43L588.36 331.43Q588.36 326.75 590.36 324.35Q592.36 321.95 596.24 321.95L597.04 321.95L597.04 326.79L595.52 326.79Q592.72 326.79 591.18 328.29Q589.64 329.79 589.64 332.63L589.64 343.95M606.32 343.95L600.76 343.95L600.76 322.23L605.16 322.23L605.16 331.43L605.04 331.43Q605.04 326.75 607.04 324.35Q609.04 321.95 612.92 321.95L613.72 321.95L613.72 326.79L612.20 326.79Q609.40 326.79 607.86 328.29Q606.32 329.79 606.32 332.63L606.32 343.95M634.88 343.95L630.48 343.95L630.48 337.51L629.56 337.51L629.56 330.35Q629.56 328.47 628.64 327.55Q627.72 326.63 625.80 326.63Q624.80 326.63 623.40 326.67Q622 326.71 620.58 326.77Q619.16 326.83 618.04 326.91L618.04 322.19Q618.96 322.11 620.12 322.03Q621.28 321.95 622.50 321.93Q623.72 321.91 624.80 321.91Q628.16 321.91 630.38 322.79Q632.60 323.67 633.74 325.55Q634.88 327.43 634.88 330.47L634.88 343.95M623.48 344.51Q621.12 344.51 619.34 343.67Q617.56 342.83 616.58 341.27Q615.60 339.71 615.60 337.51Q615.60 335.11 616.78 333.59Q617.96 332.07 620.10 331.31Q622.24 330.55 625.12 330.55L630.16 330.55L630.16 333.87L625.04 333.87Q623.12 333.87 622.10 334.81Q621.08 335.75 621.08 337.23Q621.08 338.71 622.10 339.63Q623.12 340.55 625.04 340.55Q626.20 340.55 627.18 340.13Q628.16 339.71 628.82 338.69Q629.48 337.67 629.56 335.91L630.92 337.47Q630.72 339.75 629.82 341.31Q628.92 342.87 627.34 343.69Q625.76 344.51 623.48 344.51M646.68 343.95L641.12 343.95L641.12 314.75L646.68 314.75L646.68 343.95M646.68 318.91L638.40 318.91L638.40 314.75L646.68 314.75L646.68 318.91M667.24 351.95L661.68 351.95L661.68 322.23L666.08 322.23L666.08 331.59L665.40 331.55Q665.56 328.23 666.78 325.99Q668 323.75 670.04 322.65Q672.08 321.55 674.60 321.55Q676.92 321.55 678.78 322.39Q680.64 323.23 681.98 324.75Q683.32 326.27 684.04 328.29Q684.76 330.31 684.76 332.63L684.76 333.47Q684.76 335.83 684.06 337.85Q683.36 339.87 682.02 341.41Q680.68 342.95 678.80 343.81Q676.92 344.67 674.60 344.67Q672.16 344.67 670.14 343.65Q668.12 342.63 666.88 340.49Q665.64 338.35 665.48 334.95L667.24 337.63L667.24 351.95M673.20 339.99Q675 339.99 676.34 339.11Q677.68 338.23 678.44 336.65Q679.20 335.07 679.20 333.07Q679.20 330.99 678.44 329.47Q677.68 327.95 676.34 327.09Q675 326.23 673.20 326.23Q671.56 326.23 670.18 326.95Q668.80 327.67 667.94 329.07Q667.08 330.47 667.08 332.43L667.08 334.03Q667.08 335.91 667.96 337.23Q668.84 338.55 670.24 339.27Q671.64 339.99 673.20 339.99M700.08 344.71Q697.20 344.71 695 343.79Q692.80 342.87 691.28 341.29Q689.76 339.71 688.98 337.71Q688.20 335.71 688.20 333.55L688.20 332.71Q688.20 330.47 689.02 328.45Q689.84 326.43 691.38 324.85Q692.92 323.27 695.12 322.37Q697.32 321.47 700.08 321.47Q702.84 321.47 705.04 322.37Q707.24 323.27 708.78 324.85Q710.32 326.43 711.12 328.45Q711.92 330.47 711.92 332.71L711.92 333.55Q711.92 335.71 711.14 337.71Q710.36 339.71 708.84 341.29Q707.32 342.87 705.12 343.79Q702.92 344.71 700.08 344.71M700.08 339.95Q702.12 339.95 703.52 339.05Q704.92 338.15 705.64 336.61Q706.36 335.07 706.36 333.11Q706.36 331.11 705.62 329.57Q704.88 328.03 703.46 327.13Q702.04 326.23 700.08 326.23Q698.12 326.23 696.70 327.13Q695.28 328.03 694.52 329.57Q693.76 331.11 693.76 333.11Q693.76 335.07 694.50 336.61Q695.24 338.15 696.64 339.05Q698.04 339.95 700.08 339.95M723.40 343.95L717.84 343.95L717.84 322.23L723.40 322.23L723.40 343.95M723.40 326.39L714.80 326.39L714.80 322.23L723.40 322.23L723.40 326.39M719.88 319.63Q718.24 319.63 717.46 318.77Q716.68 317.91 716.68 316.59Q716.68 315.27 717.46 314.43Q718.24 313.59 719.88 313.59Q721.52 313.59 722.28 314.43Q723.04 315.27 723.04 316.59Q723.04 317.91 722.28 318.77Q721.52 319.63 719.88 319.63M735.36 343.95L729.80 343.95L729.80 322.23L734.20 322.23L734.20 331.55L733.80 331.55Q733.80 328.23 734.68 326.01Q735.56 323.79 737.30 322.67Q739.04 321.55 741.64 321.55L741.88 321.55Q745.76 321.55 747.76 324.05Q749.76 326.55 749.76 331.51L749.76 343.95L744.20 343.95L744.20 331.03Q744.20 329.03 743.06 327.79Q741.92 326.55 739.92 326.55Q737.88 326.55 736.62 327.81Q735.36 329.07 735.36 331.19L735.36 343.95M768.28 344.23L765.16 344.23Q762.16 344.23 760.22 343.45Q758.28 342.67 757.32 340.81Q756.36 338.95 756.36 335.79L756.40 316.11L761.60 316.11L761.56 336.15Q761.56 337.75 762.42 338.61Q763.28 339.47 764.88 339.47L768.28 339.47L768.28 344.23M768.28 326.31L752.92 326.31L752.92 322.23L768.28 322.23L768.28 326.31M780.68 344.63Q776.20 344.63 773.66 342.73Q771.12 340.83 771 337.47L776 337.47Q776.12 338.59 777.24 339.51Q778.36 340.43 780.76 340.43Q782.76 340.43 783.94 339.71Q785.12 338.99 785.12 337.75Q785.12 336.67 784.22 336.03Q783.32 335.39 781.16 335.19L779.24 334.99Q775.60 334.59 773.64 332.91Q771.68 331.23 771.68 328.43Q771.68 326.19 772.80 324.67Q773.92 323.15 775.90 322.37Q777.88 321.59 780.44 321.59Q784.44 321.59 786.92 323.35Q789.40 325.11 789.52 328.51L784.52 328.51Q784.44 327.39 783.40 326.59Q782.36 325.79 780.40 325.79Q778.64 325.79 777.68 326.47Q776.72 327.15 776.72 328.23Q776.72 329.27 777.50 329.83Q778.28 330.39 780.04 330.59L781.96 330.79Q785.80 331.19 787.98 332.91Q790.16 334.63 790.16 337.55Q790.16 339.71 788.98 341.29Q787.80 342.87 785.68 343.75Q783.56 344.63 780.68 344.63M799.76 343.95L793.52 343.95L793.52 337.55L799.76 337.55" fill="#E6E9FF" opacity="0.92"/>

  <!-- device frame -->
  <rect x="158" y="548" width="764" height="1324" rx="68" fill="#16142E"/>
  <rect x="180" y="570" width="720" height="1280" rx="48" fill="#EEF1FB"/>
  <!-- notch -->
  <rect x="470" y="564" width="140" height="22" rx="11" fill="#16142E"/>
  <!-- placeholder label -->
  <g fill="#9AA3C7" font-family="sans-serif" text-anchor="middle">
    <text x="540" y="1202" font-size="40" font-weight="700">Drop screenshot here</text>
    <text x="540" y="1254" font-size="32">7. Rewards &amp; referrals</text>
    <text x="540" y="1306" font-size="26" opacity="0.8">1080 × 1920 (9:16)</text>
  </g>
</svg>
