<svg width="1080" height="1920" viewBox="0 0 1080 1920" fill="none" xmlns="http://www.w3.org/2000/svg">
  <defs>
    <linearGradient id="bg" x1="0" y1="0" x2="1080" y2="1920" gradientUnits="userSpaceOnUse">
      <stop stop-color="#7C79F2"/><stop offset="0.5" stop-color="#6366F1"/><stop offset="1" stop-color="#4B43DC"/>
    </linearGradient>
    <radialGradient id="glow" cx="0.5" cy="0.06" r="0.7">
      <stop stop-color="#AEB8FF" stop-opacity="0.45"/><stop offset="0.7" stop-color="#AEB8FF" stop-opacity="0"/>
    </radialGradient>
  </defs>
  <rect width="1080" height="1920" fill="url(#bg)"/>
  <rect width="1080" height="1920" fill="url(#glow)"/>
  <circle cx="120" cy="1700" r="200" fill="#ffffff" opacity="0.05"/>
  <circle cx="980" cy="120" r="150" fill="#ffffff" opacity="0.05"/>

  <!-- caption -->
  <path d="M187.68 251.52Q179.76 251.52 174.32 249Q168.88 246.48 166.08 242.12Q163.28 237.76 163.28 232.08L176 232.08Q176 234.32 177.24 236.24Q178.48 238.16 181.04 239.32Q183.60 240.48 187.68 240.48Q191.36 240.48 193.84 239.52Q196.32 238.56 197.60 236.84Q198.88 235.12 198.88 232.88Q198.88 230.08 196.48 228.44Q194.08 226.80 188.72 226.32L184.32 225.92Q175.60 225.20 170.40 220.48Q165.20 215.76 165.20 208Q165.20 202.40 167.88 198.32Q170.56 194.24 175.36 192.04Q180.16 189.84 186.72 189.84Q193.60 189.84 198.52 192.20Q203.44 194.56 206.08 198.84Q208.72 203.12 208.72 208.88L195.92 208.88Q195.92 206.72 194.88 204.92Q193.84 203.12 191.80 202Q189.76 200.88 186.72 200.88Q183.84 200.88 181.88 201.84Q179.92 202.80 178.96 204.44Q178 206.08 178 208Q178 210.48 179.76 212.32Q181.52 214.16 185.52 214.48L190 214.88Q196.40 215.44 201.28 217.64Q206.16 219.84 208.92 223.64Q211.68 227.44 211.68 232.88Q211.68 238.48 208.76 242.68Q205.84 246.88 200.48 249.20Q195.12 251.52 187.68 251.52M240.08 251.52Q234.48 251.52 230.20 249.60Q225.92 247.68 223.08 244.44Q220.24 241.20 218.76 237.16Q217.28 233.12 217.28 228.88L217.28 227.28Q217.28 222.88 218.76 218.84Q220.24 214.80 223.04 211.60Q225.84 208.40 230.04 206.52Q234.24 204.64 239.60 204.64Q246.64 204.64 251.48 207.80Q256.32 210.96 258.88 216.04Q261.44 221.12 261.44 227.12L261.44 231.44L222.64 231.44L222.64 224.16L253.68 224.16L249.52 227.52Q249.52 223.60 248.40 220.80Q247.28 218 245.08 216.52Q242.88 215.04 239.60 215.04Q236.24 215.04 233.92 216.56Q231.60 218.08 230.40 221Q229.20 223.92 229.20 228.16Q229.20 232.08 230.32 235Q231.44 237.92 233.84 239.52Q236.24 241.12 240.08 241.12Q243.60 241.12 245.84 239.76Q248.08 238.40 248.88 236.40L260.64 236.40Q259.68 240.80 256.88 244.24Q254.08 247.68 249.84 249.60Q245.60 251.52 240.08 251.52MNaN 251.52Q284.40 251.52 280.12 249.60Q275.84 247.68 NaN 244.44Q270.16 241.20 268.68 237.16Q267.20 233.12 267.20 228.88L267.20 227.28Q267.20 222.88 268.68 218.84Q270.16 214.80 272.96 211.60Q275.76 208.40 279.96 206.52Q284.16 204.64 289.52 204.64Q296.56 204.64 301.40 207.80Q306.24 210.96 308.80 216.04Q311.36 221.12 311.36 227.12L311.36 231.44L272.56 231.44L272.56 224.16L303.60 224.16L299.44 227.52Q299.44 223.60 298.32 220.80Q297.20 218 NaN 216.52Q292.80 215.04 289.52 215.04Q286.16 215.04 283.84 216.56Q281.52 218.08 280.32 221Q279.12 223.92 279.12 228.16Q279.12 232.08 280.24 235Q281.36 237.92 283.76 239.52Q286.16 241.12 NaN 241.12Q293.52 241.12 295.76 239.76QNaN 238.40 298.80 236.40L310.56 236.40Q309.60 240.80 306.80 244.24QNaN 247.68 299.76 249.60Q295.52 251.52 NaN 251.52M361.68 250L352.72 250L360.72 207.60L374.72 207.60LNaN 250L374.08 250L364.56 207.92L370.24 207.92L361.68 250M358.48 250L349.68 250L349.60 239.36L358.40 239.36L358.48 250M355.68 250L343.92 250L332.16 206.16L344.72 206.16L355.68 250M386.24 250L377.36 250L377.44 239.36L386.24 239.36L386.24 250M391.92 250L380.96 250L390.72 206.16L402.48 206.16L391.92 250M423.20 250L410.40 250L410.40 191.60L423.20 191.60L423.20 225.28L421.28 225.28Q421.28 218.64 422.96 214.08Q424.64 209.52 427.92 207.16Q431.20 204.80 436.16 204.80L436.72 204.80QNaN 204.80 447.84 209.96Q451.68 215.12 451.68 225.04L451.68 250L438.88 250L438.88 224.24Q438.88 220.64 436.76 218.44Q434.64 216.24 431.20 216.24Q427.60 216.24 425.40 218.56Q423.20 220.88 423.20 224.72L423.20 250M483.92 251.52Q478.16 251.52 473.68 249.72Q469.20 247.92 466.12 244.80Q463.04 241.68 461.44 237.64Q459.84 233.60 459.84 229.12L459.84 227.28Q459.84 222.72 461.48 218.60Q463.12 214.48 466.28 211.36Q469.44 208.24 473.92 206.44Q478.40 204.64 483.92 204.64Q489.60 204.64 494.04 206.44Q498.48 208.24 501.60 211.36Q504.72 214.48 506.40 218.60Q508.08 222.72 508.08 227.28L508.08 229.12Q508.08 233.60 506.48 237.64Q504.88 241.68 501.80 244.80Q498.72 247.92 494.24 249.72Q489.76 251.52 483.92 251.52M483.92 240.72Q487.68 240.72 490.16 239.12Q492.64 237.52 493.96 234.64Q495.28 231.76 495.28 228.24Q495.28 224.48 493.92 221.64Q492.56 218.80 490.04 217.12Q487.52 215.44 483.92 215.44Q480.40 215.44 477.84 217.12Q475.28 218.80 473.96 221.64Q472.64 224.48 472.64 228.24Q472.64 231.76 473.92 234.64Q475.20 237.52 477.76 239.12Q480.32 240.72 483.92 240.72M524.40 216.32L512.80 216.32L512.80 191.60L524.40 191.60L524.40 216.32M548.88 251.36Q539.52 251.36 534.24 247.52Q528.96 243.68 528.64 236.72LNaN 236.72Q540.32 238.80 542.52 240.44Q544.72 242.08 549.12 242.08Q552.48 242.08 554.68 240.92Q556.88 239.76 556.88 237.60Q556.88 235.68 555.20 234.52Q553.52 233.36 549.20 232.88L545.76 232.56Q537.84 231.76 533.88 228.16Q529.92 224.56 529.92 218.96Q529.92 214.32 532.24 211.20Q534.56 208.08 538.68 206.48Q542.80 204.88 548.08 204.88Q556.56 204.88 561.76 208.60Q566.96 212.32 567.20 219.36L555.84 219.36Q555.52 217.20 553.60 215.72Q551.68 214.24 547.92 214.24Q544.96 214.24 543.20 215.36Q541.44 216.48 541.44 218.40Q541.44 220.24 542.96 221.20Q544.48 222.16 547.92 222.56L551.36 222.88Q559.44 223.76 563.92 227.36Q568.40 230.96 568.40 237.04Q568.40 241.44 NaN 244.68Q563.60 247.92 559.20 249.64Q554.80 251.36 548.88 251.36M614.40 250LNaN 250L588.88 206.16L602.08 206.16L614.40 250M618.88 250LNaN 250LNaN 239.36L618.88 239.36L618.88 250M622.32 250L610.72 250L621.36 206.16L633.68 206.16L622.32 250M656.16 250L643.36 250L643.36 206.16L656.16 206.16L656.16 250M656.16 215.60L637.52 215.60L637.52 206.16L656.16 206.16L656.16 215.60M648.32 201.84Q644.72 201.84 643 199.96Q641.28 198.08 641.28 195.20Q641.28 192.24 643 190.36Q644.72 188.48 648.32 188.48Q651.92 188.48 653.64 190.36Q655.36 192.24 655.36 195.20Q655.36 198.08 653.64 199.96Q651.92 201.84 648.32 201.84M688.08 251.52Q682.48 251.52 678.20 249.60Q673.92 247.68 671.08 244.44Q668.24 241.20 666.76 237.16Q665.28 233.12 665.28 228.88L665.28 227.28Q665.28 222.88 666.76 218.84Q668.24 214.80 671.04 211.60Q673.84 208.40 678.04 206.52Q682.24 204.64 687.60 204.64Q694.64 204.64 699.48 207.80Q704.32 210.96 706.88 216.04Q709.44 221.12 709.44 227.12L709.44 231.44L670.64 231.44L670.64 224.16L701.68 224.16L697.52 227.52Q697.52 223.60 696.40 220.80Q695.28 218 693.08 216.52Q690.88 215.04 687.60 215.04Q684.24 215.04 681.92 216.56Q679.60 218.08 678.40 221Q677.20 223.92 677.20 228.16Q677.20 232.08 678.32 235Q679.44 237.92 681.84 239.52Q684.24 241.12 688.08 241.12Q691.60 241.12 693.84 239.76Q696.08 238.40 696.88 236.40L708.64 236.40Q707.68 240.80 704.88 244.24Q702.08 247.68 697.84 249.60Q693.60 251.52 688.08 251.52M742.56 250L733.60 250L741.60 207.60L755.60 207.60L764.88 250L754.96 250L745.44 207.92L751.12 207.92L742.56 250M739.36 250L730.56 250L730.48 239.36L739.28 239.36L739.36 250M736.56 250L724.80 250L713.04 206.16L725.60 206.16L736.56 250M767.12 250L758.24 250L758.32 239.36L767.12 239.36L767.12 250M772.80 250L761.84 250L771.60 206.16L783.36 206.16L772.80 250M806.16 250L793.36 250L793.36 206.16L806.16 206.16L806.16 250M806.16 215.60L787.52 215.60L787.52 206.16L806.16 206.16L806.16 215.60M798.32 201.84Q794.72 201.84 793 199.96Q791.28 198.08 791.28 195.20Q791.28 192.24 793 190.36Q794.72 188.48 798.32 188.48Q801.92 188.48 803.64 190.36Q805.36 192.24 805.36 195.20Q805.36 198.08 803.64 199.96Q801.92 201.84 798.32 201.84M830.80 250LNaN 250LNaN 206.16L828.16 206.16L828.16 224.96L827.44 224.96Q827.44 218.24 829.16 213.76Q830.88 209.28 834.40 207.04Q837.92 204.80 842.96 204.80L843.52 204.80Q851.20 204.80 855.24 209.80Q859.28 214.80 859.28 224.96L859.28 250L846.48 250L846.48 224.24Q846.48 220.72 844.40 218.48Q842.32 216.24 838.80 216.24Q835.20 216.24 NaN 218.52Q830.80 220.80 830.80 224.48L830.80 250M887.44 267.44Q884.24 267.44 880.88 267.20Q877.52 266.96 874.72 266.56L874.72 255.76Q877.52 256.16 880.92 256.44Q884.32 256.72 887.12 256.72Q892.32 256.72 895.56 255.52Q898.80 254.32 900.32 251.88Q901.84 249.44 901.84 245.60L901.84 236.88L904.16 231.76Q904 237.60 901.88 241.76Q899.76 245.92 896 248.12Q892.24 250.32 887.04 250.32Q882.56 250.32 878.92 248.68Q875.28 247.04 872.72 244.08Q870.16 241.12 868.80 237.16Q867.44 233.20 867.44 228.56L867.44 226.72Q867.44 222.08 868.88 218.08Q870.32 214.08 873.04 211.12Q875.76 208.16 879.52 206.52Q883.28 204.88 887.84 204.88Q893.12 204.88 897 207.20Q900.88 209.52 903.12 214Q905.36 218.48 905.52 224.80L903.76 225.28L903.76 206.16L913.92 206.16L913.92 244.80Q913.92 252.88 911.04 257.84Q908.16 262.80 902.28 265.12Q896.40 267.44 887.44 267.44M891.04 239.52Q894 239.52 896.40 238.20Q898.80 236.88 900.20 234.40Q901.60 231.92 901.60 228.40L901.60 226.08Q901.60 222.64 900.12 220.28Q898.64 217.92 896.24 216.68Q893.84 215.44 891.12 215.44Q887.92 215.44 885.44 216.96Q882.96 218.48 881.60 221.20Q880.24 223.92 880.24 227.60Q880.24 231.36 881.64 234.04Q883.04 236.72 885.48 238.12Q887.92 239.52 891.04 239.52" fill="#ffffff"/>
  <path d="M207.10 350L201.42 350L201.42 325L207.10 325L207.10 350M215.54 325.80L192.98 325.80L192.98 320.80L215.54 320.80L215.54 325.80M223.90 350L218.34 350L218.34 328.28L222.74 328.28L222.74 337.48L222.62 337.48Q222.62 332.80 224.62 330.40Q226.62 328 230.50 328L231.30 328L231.30 332.84L229.78 332.84Q226.98 332.84 225.44 334.34Q223.90 335.84 223.90 338.68L223.90 350M252.46 350L248.06 350L248.06 343.56L247.14 343.56L247.14 336.40Q247.14 334.52 246.22 333.60Q245.30 332.68 243.38 332.68Q242.38 332.68 240.98 332.72Q239.58 332.76 238.16 332.82Q236.74 332.88 235.62 332.96L235.62 328.24Q236.54 328.16 237.70 328.08Q238.86 328 240.08 327.98Q241.30 327.96 242.38 327.96Q245.74 327.96 247.96 328.84Q250.18 329.72 251.32 331.60Q252.46 333.48 252.46 336.52L252.46 350M241.06 350.56Q238.70 350.56 236.92 349.72Q235.14 348.88 234.16 347.32Q233.18 345.76 233.18 343.56Q233.18 341.16 234.36 339.64Q235.54 338.12 237.68 337.36Q239.82 336.60 242.70 336.60L247.74 336.60L247.74 339.92L242.62 339.92Q240.70 339.92 239.68 340.86Q238.66 341.80 238.66 343.28Q238.66 344.76 239.68 345.68Q240.70 346.60 242.62 346.60Q243.78 346.60 244.76 346.18Q245.74 345.76 246.40 344.74Q247.06 343.72 247.14 341.96L248.50 343.52Q248.30 345.80 247.40 347.36Q246.50 348.92 244.92 349.74Q243.34 350.56 241.06 350.56M268.06 350.76Q265.22 350.76 263.16 349.80Q261.10 348.84 259.72 347.24Q258.34 345.64 257.66 343.64Q256.98 341.64 256.98 339.56L256.98 338.80Q256.98 336.60 257.68 334.58Q258.38 332.56 259.78 330.98Q261.18 329.40 263.24 328.46Q265.30 327.52 268.02 327.52Q270.86 327.52 273.10 328.62Q275.34 329.72 276.68 331.68Q278.02 333.64 278.18 336.24L272.78 336.24Q272.58 334.56 271.36 333.44Q270.14 332.32 268.02 332.32Q266.18 332.32 264.96 333.20Q263.74 334.08 263.14 335.62Q262.54 337.16 262.54 339.16Q262.54 341.08 263.12 342.64Q263.70 344.20 264.92 345.08Q266.14 345.96 268.06 345.96Q269.50 345.96 270.54 345.44Q271.58 344.92 272.20 344Q272.82 343.08 272.98 341.92L278.38 341.92Q278.22 344.56 276.84 346.54Q275.46 348.52 273.20 349.64Q270.94 350.76 268.06 350.76M304.30 350L298.02 350L290.74 339.84L287.50 339.84L296.74 328.28L302.54 328.28L294.02 338.96L294.14 336.16L304.30 350M288.38 350L282.82 350L282.82 320.80L288.38 320.80L288.38 350M325.78 350.76Q322.94 350.76 320.88 349.80Q318.82 348.84 317.44 347.24Q316.06 345.64 315.38 343.64Q314.70 341.64 314.70 339.56L314.70 338.80Q314.70 336.60 315.40 334.58Q316.10 332.56 317.50 330.98Q318.90 329.40 320.96 328.46Q323.02 327.52 325.74 327.52Q328.58 327.52 330.82 328.62Q333.06 329.72 334.40 331.68Q335.74 333.64 335.90 336.24L330.50 336.24Q330.30 334.56 329.08 333.44Q327.86 332.32 325.74 332.32Q323.90 332.32 322.68 333.20Q321.46 334.08 320.86 335.62Q320.26 337.16 320.26 339.16Q320.26 341.08 320.84 342.64Q321.42 344.20 322.64 345.08Q323.86 345.96 325.78 345.96Q327.22 345.96 328.26 345.44Q329.30 344.92 329.92 344Q330.54 343.08 330.70 341.92L336.10 341.92Q335.94 344.56 334.56 346.54Q333.18 348.52 330.92 349.64Q328.66 350.76 325.78 350.76M358.10 350L353.70 350L353.70 343.56L352.78 343.56L352.78 336.40Q352.78 334.52 351.86 333.60Q350.94 332.68 349.02 332.68Q348.02 332.68 346.62 332.72Q345.22 332.76 343.80 332.82Q342.38 332.88 341.26 332.96L341.26 328.24Q342.18 328.16 343.34 328.08Q344.50 328 345.72 327.98Q346.94 327.96 348.02 327.96Q351.38 327.96 353.60 328.84Q355.82 329.72 356.96 331.60Q358.10 333.48 358.10 336.52L358.10 350M346.70 350.56Q344.34 350.56 342.56 349.72Q340.78 348.88 339.80 347.32Q338.82 345.76 338.82 343.56Q338.82 341.16 340 339.64Q341.18 338.12 343.32 337.36Q345.46 336.60 348.34 336.60L353.38 336.60L353.38 339.92L348.26 339.92Q346.34 339.92 345.32 340.86Q344.30 341.80 344.30 343.28Q344.30 344.76 345.32 345.68Q346.34 346.60 348.26 346.60Q349.42 346.60 350.40 346.18Q351.38 345.76 352.04 344.74Q352.70 343.72 352.78 341.96L354.14 343.52Q353.94 345.80 353.04 347.36Q352.14 348.92 350.56 349.74Q348.98 350.56 346.70 350.56M369.62 350L364.06 350L364.06 328.28L368.46 328.28L368.46 337.48L368.34 337.48Q368.34 332.80 370.34 330.40Q372.34 328 376.22 328L377.02 328L377.02 332.84L375.50 332.84Q372.70 332.84 371.16 334.34Q369.62 335.84 369.62 338.68L369.62 350M389.58 350.72Q387.30 350.72 385.38 349.88Q383.46 349.04 382.06 347.52Q380.66 346 379.90 343.98Q379.14 341.96 379.14 339.60L379.14 338.76Q379.14 336.44 379.88 334.40Q380.62 332.36 381.96 330.84Q383.30 329.32 385.20 328.46Q387.10 327.60 389.42 327.60Q391.98 327.60 393.92 328.70Q395.86 329.80 397.02 332Q398.18 334.20 398.30 337.52L396.66 335.60L396.66 320.80L402.22 320.80L402.22 350L397.82 350L397.82 340.76L398.78 340.76Q398.66 344.08 397.42 346.30Q396.18 348.52 394.16 349.62Q392.14 350.72 389.58 350.72M390.82 346.04Q392.46 346.04 393.82 345.30Q395.18 344.56 396 343.14Q396.82 341.72 396.82 339.80L396.82 338.20Q396.82 336.28 395.98 334.98Q395.14 333.68 393.78 332.98Q392.42 332.28 390.82 332.28Q389.02 332.28 387.64 333.14Q386.26 334 385.48 335.56Q384.70 337.12 384.70 339.20Q384.70 341.28 385.50 342.82Q386.30 344.36 387.68 345.20Q389.06 346.04 390.82 346.04M426.98 350L421.54 350L414.74 328.28L420.46 328.28L426.98 350M429.06 350L423.18 350L423.18 345.44L429.06 345.44L429.06 350M430.46 350L425.38 350L430.98 328.28L436.34 328.28L430.46 350M447.14 350L441.58 350L441.58 328.28L447.14 328.28L447.14 350M447.14 332.44L438.54 332.44L438.54 328.28L447.14 328.28L447.14 332.44M443.62 325.68Q441.98 325.68 441.20 324.82Q440.42 323.96 440.42 322.64Q440.42 321.32 441.20 320.48Q441.98 319.64 443.62 319.64Q445.26 319.64 446.02 320.48Q446.78 321.32 446.78 322.64Q446.78 323.96 446.02 324.82Q445.26 325.68 443.62 325.68M463.26 350.76Q460.46 350.76 458.36 349.80Q456.26 348.84 454.88 347.22Q453.50 345.60 452.80 343.60Q452.10 341.60 452.10 339.52L452.10 338.76Q452.10 336.60 452.80 334.58Q453.50 332.56 454.88 330.98Q456.26 329.40 458.30 328.46Q460.34 327.52 463.02 327.52Q466.54 327.52 468.92 329.06Q471.30 330.60 472.50 333.10Q473.70 335.60 473.70 338.48L473.70 340.48L454.46 340.48L454.46 337.08L470.22 337.08L468.50 338.76Q468.50 336.68 467.90 335.20Q467.30 333.72 466.08 332.92Q464.86 332.12 463.02 332.12Q461.18 332.12 459.90 332.96Q458.62 333.80 457.96 335.38Q457.30 336.96 457.30 339.16Q457.30 341.20 457.94 342.78Q458.58 344.36 459.90 345.26Q461.22 346.16 463.26 346.16Q465.30 346.16 466.58 345.34Q467.86 344.52 468.22 343.32L473.34 343.32Q472.86 345.56 471.50 347.24Q470.14 348.92 468.04 349.84Q465.94 350.76 463.26 350.76M489.66 350L485.58 350L489.70 329L496.10 329L500.86 350L496.46 350L491.62 329.12L493.94 329.12L489.66 350M488.34 350L483.94 350L483.90 345.44L488.34 345.44L488.34 350M486.82 350L481.70 350L475.78 328.28L481.18 328.28L486.82 350M502.26 350L497.86 350L497.86 345.44L502.30 345.44L502.26 350M504.42 350L499.62 350L504.62 328.28L509.66 328.28L504.42 350M521.70 350.68Q517.22 350.68 514.68 348.78Q512.14 346.88 512.02 343.52L517.02 343.52Q517.14 344.64 518.26 345.56Q519.38 346.48 521.78 346.48Q523.78 346.48 524.96 345.76Q526.14 345.04 526.14 343.80Q526.14 342.72 525.24 342.08Q524.34 341.44 522.18 341.24L520.26 341.04Q516.62 340.64 514.66 338.96Q512.70 337.28 512.70 334.48Q512.70 332.24 513.82 330.72Q514.94 329.20 516.92 328.42Q518.90 327.64 521.46 327.64Q525.46 327.64 527.94 329.40Q530.42 331.16 530.54 334.56L525.54 334.56Q525.46 333.44 524.42 332.64Q523.38 331.84 521.42 331.84Q519.66 331.84 518.70 332.52Q517.74 333.20 517.74 334.28Q517.74 335.32 518.52 335.88Q519.30 336.44 521.06 336.64L522.98 336.84Q526.82 337.24 529 338.96Q531.18 340.68 531.18 343.60Q531.18 345.76 530 347.34Q528.82 348.92 526.70 349.80Q524.58 350.68 521.70 350.68M561.98 350L557.58 350L557.58 343.56L556.66 343.56L556.66 336.40Q556.66 334.52 555.74 333.60Q554.82 332.68 552.90 332.68Q551.90 332.68 550.50 332.72Q549.10 332.76 547.68 332.82Q546.26 332.88 545.14 332.96L545.14 328.24Q546.06 328.16 547.22 328.08Q548.38 328 549.60 327.98Q550.82 327.96 551.90 327.96Q555.26 327.96 557.48 328.84Q559.70 329.72 560.84 331.60Q561.98 333.48 561.98 336.52L561.98 350M550.58 350.56Q548.22 350.56 546.44 349.72Q544.66 348.88 543.68 347.32Q542.70 345.76 542.70 343.56Q542.70 341.16 543.88 339.64Q545.06 338.12 547.20 337.36Q549.34 336.60 552.22 336.60L557.26 336.60L557.26 339.92L552.14 339.92Q550.22 339.92 549.20 340.86Q548.18 341.80 548.18 343.28Q548.18 344.76 549.20 345.68Q550.22 346.60 552.14 346.60Q553.30 346.60 554.28 346.18Q555.26 345.76 555.92 344.74Q556.58 343.72 556.66 341.96L558.02 343.52Q557.82 345.80 556.92 347.36Q556.02 348.92 554.44 349.74Q552.86 350.56 550.58 350.56M573.50 350L567.94 350L567.94 328.28L572.34 328.28L572.34 337.60L571.94 337.60Q571.94 334.28 572.82 332.06Q573.70 329.84 575.44 328.72Q577.18 327.60 579.78 327.60L580.02 327.60Q583.90 327.60 585.90 330.10Q587.90 332.60 587.90 337.56L587.90 350L582.34 350L582.34 337.08Q582.34 335.08 581.20 333.84Q580.06 332.60 578.06 332.60Q576.02 332.60 574.76 333.86Q573.50 335.12 573.50 337.24L573.50 350M602.86 350.72Q600.58 350.72 598.66 349.88Q596.74 349.04 595.34 347.52Q593.94 346 593.18 343.98Q592.42 341.96 592.42 339.60L592.42 338.76Q592.42 336.44 593.16 334.40Q593.90 332.36 595.24 330.84Q596.58 329.32 598.48 328.46Q600.38 327.60 602.70 327.60Q605.26 327.60 607.20 328.70Q609.14 329.80 610.30 332Q611.46 334.20 611.58 337.52L609.94 335.60L609.94 320.80L615.50 320.80L615.50 350L611.10 350L611.10 340.76L612.06 340.76Q611.94 344.08 610.70 346.30Q609.46 348.52 607.44 349.62Q605.42 350.72 602.86 350.72M604.10 346.04Q605.74 346.04 607.10 345.30Q608.46 344.56 609.28 343.14Q610.10 341.72 610.10 339.80L610.10 338.20Q610.10 336.28 609.26 334.98Q608.42 333.68 607.06 332.98Q605.70 332.28 604.10 332.28Q602.30 332.28 600.92 333.14Q599.54 334 598.76 335.56Q597.98 337.12 597.98 339.20Q597.98 341.28 598.78 342.82Q599.58 344.36 600.96 345.20Q602.34 346.04 604.10 346.04M636.30 350L630.74 350L630.74 320.80L636.30 320.80L636.30 350M636.30 324.96L628.02 324.96L628.02 320.80L636.30 320.80L636.30 324.96M652.38 350.76Q649.58 350.76 647.48 349.80Q645.38 348.84 644 347.22Q642.62 345.60 641.92 343.60Q641.22 341.60 641.22 339.52L641.22 338.76Q641.22 336.60 641.92 334.58Q642.62 332.56 644 330.98Q645.38 329.40 647.42 328.46Q649.46 327.52 652.14 327.52Q655.66 327.52 658.04 329.06Q660.42 330.60 661.62 333.10Q662.82 335.60 662.82 338.48L662.82 340.48L643.58 340.48L643.58 337.08L659.34 337.08L657.62 338.76Q657.62 336.68 657.02 335.20Q656.42 333.72 655.20 332.92Q653.98 332.12 652.14 332.12Q650.30 332.12 649.02 332.96Q647.74 333.80 647.08 335.38Q646.42 336.96 646.42 339.16Q646.42 341.20 647.06 342.78Q647.70 344.36 649.02 345.26Q650.34 346.16 652.38 346.16Q654.42 346.16 655.70 345.34Q656.98 344.52 657.34 343.32L662.46 343.32Q661.98 345.56 660.62 347.24Q659.26 348.92 657.16 349.84Q655.06 350.76 652.38 350.76M685.02 350L680.62 350L680.62 343.56L679.70 343.56L679.70 336.40Q679.70 334.52 678.78 333.60Q677.86 332.68 675.94 332.68Q674.94 332.68 673.54 332.72Q672.14 332.76 670.72 332.82Q669.30 332.88 668.18 332.96L668.18 328.24Q669.10 328.16 670.26 328.08Q671.42 328 672.64 327.98Q673.86 327.96 674.94 327.96Q678.30 327.96 680.52 328.84Q682.74 329.72 683.88 331.60Q685.02 333.48 685.02 336.52L685.02 350M673.62 350.56Q671.26 350.56 669.48 349.72Q667.70 348.88 666.72 347.32Q665.74 345.76 665.74 343.56Q665.74 341.16 666.92 339.64Q668.10 338.12 670.24 337.36Q672.38 336.60 675.26 336.60L680.30 336.60L680.30 339.92L675.18 339.92Q673.26 339.92 672.24 340.86Q671.22 341.80 671.22 343.28Q671.22 344.76 672.24 345.68Q673.26 346.60 675.18 346.60Q676.34 346.60 677.32 346.18Q678.30 345.76 678.96 344.74Q679.62 343.72 679.70 341.96L681.06 343.52Q680.86 345.80 679.96 347.36Q679.06 348.92 677.48 349.74Q675.90 350.56 673.62 350.56M699.98 350.72Q697.70 350.72 695.78 349.88Q693.86 349.04 692.46 347.52Q691.06 346 690.30 343.98Q689.54 341.96 689.54 339.60L689.54 338.76Q689.54 336.44 690.28 334.40Q691.02 332.36 692.36 330.84Q693.70 329.32 695.60 328.46Q697.50 327.60 699.82 327.60Q702.38 327.60 704.32 328.70Q706.26 329.80 707.42 332Q708.58 334.20 708.70 337.52L707.06 335.60L707.06 320.80L712.62 320.80L712.62 350L708.22 350L708.22 340.76L709.18 340.76Q709.06 344.08 707.82 346.30Q706.58 348.52 704.56 349.62Q702.54 350.72 699.98 350.72M701.22 346.04Q702.86 346.04 704.22 345.30Q705.58 344.56 706.40 343.14Q707.22 341.72 707.22 339.80L707.22 338.20Q707.22 336.28 706.38 334.98Q705.54 333.68 704.18 332.98Q702.82 332.28 701.22 332.28Q699.42 332.28 698.04 333.14Q696.66 334 695.88 335.56Q695.10 337.12 695.10 339.20Q695.10 341.28 695.90 342.82Q696.70 344.36 698.08 345.20Q699.46 346.04 701.22 346.04M745.14 350L740.74 350L740.74 343.56L739.82 343.56L739.82 336.40Q739.82 334.52 738.90 333.60Q737.98 332.68 736.06 332.68Q735.06 332.68 733.66 332.72Q732.26 332.76 730.84 332.82Q729.42 332.88 728.30 332.96L728.30 328.24Q729.22 328.16 730.38 328.08Q731.54 328 732.76 327.98Q733.98 327.96 735.06 327.96Q738.42 327.96 740.64 328.84Q742.86 329.72 744 331.60Q745.14 333.48 745.14 336.52L745.14 350M733.74 350.56Q731.38 350.56 729.60 349.72Q727.82 348.88 726.84 347.32Q725.86 345.76 725.86 343.56Q725.86 341.16 727.04 339.64Q728.22 338.12 730.36 337.36Q732.50 336.60 735.38 336.60L740.42 336.60L740.42 339.92L735.30 339.92Q733.38 339.92 732.36 340.86Q731.34 341.80 731.34 343.28Q731.34 344.76 732.36 345.68Q733.38 346.60 735.30 346.60Q736.46 346.60 737.44 346.18Q738.42 345.76 739.08 344.74Q739.74 343.72 739.82 341.96L741.18 343.52Q740.98 345.80 740.08 347.36Q739.18 348.92 737.60 349.74Q736.02 350.56 733.74 350.56M760.74 350.76Q757.90 350.76 755.84 349.80Q753.78 348.84 752.40 347.24Q751.02 345.64 750.34 343.64Q749.66 341.64 749.66 339.56L749.66 338.80Q749.66 336.60 750.36 334.58Q751.06 332.56 752.46 330.98Q753.86 329.40 755.92 328.46Q757.98 327.52 760.70 327.52Q763.54 327.52 765.78 328.62Q768.02 329.72 769.36 331.68Q770.70 333.64 770.86 336.24L765.46 336.24Q765.26 334.56 764.04 333.44Q762.82 332.32 760.70 332.32Q758.86 332.32 757.64 333.20Q756.42 334.08 755.82 335.62Q755.22 337.16 755.22 339.16Q755.22 341.08 755.80 342.64Q756.38 344.20 757.60 345.08Q758.82 345.96 760.74 345.96Q762.18 345.96 763.22 345.44Q764.26 344.92 764.88 344Q765.50 343.08 765.66 341.92L771.06 341.92Q770.90 344.56 769.52 346.54Q768.14 348.52 765.88 349.64Q763.62 350.76 760.74 350.76M788.06 350.28L784.94 350.28Q781.94 350.28 780 349.50Q778.06 348.72 777.10 346.86Q776.14 345 776.14 341.84L776.18 322.16L781.38 322.16L781.34 342.20Q781.34 343.80 782.20 344.66Q783.06 345.52 784.66 345.52L788.06 345.52L788.06 350.28M788.06 332.36L772.70 332.36L772.70 328.28L788.06 328.28L788.06 332.36M799.34 350L793.78 350L793.78 328.28L799.34 328.28L799.34 350M799.34 332.44L790.74 332.44L790.74 328.28L799.34 328.28L799.34 332.44M795.82 325.68Q794.18 325.68 793.40 324.82Q792.62 323.96 792.62 322.64Q792.62 321.32 793.40 320.48Q794.18 319.64 795.82 319.64Q797.46 319.64 798.22 320.48Q798.98 321.32 798.98 322.64Q798.98 323.96 798.22 324.82Q797.46 325.68 795.82 325.68M815.54 350L810.10 350L803.30 328.28L809.02 328.28L815.54 350M817.62 350L811.74 350L811.74 345.44L817.62 345.44L817.62 350M819.02 350L813.94 350L819.54 328.28L824.90 328.28L819.02 350M835.70 350L830.14 350L830.14 328.28L835.70 328.28L835.70 350M835.70 332.44L827.10 332.44L827.10 328.28L835.70 328.28L835.70 332.44M832.18 325.68Q830.54 325.68 829.76 324.82Q828.98 323.96 828.98 322.64Q828.98 321.32 829.76 320.48Q830.54 319.64 832.18 319.64Q833.82 319.64 834.58 320.48Q835.34 321.32 835.34 322.64Q835.34 323.96 834.58 324.82Q833.82 325.68 832.18 325.68M854.66 350.28L851.54 350.28Q848.54 350.28 846.60 349.50Q844.66 348.72 843.70 346.86Q842.74 345 842.74 341.84L842.78 322.16L847.98 322.16L847.94 342.20Q847.94 343.80 848.80 344.66Q849.66 345.52 851.26 345.52L854.66 345.52L854.66 350.28M854.66 332.36L839.30 332.36L839.30 328.28L854.66 328.28L854.66 332.36M862.26 358.56L858.70 358.56L858.70 353.80L862.78 353.80Q863.94 353.80 864.72 353.50Q865.50 353.20 866.02 352.54Q866.54 351.88 866.82 350.72L872.66 328.28L877.98 328.28L871.54 351.92Q870.90 354.36 869.74 355.82Q868.58 357.28 866.76 357.92Q864.94 358.56 862.26 358.56M870.10 349.52L865.46 349.52L865.46 345.12L870.10 345.12L870.10 349.52M868.82 349.52L863.58 349.52L856.54 328.28L862.14 328.28L868.82 349.52M885.70 350L879.46 350L879.46 343.60L885.70 343.60" fill="#E6E9FF" opacity="0.92"/>

  <!-- device frame -->
  <rect x="158" y="548" width="764" height="1324" rx="68" fill="#16142E"/>
  <rect x="180" y="570" width="720" height="1280" rx="48" fill="#EEF1FB"/>
  <!-- notch -->
  <rect x="470" y="564" width="140" height="22" rx="11" fill="#16142E"/>
  <!-- placeholder label -->
  <g fill="#9AA3C7" font-family="sans-serif" text-anchor="middle">
    <text x="540" y="1202" font-size="40" font-weight="700">Drop screenshot here</text>
    <text x="540" y="1254" font-size="32">5. Analytics</text>
    <text x="540" y="1306" font-size="26" opacity="0.8">1080 × 1920 (9:16)</text>
  </g>
</svg>
