<svg width="1080" height="1920" viewBox="0 0 1080 1920" fill="none" xmlns="http://www.w3.org/2000/svg">
  <defs>
    <linearGradient id="bg" x1="0" y1="0" x2="1080" y2="1920" gradientUnits="userSpaceOnUse">
      <stop stop-color="#7C79F2"/><stop offset="0.5" stop-color="#6366F1"/><stop offset="1" stop-color="#4B43DC"/>
    </linearGradient>
    <radialGradient id="glow" cx="0.5" cy="0.06" r="0.7">
      <stop stop-color="#AEB8FF" stop-opacity="0.45"/><stop offset="0.7" stop-color="#AEB8FF" stop-opacity="0"/>
    </radialGradient>
  </defs>
  <rect width="1080" height="1920" fill="url(#bg)"/>
  <rect width="1080" height="1920" fill="url(#glow)"/>
  <circle cx="120" cy="1700" r="200" fill="#ffffff" opacity="0.05"/>
  <circle cx="980" cy="120" r="150" fill="#ffffff" opacity="0.05"/>

  <!-- caption -->
  <path d="M72.22 251.16Q66.18 251.16 62.03 249.24Q57.89 247.32 55.75 243.99Q53.62 240.67 53.62 236.34L63.32 236.34Q63.32 238.04 64.26 239.51Q65.21 240.97 67.16 241.86Q69.11 242.74 72.22 242.74Q75.03 242.74 76.92 242.01Q78.81 241.28 79.79 239.97Q80.76 238.65 80.76 236.95Q80.76 234.81 78.93 233.56Q77.10 232.31 73.01 231.94L69.66 231.64Q63.01 231.09 59.05 227.49Q55.08 223.89 55.08 217.97Q55.08 213.70 57.12 210.59Q59.17 207.48 62.83 205.81Q66.49 204.13 71.49 204.13Q76.74 204.13 80.49 205.93Q84.24 207.73 86.25 210.99Q88.26 214.25 88.26 218.65L78.50 218.65Q78.50 217 77.71 215.63Q76.92 214.25 75.36 213.40Q73.81 212.55 71.49 212.55Q69.29 212.55 67.80 213.28Q66.30 214.01 65.57 215.26Q64.84 216.51 64.84 217.97Q64.84 219.87 66.18 221.27Q67.52 222.67 70.57 222.92L73.99 223.22Q78.87 223.65 82.59 225.33Q86.31 227 88.42 229.90Q90.52 232.80 90.52 236.95Q90.52 241.22 88.29 244.42Q86.07 247.62 81.98 249.39Q77.89 251.16 72.22 251.16M116.75 250.43L112.05 250.43Q106.99 250.43 103.88 249.18Q100.77 247.93 99.34 244.97Q97.90 242.01 97.90 236.95L97.90 207.54L106.99 207.54L106.99 237.31Q106.99 239.69 108.24 240.94Q109.49 242.19 111.81 242.19L116.75 242.19L116.75 250.43M116.75 223.71L92.84 223.71L92.84 216.57L116.75 216.57L116.75 223.71M151.16 250L143.41 250L143.41 240.12L141.76 240.12L141.76 229.38Q141.76 226.82 140.54 225.54Q139.32 224.26 136.64 224.26Q135.30 224.26 133.10 224.32Q130.90 224.38 128.59 224.50Q126.27 224.62 124.38 224.75L124.38 216.51Q125.78 216.39 127.67 216.27Q129.56 216.15 131.57 216.08Q133.59 216.02 135.36 216.02Q140.48 216.02 143.99 217.49Q147.50 218.95 149.33 221.91Q151.16 224.87 151.16 229.50L151.16 250M132.73 250.85Q129.13 250.85 126.42 249.57Q123.71 248.29 122.18 245.88Q120.66 243.47 120.66 240.12Q120.66 236.46 122.55 234.11Q124.44 231.76 127.85 230.63Q131.27 229.50 135.72 229.50L142.86 229.50L142.86 234.93L135.66 234.93Q133.10 234.93 131.73 236.18Q130.35 237.43 130.35 239.57Q130.35 241.58 131.73 242.83Q133.10 244.08 135.66 244.08Q137.31 244.08 138.62 243.50Q139.93 242.92 140.79 241.52Q141.64 240.12 141.76 237.62L144.08 240.06Q143.77 243.53 142.40 245.91Q141.03 248.29 138.62 249.57Q136.21 250.85 132.73 250.85M169.21 250L159.45 250L159.45 216.57L167.20 216.57L167.20 230.91L166.65 230.91Q166.65 225.78 167.96 222.37Q169.27 218.95 171.96 217.24Q174.64 215.53 178.48 215.53L178.91 215.53Q184.77 215.53 187.85 219.35Q190.93 223.16 190.93 230.91L190.93 250L181.17 250L181.17 230.36Q181.17 227.67 179.58 225.97Q178 224.26 175.31 224.26Q172.57 224.26 170.89 226Q169.21 227.74 169.21 230.54L169.21 250M213.01 251.10Q209.47 251.10 206.57 249.82Q203.68 248.54 201.54 246.25Q199.41 243.96 198.28 240.85Q197.15 237.74 197.15 234.14L197.15 232.74Q197.15 229.14 198.22 226.03Q199.28 222.92 201.33 220.57Q203.37 218.22 206.24 216.91Q209.11 215.60 212.64 215.60Q216.67 215.60 219.60 217.33Q222.53 219.07 224.17 222.46Q225.82 225.84 226 230.78L223.44 228.41L223.44 205.47L233.26 205.47L233.26 250L225.51 250L225.51 236.15L226.86 236.15Q226.67 240.91 224.87 244.27Q223.07 247.62 220.02 249.36Q216.97 251.10 213.01 251.10M215.45 242.92Q217.71 242.92 219.57 241.92Q221.43 240.91 222.56 238.96Q223.68 237.01 223.68 234.26L223.68 232Q223.68 229.32 222.53 227.49Q221.37 225.66 219.48 224.69Q217.58 223.71 215.39 223.71Q212.95 223.71 211.03 224.96Q209.11 226.21 208.01 228.38Q206.91 230.54 206.91 233.41Q206.91 236.34 208.01 238.47Q209.11 240.61 211.06 241.76Q213.01 242.92 215.45 242.92M271.20 251.16Q266.81 251.16 263.40 249.79Q259.98 248.41 257.63 246.03Q255.28 243.66 254.06 240.58Q252.84 237.50 252.84 234.08L252.84 232.68Q252.84 229.20 254.09 226.06Q255.34 222.92 257.75 220.54Q260.16 218.16 263.58 216.79Q266.99 215.41 271.20 215.41Q275.53 215.41 278.92 216.79Q282.31 218.16 284.68 220.54Q287.06 222.92 288.34 226.06Q289.63 229.20 289.63 232.68L289.63 234.08Q289.63 237.50 288.41 240.58Q287.19 243.66 284.84 246.03Q282.49 248.41 279.07 249.79Q275.66 251.16 271.20 251.16M271.20 242.92Q274.07 242.92 275.96 241.70Q277.85 240.48 278.86 238.29Q279.87 236.09 279.87 233.41Q279.87 230.54 278.83 228.38Q277.79 226.21 275.87 224.93Q273.95 223.65 271.20 223.65Q268.52 223.65 266.57 224.93Q264.62 226.21 263.61 228.38Q262.60 230.54 262.60 233.41Q262.60 236.09 263.58 238.29Q264.55 240.48 266.51 241.70Q268.46 242.92 271.20 242.92M308.17 251.04L307.74 251.04Q301.95 251.04 298.84 247.29Q295.73 243.53 295.73 235.97L295.73 216.57L305.49 216.57L305.49 236.46Q305.49 239.14 307.01 240.73Q308.54 242.31 311.10 242.31Q313.72 242.31 315.37 240.67Q317.01 239.02 317.01 236.21L317.01 216.57L326.77 216.57L326.77 250L319.03 250L319.03 235.91L319.70 235.91Q319.70 240.97 318.39 244.36Q317.08 247.74 314.51 249.39Q311.95 251.04 308.17 251.04M355.69 250.43L350.99 250.43Q345.93 250.43 342.82 249.18Q339.71 247.93 338.27 244.97Q336.84 242.01 336.84 236.95L336.84 207.54L345.93 207.54L345.93 237.31Q345.93 239.69 347.18 240.94Q348.43 242.19 350.75 242.19L355.69 242.19L355.69 250.43M355.69 223.71L331.78 223.71L331.78 216.57L355.69 216.57L355.69 223.71M394.18 250L387.35 250L393.45 217.67L404.12 217.67L411.20 250L403.63 250L396.38 217.91L400.71 217.91L394.18 250M391.74 250L385.03 250L384.97 241.89L391.68 241.89L391.74 250M389.60 250L380.64 250L371.67 216.57L381.25 216.57L389.60 250M412.91 250L406.14 250L406.20 241.89L412.91 241.89L412.91 250M417.24 250L408.88 250L416.32 216.57L425.29 216.57L417.24 250M442.67 250L432.91 250L432.91 216.57L442.67 216.57L442.67 250M442.67 223.77L428.46 223.77L428.46 216.57L442.67 216.57L442.67 223.77M436.70 213.28Q433.95 213.28 432.64 211.84Q431.33 210.41 431.33 208.22Q431.33 205.96 432.64 204.52Q433.95 203.09 436.70 203.09Q439.44 203.09 440.75 204.52Q442.06 205.96 442.06 208.22Q442.06 210.41 440.75 211.84Q439.44 213.28 436.70 213.28M471.59 250.43L466.89 250.43Q461.83 250.43 458.72 249.18Q455.61 247.93 454.17 244.97Q452.74 242.01 452.74 236.95L452.74 207.54L461.83 207.54L461.83 237.31Q461.83 239.69 463.08 240.94Q464.33 242.19 466.65 242.19L471.59 242.19L471.59 250.43M471.59 223.71L447.68 223.71L447.68 216.57L471.59 216.57L471.59 223.71M487.94 250L478.18 250L478.18 205.47L487.94 205.47L487.94 231.15L486.47 231.15Q486.47 226.09 487.75 222.61Q489.03 219.13 491.54 217.33Q494.04 215.53 497.82 215.53L498.25 215.53Q503.80 215.53 506.72 219.47Q509.65 223.40 509.65 230.97L509.65 250L499.89 250L499.89 230.36Q499.89 227.61 498.28 225.94Q496.66 224.26 494.04 224.26Q491.29 224.26 489.61 226.03Q487.94 227.80 487.94 230.72L487.94 250M543.93 263.30Q541.49 263.30 538.93 263.12Q536.37 262.93 534.24 262.63L534.24 254.39Q536.37 254.70 538.96 254.91Q541.56 255.12 543.69 255.12Q547.66 255.12 550.13 254.21Q552.60 253.29 553.76 251.43Q554.91 249.57 554.91 246.65L554.91 240L556.68 236.09Q556.56 240.54 554.94 243.72Q553.33 246.89 550.46 248.57Q547.59 250.24 543.63 250.24Q540.21 250.24 537.44 248.99Q534.66 247.74 532.71 245.49Q530.76 243.23 529.72 240.21Q528.68 237.19 528.68 233.65L528.68 232.25Q528.68 228.71 529.78 225.66Q530.88 222.61 532.95 220.35Q535.03 218.10 537.90 216.85Q540.76 215.60 544.24 215.60Q548.27 215.60 551.22 217.37Q554.18 219.13 555.89 222.55Q557.60 225.97 557.72 230.78L556.38 231.15L556.38 216.57L564.13 216.57L564.13 246.03Q564.13 252.20 561.93 255.98Q559.73 259.76 555.25 261.53Q550.77 263.30 543.93 263.30M546.68 242.01Q548.94 242.01 550.77 241Q552.60 240 553.66 238.10Q554.73 236.21 554.73 233.53L554.73 231.76Q554.73 229.14 553.60 227.34Q552.47 225.54 550.64 224.59Q548.81 223.65 546.74 223.65Q544.30 223.65 542.41 224.81Q540.52 225.97 539.48 228.04Q538.44 230.11 538.44 232.92Q538.44 235.79 539.51 237.83Q540.58 239.87 542.44 240.94Q544.30 242.01 546.68 242.01M582.36 250L572.60 250L572.60 216.57L580.35 216.57L580.35 230.91L580.17 230.91Q580.17 223.83 583.19 219.99Q586.21 216.15 591.94 216.15L593.22 216.15L593.22 224.56L590.78 224.56Q586.76 224.56 584.56 226.73Q582.36 228.89 582.36 232.98L582.36 250M613.41 251.16Q609.14 251.16 605.88 249.69Q602.62 248.23 600.45 245.76Q598.29 243.29 597.16 240.21Q596.03 237.13 596.03 233.90L596.03 232.68Q596.03 229.32 597.16 226.24Q598.29 223.16 600.42 220.72Q602.56 218.28 605.76 216.85Q608.96 215.41 613.05 215.41Q618.42 215.41 622.11 217.82Q625.80 220.23 627.75 224.11Q629.70 227.98 629.70 232.55L629.70 235.85L600.12 235.85L600.12 230.30L623.78 230.30L620.61 232.86Q620.61 229.87 619.76 227.74Q618.90 225.60 617.23 224.47Q615.55 223.34 613.05 223.34Q610.49 223.34 608.72 224.50Q606.95 225.66 606.03 227.89Q605.12 230.11 605.12 233.35Q605.12 236.34 605.97 238.56Q606.83 240.79 608.66 242.01Q610.49 243.23 613.41 243.23Q616.10 243.23 617.81 242.19Q619.51 241.16 620.12 239.63L629.09 239.63Q628.36 242.99 626.22 245.61Q624.09 248.23 620.86 249.69Q617.62 251.16 613.41 251.16M664.10 250L656.36 250L656.36 240.12L654.71 240.12L654.71 229.38Q654.71 226.82 653.49 225.54Q652.27 224.26 649.59 224.26Q648.24 224.26 646.05 224.32Q643.85 224.38 641.53 224.50Q639.22 224.62 637.33 224.75L637.33 216.51Q638.73 216.39 640.62 216.27Q642.51 216.15 644.52 216.08Q646.54 216.02 648.31 216.02Q653.43 216.02 656.94 217.49Q660.44 218.95 662.27 221.91Q664.10 224.87 664.10 229.50L664.10 250M645.68 250.85Q642.08 250.85 639.37 249.57Q636.65 248.29 635.13 245.88Q633.60 243.47 633.60 240.12Q633.60 236.46 635.50 234.11Q637.39 231.76 640.80 230.63Q644.22 229.50 648.67 229.50L655.81 229.50L655.81 234.93L648.61 234.93Q646.05 234.93 644.68 236.18Q643.30 237.43 643.30 239.57Q643.30 241.58 644.68 242.83Q646.05 244.08 648.61 244.08Q650.26 244.08 651.57 243.50Q652.88 242.92 653.73 241.52Q654.59 240.12 654.71 237.62L657.03 240.06Q656.72 243.53 655.35 245.91Q653.98 248.29 651.57 249.57Q649.16 250.85 645.68 250.85M692.29 250.43L687.59 250.43Q682.53 250.43 679.42 249.18Q676.30 247.93 674.87 244.97Q673.44 242.01 673.44 236.95L673.44 207.54L682.53 207.54L682.53 237.31Q682.53 239.69 683.78 240.94Q685.03 242.19 687.35 242.19L692.29 242.19L692.29 250.43M692.29 223.71L668.37 223.71L668.37 216.57L692.29 216.57L692.29 223.71M731.57 250.43L726.87 250.43Q721.81 250.43 718.70 249.18Q715.59 247.93 714.15 244.97Q712.72 242.01 712.72 236.95L712.72 207.54L721.81 207.54L721.81 237.31Q721.81 239.69 723.06 240.94Q724.31 242.19 726.63 242.19L731.57 242.19L731.57 250.43M731.57 223.71L707.66 223.71L707.66 216.57L731.57 216.57L731.57 223.71M753.35 251.16Q749.08 251.16 745.81 249.69Q742.55 248.23 740.39 245.76Q738.22 243.29 737.09 240.21Q735.96 237.13 735.96 233.90L735.96 232.68Q735.96 229.32 737.09 226.24Q738.22 223.16 740.35 220.72Q742.49 218.28 745.69 216.85Q748.89 215.41 752.98 215.41Q758.35 215.41 762.04 217.82Q765.73 220.23 767.68 224.11Q769.63 227.98 769.63 232.55L769.63 235.85L740.05 235.85L740.05 230.30L763.72 230.30L760.55 232.86Q760.55 229.87 759.69 227.74Q758.84 225.60 757.16 224.47Q755.48 223.34 752.98 223.34Q750.42 223.34 748.65 224.50Q746.88 225.66 745.97 227.89Q745.05 230.11 745.05 233.35Q745.05 236.34 745.91 238.56Q746.76 240.79 748.59 242.01Q750.42 243.23 753.35 243.23Q756.03 243.23 757.74 242.19Q759.45 241.16 760.06 239.63L769.02 239.63Q768.29 242.99 766.16 245.61Q764.02 248.23 760.79 249.69Q757.56 251.16 753.35 251.16M785.86 250L776.10 250L776.10 216.57L783.85 216.57L783.85 230.97L783.30 230.97Q783.30 225.84 784.58 222.43Q785.86 219.01 788.42 217.27Q790.98 215.53 794.71 215.53L795.13 215.53Q798.91 215.53 801.45 217.27Q803.98 219.01 805.29 222.43Q806.60 225.84 806.60 230.97L804.22 230.97Q804.22 225.84 805.53 222.43Q806.84 219.01 809.41 217.27Q811.97 215.53 815.69 215.53L816.12 215.53Q819.90 215.53 822.49 217.27Q825.08 219.01 826.43 222.43Q827.77 225.84 827.77 230.97L827.77 250L818.01 250L818.01 230.42Q818.01 227.67 816.57 225.97Q815.14 224.26 812.52 224.26Q809.89 224.26 808.37 226Q806.84 227.74 806.84 230.60L806.84 250L797.02 250L797.02 230.42Q797.02 227.67 795.59 225.97Q794.16 224.26 791.59 224.26Q788.91 224.26 787.39 226Q785.86 227.74 785.86 230.60L785.86 250M845.82 262.20L836.06 262.20L836.06 216.57L843.81 216.57L843.81 231.03L842.77 230.97Q843.02 225.97 844.85 222.52Q846.68 219.07 849.79 217.33Q852.90 215.60 856.80 215.60Q860.28 215.60 863.12 216.88Q865.95 218.16 868 220.45Q870.04 222.73 871.11 225.81Q872.18 228.89 872.18 232.55L872.18 233.96Q872.18 237.56 871.14 240.70Q870.10 243.84 868.12 246.16Q866.14 248.47 863.30 249.79Q860.46 251.10 856.80 251.10Q853.02 251.10 850 249.54Q846.98 247.99 845.15 244.78Q843.32 241.58 843.14 236.64L845.82 240.30L845.82 262.20M854.06 242.92Q856.56 242.92 858.42 241.70Q860.28 240.48 861.32 238.29Q862.35 236.09 862.35 233.22Q862.35 230.36 861.32 228.22Q860.28 226.09 858.45 224.90Q856.62 223.71 854.06 223.71Q851.86 223.71 849.91 224.75Q847.96 225.78 846.77 227.70Q845.58 229.63 845.58 232.37L845.58 234.63Q845.58 237.25 846.83 239.11Q848.08 240.97 850.03 241.95Q851.98 242.92 854.06 242.92M889.19 250L879.37 250L879.37 205.47L889.19 205.47L889.19 250M889.19 212.67L875.41 212.67L875.41 205.47L889.19 205.47L889.19 212.67M926.10 250L918.35 250L918.35 240.12L916.71 240.12L916.71 229.38Q916.71 226.82 915.49 225.54Q914.27 224.26 911.58 224.26Q910.24 224.26 908.04 224.32Q905.85 224.38 903.53 224.50Q901.21 224.62 899.32 224.75L899.32 216.51Q900.72 216.39 902.61 216.27Q904.51 216.15 906.52 216.08Q908.53 216.02 910.30 216.02Q915.42 216.02 918.93 217.49Q922.44 218.95 924.27 221.91Q926.10 224.87 926.10 229.50L926.10 250M907.68 250.85Q904.08 250.85 901.36 249.57Q898.65 248.29 897.12 245.88Q895.60 243.47 895.60 240.12Q895.60 236.46 897.49 234.11Q899.38 231.76 902.80 230.63Q906.21 229.50 910.67 229.50L917.80 229.50L917.80 234.93L910.61 234.93Q908.04 234.93 906.67 236.18Q905.30 237.43 905.30 239.57Q905.30 241.58 906.67 242.83Q908.04 244.08 910.61 244.08Q912.25 244.08 913.56 243.50Q914.88 242.92 915.73 241.52Q916.58 240.12 916.71 237.62L919.02 240.06Q918.72 243.53 917.35 245.91Q915.97 248.29 913.56 249.57Q911.15 250.85 907.68 250.85M954.28 250.43L949.58 250.43Q944.52 250.43 941.41 249.18Q938.30 247.93 936.87 244.97Q935.43 242.01 935.43 236.95L935.43 207.54L944.52 207.54L944.52 237.31Q944.52 239.69 945.77 240.94Q947.02 242.19 949.34 242.19L954.28 242.19L954.28 250.43M954.28 223.71L930.37 223.71L930.37 216.57L954.28 216.57L954.28 223.71M976.06 251.16Q971.79 251.16 968.53 249.69Q965.26 248.23 963.10 245.76Q960.93 243.29 959.80 240.21Q958.67 237.13 958.67 233.90L958.67 232.68Q958.67 229.32 959.80 226.24Q960.93 223.16 963.07 220.72Q965.20 218.28 968.40 216.85Q971.61 215.41 975.69 215.41Q981.06 215.41 984.75 217.82Q988.44 220.23 990.39 224.11Q992.35 227.98 992.35 232.55L992.35 235.85L962.76 235.85L962.76 230.30L986.43 230.30L983.26 232.86Q983.26 229.87 982.40 227.74Q981.55 225.60 979.87 224.47Q978.19 223.34 975.69 223.34Q973.13 223.34 971.36 224.50Q969.59 225.66 968.68 227.89Q967.76 230.11 967.76 233.35Q967.76 236.34 968.62 238.56Q969.47 240.79 971.30 242.01Q973.13 243.23 976.06 243.23Q978.74 243.23 980.45 242.19Q982.16 241.16 982.77 239.63L991.74 239.63Q991 242.99 988.87 245.61Q986.73 248.23 983.50 249.69Q980.27 251.16 976.06 251.16M1011.50 251.04Q1004.36 251.04 1000.34 248.11Q996.31 245.18 996.07 239.87L1004.73 239.87Q1004.97 241.46 1006.65 242.71Q1008.33 243.96 1011.68 243.96Q1014.24 243.96 1015.92 243.08Q1017.60 242.19 1017.60 240.54Q1017.60 239.08 1016.32 238.20Q1015.04 237.31 1011.74 236.95L1009.12 236.70Q1003.08 236.09 1000.06 233.35Q997.04 230.60 997.04 226.33Q997.04 222.79 998.81 220.41Q1000.58 218.04 1003.72 216.82Q1006.86 215.60 1010.89 215.60Q1017.36 215.60 1021.32 218.43Q1025.29 221.27 1025.47 226.64L1016.81 226.64Q1016.56 224.99 1015.10 223.86Q1013.63 222.73 1010.77 222.73Q1008.51 222.73 1007.17 223.59Q1005.83 224.44 1005.83 225.91Q1005.83 227.31 1006.99 228.04Q1008.14 228.77 1010.77 229.08L1013.39 229.32Q1019.55 229.99 1022.97 232.74Q1026.38 235.48 1026.38 240.12Q1026.38 243.47 1024.55 245.94Q1022.72 248.41 1019.37 249.73Q1016.01 251.04 1011.50 251.04" fill="#ffffff"/>
  <path d="M273.80 339.55L268.12 339.55L268.12 310.35L273.80 310.35L273.80 339.55M284.68 327.35L273 327.39L273 322.59L284.68 322.55L284.68 327.35M285.24 315.15L273 315.15L273 310.35L285.24 310.35L285.24 315.15M295.36 339.55L289.80 339.55L289.80 317.83L294.20 317.83L294.20 327.03L294.08 327.03Q294.08 322.35 296.08 319.95Q298.08 317.55 301.96 317.55L302.76 317.55L302.76 322.39L301.24 322.39Q298.44 322.39 296.90 323.89Q295.36 325.39 295.36 328.23L295.36 339.55M316.04 340.31Q313.24 340.31 311.14 339.35Q309.04 338.39 307.66 336.77Q306.28 335.15 305.58 333.15Q304.88 331.15 304.88 329.07L304.88 328.31Q304.88 326.15 305.58 324.13Q306.28 322.11 307.66 320.53Q309.04 318.95 311.08 318.01Q313.12 317.07 315.80 317.07Q319.32 317.07 321.70 318.61Q324.08 320.15 325.28 322.65Q326.48 325.15 326.48 328.03L326.48 330.03L307.24 330.03L307.24 326.63L323 326.63L321.28 328.31Q321.28 326.23 320.68 324.75Q320.08 323.27 318.86 322.47Q317.64 321.67 315.80 321.67Q313.96 321.67 312.68 322.51Q311.40 323.35 310.74 324.93Q310.08 326.51 310.08 328.71Q310.08 330.75 310.72 332.33Q311.36 333.91 312.68 334.81Q314 335.71 316.04 335.71Q318.08 335.71 319.36 334.89Q320.64 334.07 321 332.87L326.12 332.87Q325.64 335.11 324.28 336.79Q322.92 338.47 320.82 339.39Q318.72 340.31 316.04 340.31M340.84 340.31Q338.04 340.31 335.94 339.35Q333.84 338.39 332.46 336.77Q331.08 335.15 330.38 333.15Q329.68 331.15 329.68 329.07L329.68 328.31Q329.68 326.15 330.38 324.13Q331.08 322.11 332.46 320.53Q333.84 318.95 335.88 318.01Q337.92 317.07 340.60 317.07Q344.12 317.07 346.50 318.61Q348.88 320.15 350.08 322.65Q351.28 325.15 351.28 328.03L351.28 330.03L332.04 330.03L332.04 326.63L347.80 326.63L346.08 328.31Q346.08 326.23 345.48 324.75Q344.88 323.27 343.66 322.47Q342.44 321.67 340.60 321.67Q338.76 321.67 337.48 322.51Q336.20 323.35 335.54 324.93Q334.88 326.51 334.88 328.71Q334.88 330.75 335.52 332.33Q336.16 333.91 337.48 334.81Q338.80 335.71 340.84 335.71Q342.88 335.71 344.16 334.89Q345.44 334.07 345.80 332.87L350.92 332.87Q350.44 335.11 349.08 336.79Q347.72 338.47 345.62 339.39Q343.52 340.31 340.84 340.31M382.12 339.55L377.72 339.55L377.72 333.11L376.80 333.11L376.80 325.95Q376.80 324.07 375.88 323.15Q374.96 322.23 373.04 322.23Q372.04 322.23 370.64 322.27Q369.24 322.31 367.82 322.37Q366.40 322.43 365.28 322.51L365.28 317.79Q366.20 317.71 367.36 317.63Q368.52 317.55 369.74 317.53Q370.96 317.51 372.04 317.51Q375.40 317.51 377.62 318.39Q379.84 319.27 380.98 321.15Q382.12 323.03 382.12 326.07L382.12 339.55M370.72 340.11Q368.36 340.11 366.58 339.27Q364.80 338.43 363.82 336.87Q362.84 335.31 362.84 333.11Q362.84 330.71 364.02 329.19Q365.20 327.67 367.34 326.91Q369.48 326.15 372.36 326.15L377.40 326.15L377.40 329.47L372.28 329.47Q370.36 329.47 369.34 330.41Q368.32 331.35 368.32 332.83Q368.32 334.31 369.34 335.23Q370.36 336.15 372.28 336.15Q373.44 336.15 374.42 335.73Q375.40 335.31 376.06 334.29Q376.72 333.27 376.80 331.51L378.16 333.07Q377.96 335.35 377.06 336.91Q376.16 338.47 374.58 339.29Q373 340.11 370.72 340.11M393.64 339.55L388.08 339.55L388.08 317.83L392.48 317.83L392.48 327.15L392.08 327.15Q392.08 323.83 392.96 321.61Q393.84 319.39 395.58 318.27Q397.32 317.15 399.92 317.15L400.16 317.15Q404.04 317.15 406.04 319.65Q408.04 322.15 408.04 327.11L408.04 339.55L402.48 339.55L402.48 326.63Q402.48 324.63 401.34 323.39Q400.20 322.15 398.20 322.15Q396.16 322.15 394.90 323.41Q393.64 324.67 393.64 326.79L393.64 339.55M423 340.27Q420.72 340.27 418.80 339.43Q416.88 338.59 415.48 337.07Q414.08 335.55 413.32 333.53Q412.56 331.51 412.56 329.15L412.56 328.31Q412.56 325.99 413.30 323.95Q414.04 321.91 415.38 320.39Q416.72 318.87 418.62 318.01Q420.52 317.15 422.84 317.15Q425.40 317.15 427.34 318.25Q429.28 319.35 430.44 321.55Q431.60 323.75 431.72 327.07L430.08 325.15L430.08 310.35L435.64 310.35L435.64 339.55L431.24 339.55L431.24 330.31L432.20 330.31Q432.08 333.63 430.84 335.85Q429.60 338.07 427.58 339.17Q425.56 340.27 423 340.27M424.24 335.59Q425.88 335.59 427.24 334.85Q428.60 334.11 429.42 332.69Q430.24 331.27 430.24 329.35L430.24 327.75Q430.24 325.83 429.40 324.53Q428.56 323.23 427.20 322.53Q425.84 321.83 424.24 321.83Q422.44 321.83 421.06 322.69Q419.68 323.55 418.90 325.11Q418.12 326.67 418.12 328.75Q418.12 330.83 418.92 332.37Q419.72 333.91 421.10 334.75Q422.48 335.59 424.24 335.59M456.16 347.55L450.60 347.55L450.60 317.83L455 317.83L455 327.19L454.32 327.15Q454.48 323.83 455.70 321.59Q456.92 319.35 458.96 318.25Q461 317.15 463.52 317.15Q465.84 317.15 467.70 317.99Q469.56 318.83 470.90 320.35Q472.24 321.87 472.96 323.89Q473.68 325.91 473.68 328.23L473.68 329.07Q473.68 331.43 472.98 333.45Q472.28 335.47 470.94 337.01Q469.60 338.55 467.72 339.41Q465.84 340.27 463.52 340.27Q461.08 340.27 459.06 339.25Q457.04 338.23 455.80 336.09Q454.56 333.95 454.40 330.55L456.16 333.23L456.16 347.55M462.12 335.59Q463.92 335.59 465.26 334.71Q466.60 333.83 467.36 332.25Q468.12 330.67 468.12 328.67Q468.12 326.59 467.36 325.07Q466.60 323.55 465.26 322.69Q463.92 321.83 462.12 321.83Q460.48 321.83 459.10 322.55Q457.72 323.27 456.86 324.67Q456 326.07 456 328.03L456 329.63Q456 331.51 456.88 332.83Q457.76 334.15 459.16 334.87Q460.56 335.59 462.12 335.59M484.12 339.55L478.56 339.55L478.56 317.83L482.96 317.83L482.96 327.03L482.84 327.03Q482.84 322.35 484.84 319.95Q486.84 317.55 490.72 317.55L491.52 317.55L491.52 322.39L490 322.39Q487.20 322.39 485.66 323.89Q484.12 325.39 484.12 328.23L484.12 339.55M504.80 340.31Q502 340.31 499.90 339.35Q497.80 338.39 496.42 336.77Q495.04 335.15 494.34 333.15Q493.64 331.15 493.64 329.07L493.64 328.31Q493.64 326.15 494.34 324.13Q495.04 322.11 496.42 320.53Q497.80 318.95 499.84 318.01Q501.88 317.07 504.56 317.07Q508.08 317.07 510.46 318.61Q512.84 320.15 514.04 322.65Q515.24 325.15 515.24 328.03L515.24 330.03L496 330.03L496 326.63L511.76 326.63L510.04 328.31Q510.04 326.23 509.44 324.75Q508.84 323.27 507.62 322.47Q506.40 321.67 504.56 321.67Q502.72 321.67 501.44 322.51Q500.16 323.35 499.50 324.93Q498.84 326.51 498.84 328.71Q498.84 330.75 499.48 332.33Q500.12 333.91 501.44 334.81Q502.76 335.71 504.80 335.71Q506.84 335.71 508.12 334.89Q509.40 334.07 509.76 332.87L514.88 332.87Q514.40 335.11 513.04 336.79Q511.68 338.47 509.58 339.39Q507.48 340.31 504.80 340.31M525.44 339.55L519.88 339.55L519.88 317.83L524.28 317.83L524.28 327.15L523.88 327.15Q523.88 323.87 524.72 321.65Q525.56 319.43 527.22 318.29Q528.88 317.15 531.36 317.15L531.60 317.15Q534.12 317.15 535.78 318.29Q537.44 319.43 538.26 321.65Q539.08 323.87 539.08 327.15L537.68 327.15Q537.68 323.87 538.54 321.65Q539.40 319.43 541.06 318.29Q542.72 317.15 545.20 317.15L545.44 317.15Q547.96 317.15 549.64 318.29Q551.32 319.43 552.18 321.65Q553.04 323.87 553.04 327.15L553.04 339.55L547.48 339.55L547.48 326.63Q547.48 324.59 546.44 323.37Q545.40 322.15 543.48 322.15Q541.56 322.15 540.40 323.41Q539.24 324.67 539.24 326.79L539.24 339.55L533.68 339.55L533.68 326.63Q533.68 324.59 532.64 323.37Q531.60 322.15 529.68 322.15Q527.76 322.15 526.60 323.41Q525.44 324.67 525.44 326.79L525.44 339.55M565.60 339.55L560.04 339.55L560.04 317.83L565.60 317.83L565.60 339.55M565.60 321.99L557 321.99L557 317.83L565.60 317.83L565.60 321.99M562.08 315.23Q560.44 315.23 559.66 314.37Q558.88 313.51 558.88 312.19Q558.88 310.87 559.66 310.03Q560.44 309.19 562.08 309.19Q563.72 309.19 564.48 310.03Q565.24 310.87 565.24 312.19Q565.24 313.51 564.48 314.37Q563.72 315.23 562.08 315.23M579.64 340.23L579.40 340.23Q575.64 340.23 573.58 337.75Q571.52 335.27 571.52 330.39L571.52 317.79L577.08 317.79L577.08 330.87Q577.08 332.87 578.20 334.05Q579.32 335.23 581.24 335.23Q583.16 335.23 584.38 333.99Q585.60 332.75 585.60 330.63L585.60 317.79L591.16 317.79L591.16 339.55L586.76 339.55L586.76 330.31L587.20 330.31Q587.20 333.59 586.36 335.79Q585.52 337.99 583.84 339.11Q582.16 340.23 579.64 340.23M603.12 339.55L597.56 339.55L597.56 317.83L601.96 317.83L601.96 327.15L601.56 327.15Q601.56 323.87 602.40 321.65Q603.24 319.43 604.90 318.29Q606.56 317.15 609.04 317.15L609.28 317.15Q611.80 317.15 613.46 318.29Q615.12 319.43 615.94 321.65Q616.76 323.87 616.76 327.15L615.36 327.15Q615.36 323.87 616.22 321.65Q617.08 319.43 618.74 318.29Q620.40 317.15 622.88 317.15L623.12 317.15Q625.64 317.15 627.32 318.29Q629 319.43 629.86 321.65Q630.72 323.87 630.72 327.15L630.72 339.55L625.16 339.55L625.16 326.63Q625.16 324.59 624.12 323.37Q623.08 322.15 621.16 322.15Q619.24 322.15 618.08 323.41Q616.92 324.67 616.92 326.79L616.92 339.55L611.36 339.55L611.36 326.63Q611.36 324.59 610.32 323.37Q609.28 322.15 607.36 322.15Q605.44 322.15 604.28 323.41Q603.12 324.67 603.12 326.79L603.12 339.55M654.32 340.27Q652.04 340.27 650.12 339.43Q648.20 338.59 646.80 337.07Q645.40 335.55 644.64 333.53Q643.88 331.51 643.88 329.15L643.88 328.31Q643.88 325.99 644.62 323.95Q645.36 321.91 646.70 320.39Q648.04 318.87 649.94 318.01Q651.84 317.15 654.16 317.15Q656.72 317.15 658.66 318.25Q660.60 319.35 661.76 321.55Q662.92 323.75 663.04 327.07L661.40 325.15L661.40 310.35L666.96 310.35L666.96 339.55L662.56 339.55L662.56 330.31L663.52 330.31Q663.40 333.63 662.16 335.85Q660.92 338.07 658.90 339.17Q656.88 340.27 654.32 340.27M655.56 335.59Q657.20 335.59 658.56 334.85Q659.92 334.11 660.74 332.69Q661.56 331.27 661.56 329.35L661.56 327.75Q661.56 325.83 660.72 324.53Q659.88 323.23 658.52 322.53Q657.16 321.83 655.56 321.83Q653.76 321.83 652.38 322.69Q651 323.55 650.22 325.11Q649.44 326.67 649.44 328.75Q649.44 330.83 650.24 332.37Q651.04 333.91 652.42 334.75Q653.80 335.59 655.56 335.59M683 340.31Q680.20 340.31 678.10 339.35Q676 338.39 674.62 336.77Q673.24 335.15 672.54 333.15Q671.84 331.15 671.84 329.07L671.84 328.31Q671.84 326.15 672.54 324.13Q673.24 322.11 674.62 320.53Q676 318.95 678.04 318.01Q680.08 317.07 682.76 317.07Q686.28 317.07 688.66 318.61Q691.04 320.15 692.24 322.65Q693.44 325.15 693.44 328.03L693.44 330.03L674.20 330.03L674.20 326.63L689.96 326.63L688.24 328.31Q688.24 326.23 687.64 324.75Q687.04 323.27 685.82 322.47Q684.60 321.67 682.76 321.67Q680.92 321.67 679.64 322.51Q678.36 323.35 677.70 324.93Q677.04 326.51 677.04 328.71Q677.04 330.75 677.68 332.33Q678.32 333.91 679.64 334.81Q680.96 335.71 683 335.71Q685.04 335.71 686.32 334.89Q687.60 334.07 687.96 332.87L693.08 332.87Q692.60 335.11 691.24 336.79Q689.88 338.47 687.78 339.39Q685.68 340.31 683 340.31M705.96 340.23Q701.48 340.23 698.94 338.33Q696.40 336.43 696.28 333.07L701.28 333.07Q701.40 334.19 702.52 335.11Q703.64 336.03 706.04 336.03Q708.04 336.03 709.22 335.31Q710.40 334.59 710.40 333.35Q710.40 332.27 709.50 331.63Q708.60 330.99 706.44 330.79L704.52 330.59Q700.88 330.19 698.92 328.51Q696.96 326.83 696.96 324.03Q696.96 321.79 698.08 320.27Q699.20 318.75 701.18 317.97Q703.16 317.19 705.72 317.19Q709.72 317.19 712.20 318.95Q714.68 320.71 714.80 324.11L709.80 324.11Q709.72 322.99 708.68 322.19Q707.64 321.39 705.68 321.39Q703.92 321.39 702.96 322.07Q702 322.75 702 323.83Q702 324.87 702.78 325.43Q703.56 325.99 705.32 326.19L707.24 326.39Q711.08 326.79 713.26 328.51Q715.44 330.23 715.44 333.15Q715.44 335.31 714.26 336.89Q713.08 338.47 710.96 339.35Q708.84 340.23 705.96 340.23M726.64 339.55L721.08 339.55L721.08 317.83L726.64 317.83L726.64 339.55M726.64 321.99L718.04 321.99L718.04 317.83L726.64 317.83L726.64 321.99M723.12 315.23Q721.48 315.23 720.70 314.37Q719.92 313.51 719.92 312.19Q719.92 310.87 720.70 310.03Q721.48 309.19 723.12 309.19Q724.76 309.19 725.52 310.03Q726.28 310.87 726.28 312.19Q726.28 313.51 725.52 314.37Q724.76 315.23 723.12 315.23M741.52 348.11Q739.96 348.11 738.34 347.99Q736.72 347.87 735.32 347.67L735.32 343.03Q736.76 343.19 738.40 343.33Q740.04 343.47 741.48 343.47Q744.16 343.47 745.82 342.83Q747.48 342.19 748.26 340.81Q749.04 339.43 749.04 337.31L749.04 333.03L750.24 330.31Q750.12 333.31 749 335.41Q747.88 337.51 745.96 338.61Q744.04 339.71 741.52 339.71Q739.28 339.71 737.46 338.87Q735.64 338.03 734.34 336.55Q733.04 335.07 732.32 333.07Q731.60 331.07 731.60 328.79L731.60 327.95Q731.60 325.67 732.34 323.69Q733.08 321.71 734.44 320.23Q735.80 318.75 737.68 317.95Q739.56 317.15 741.84 317.15Q744.52 317.15 746.50 318.31Q748.48 319.47 749.60 321.67Q750.72 323.87 750.84 327.07L749.88 327.23L749.88 317.83L754.28 317.83L754.28 336.99Q754.28 340.95 752.92 343.39Q751.56 345.83 748.74 346.97Q745.92 348.11 741.52 348.11M743.12 334.95Q744.72 334.95 746.04 334.23Q747.36 333.51 748.16 332.15Q748.96 330.79 748.96 328.87L748.96 327.47Q748.96 325.63 748.14 324.35Q747.32 323.07 746 322.41Q744.68 321.75 743.12 321.75Q741.36 321.75 740.02 322.57Q738.68 323.39 737.92 324.87Q737.16 326.35 737.16 328.39Q737.16 330.39 737.92 331.87Q738.68 333.35 740.02 334.15Q741.36 334.95 743.12 334.95M765.92 339.55L760.36 339.55L760.36 317.83L764.76 317.83L764.76 327.15L764.36 327.15Q764.36 323.83 765.24 321.61Q766.12 319.39 767.86 318.27Q769.60 317.15 772.20 317.15L772.44 317.15Q776.32 317.15 778.32 319.65Q780.32 322.15 780.32 327.11L780.32 339.55L774.76 339.55L774.76 326.63Q774.76 324.63 773.62 323.39Q772.48 322.15 770.48 322.15Q768.44 322.15 767.18 323.41Q765.92 324.67 765.92 326.79L765.92 339.55M794.16 340.23Q789.68 340.23 787.14 338.33Q784.60 336.43 784.48 333.07L789.48 333.07Q789.60 334.19 790.72 335.11Q791.84 336.03 794.24 336.03Q796.24 336.03 797.42 335.31Q798.60 334.59 798.60 333.35Q798.60 332.27 797.70 331.63Q796.80 330.99 794.64 330.79L792.72 330.59Q789.08 330.19 787.12 328.51Q785.16 326.83 785.16 324.03Q785.16 321.79 786.28 320.27Q787.40 318.75 789.38 317.97Q791.36 317.19 793.92 317.19Q797.92 317.19 800.40 318.95Q802.88 320.71 803 324.11L798 324.11Q797.92 322.99 796.88 322.19Q795.84 321.39 793.88 321.39Q792.12 321.39 791.16 322.07Q790.20 322.75 790.20 323.83Q790.20 324.87 790.98 325.43Q791.76 325.99 793.52 326.19L795.44 326.39Q799.28 326.79 801.46 328.51Q803.64 330.23 803.64 333.15Q803.64 335.31 802.46 336.89Q801.28 338.47 799.16 339.35Q797.04 340.23 794.16 340.23M813.24 339.55L807 339.55L807 333.15L813.24 333.15" fill="#E6E9FF" opacity="0.92"/>

  <!-- device frame -->
  <rect x="158" y="548" width="764" height="1324" rx="68" fill="#16142E"/>
  <rect x="180" y="570" width="720" height="1280" rx="48" fill="#EEF1FB"/>
  <!-- notch -->
  <rect x="470" y="564" width="140" height="22" rx="11" fill="#16142E"/>
  <!-- placeholder label -->
  <g fill="#9AA3C7" font-family="sans-serif" text-anchor="middle">
    <text x="540" y="1202" font-size="40" font-weight="700">Drop screenshot here</text>
    <text x="540" y="1254" font-size="32">6. Templates marketplace</text>
    <text x="540" y="1306" font-size="26" opacity="0.8">1080 × 1920 (9:16)</text>
  </g>
</svg>
