<svg width="1080" height="1920" viewBox="0 0 1080 1920" fill="none" xmlns="http://www.w3.org/2000/svg">
  <defs>
    <linearGradient id="bg" x1="0" y1="0" x2="1080" y2="1920" gradientUnits="userSpaceOnUse">
      <stop stop-color="#7C79F2"/><stop offset="0.5" stop-color="#6366F1"/><stop offset="1" stop-color="#4B43DC"/>
    </linearGradient>
    <radialGradient id="glow" cx="0.5" cy="0.06" r="0.7">
      <stop stop-color="#AEB8FF" stop-opacity="0.45"/><stop offset="0.7" stop-color="#AEB8FF" stop-opacity="0"/>
    </radialGradient>
  </defs>
  <rect width="1080" height="1920" fill="url(#bg)"/>
  <rect width="1080" height="1920" fill="url(#glow)"/>
  <circle cx="120" cy="1700" r="200" fill="#ffffff" opacity="0.05"/>
  <circle cx="980" cy="120" r="150" fill="#ffffff" opacity="0.05"/>

  <!-- caption -->
  <path d="M88.66 228.67L70.72 228.67L54.32 193.79L67.26 193.79L79.04 219.89L76.81 219.20L83.27 219.20L80.89 219.89L91.51 193.79L103.76 193.79L88.66 228.67M85.89 250L73.50 250L73.50 226.90L85.89 226.90L85.89 250M126.24 251.46Q120.70 251.46 116.38 249.73Q112.07 248 109.11 245Q106.14 241.99 104.60 238.10Q103.06 234.22 103.06 229.90L103.06 228.13Q103.06 223.74 104.64 219.78Q106.22 215.81 109.26 212.81Q112.30 209.81 116.62 208.07Q120.93 206.34 126.24 206.34Q131.71 206.34 135.98 208.07Q140.25 209.81 143.26 212.81Q146.26 215.81 147.88 219.78Q149.49 223.74 149.49 228.13L149.49 229.90Q149.49 234.22 147.95 238.10Q146.41 241.99 143.45 245Q140.49 248 136.17 249.73Q131.86 251.46 126.24 251.46M126.24 241.07Q129.86 241.07 132.25 239.53Q134.63 237.99 135.90 235.22Q137.17 232.44 137.17 229.06Q137.17 225.44 135.87 222.70Q134.56 219.97 132.13 218.35Q129.71 216.74 126.24 216.74Q122.85 216.74 120.39 218.35Q117.92 219.97 116.65 222.70Q115.38 225.44 115.38 229.06Q115.38 232.44 116.62 235.22Q117.85 237.99 120.31 239.53Q122.78 241.07 126.24 241.07M172.90 251.31L172.36 251.31Q165.05 251.31 161.12 246.57Q157.19 241.84 157.19 232.29L157.19 207.80L169.51 207.80L169.51 232.91Q169.51 236.29 171.44 238.30Q173.36 240.30 176.60 240.30Q179.91 240.30 181.99 238.22Q184.07 236.14 184.07 232.60L184.07 207.80L196.39 207.80L196.39 250L186.61 250L186.61 232.21L187.46 232.21Q187.46 238.60 185.80 242.88Q184.14 247.15 180.91 249.23Q177.68 251.31 172.90 251.31M220.10 250L207.78 250L207.78 207.80L217.56 207.80L217.56 225.90L217.33 225.90Q217.33 216.97 221.14 212.12Q224.95 207.26 232.19 207.26L233.81 207.26L233.81 217.89L230.73 217.89Q225.65 217.89 222.88 220.62Q220.10 223.36 220.10 228.52L220.10 250M273.77 251.39Q269.31 251.39 265.65 249.77Q261.99 248.15 259.30 245.26Q256.60 242.38 255.18 238.45Q253.75 234.52 253.75 229.98L253.75 228.21Q253.75 223.67 255.10 219.74Q256.45 215.81 259.03 212.85Q261.61 209.88 265.23 208.23Q268.84 206.57 273.31 206.57Q278.39 206.57 282.09 208.77Q285.78 210.96 287.86 215.23Q289.94 219.51 290.17 225.75L286.94 222.74L286.94 193.79L299.34 193.79L299.34 250L289.56 250L289.56 232.52L291.25 232.52Q291.02 238.53 288.75 242.76Q286.48 247 282.63 249.19Q278.78 251.39 273.77 251.39M276.85 241.07Q279.70 241.07 282.05 239.80Q284.40 238.53 285.82 236.06Q287.25 233.60 287.25 230.13L287.25 227.28Q287.25 223.90 285.78 221.59Q284.32 219.28 281.93 218.05Q279.55 216.81 276.78 216.81Q273.70 216.81 271.27 218.39Q268.84 219.97 267.46 222.70Q266.07 225.44 266.07 229.06Q266.07 232.75 267.46 235.45Q268.84 238.14 271.31 239.60Q273.77 241.07 276.85 241.07M324.82 250L312.50 250L312.50 207.80L324.82 207.80L324.82 250M324.82 216.89L306.88 216.89L306.88 207.80L324.82 207.80L324.82 216.89M317.28 203.65Q313.81 203.65 312.16 201.84Q310.50 200.03 310.50 197.25Q310.50 194.41 312.16 192.60Q313.81 190.79 317.28 190.79Q320.74 190.79 322.40 192.60Q324.05 194.41 324.05 197.25Q324.05 200.03 322.40 201.84Q320.74 203.65 317.28 203.65M352.85 266.79Q349.77 266.79 346.54 266.56Q343.30 266.32 340.61 265.94L340.61 255.54Q343.30 255.93 346.58 256.20Q349.85 256.47 352.54 256.47Q357.55 256.47 360.67 255.31Q363.79 254.16 365.25 251.81Q366.71 249.46 366.71 245.76L366.71 237.37L368.94 232.44Q368.79 238.06 366.75 242.07Q364.71 246.07 361.09 248.19Q357.47 250.31 352.47 250.31Q348.15 250.31 344.65 248.73Q341.15 247.15 338.68 244.30Q336.22 241.45 334.91 237.64Q333.60 233.83 333.60 229.36L333.60 227.59Q333.60 223.13 334.99 219.28Q336.37 215.43 338.99 212.58Q341.61 209.73 345.23 208.15Q348.85 206.57 353.24 206.57Q358.32 206.57 362.05 208.81Q365.79 211.04 367.94 215.35Q370.10 219.66 370.25 225.75L368.56 226.21L368.56 207.80L378.34 207.80L378.34 245Q378.34 252.77 375.57 257.55Q372.79 262.32 367.13 264.55Q361.48 266.79 352.85 266.79M356.32 239.91Q359.17 239.91 361.48 238.64Q363.79 237.37 365.13 234.99Q366.48 232.60 366.48 229.21L366.48 226.98Q366.48 223.67 365.06 221.39Q363.63 219.12 361.32 217.93Q359.01 216.74 356.39 216.74Q353.31 216.74 350.93 218.20Q348.54 219.66 347.23 222.28Q345.92 224.90 345.92 228.44Q345.92 232.06 347.27 234.64Q348.62 237.22 350.96 238.57Q353.31 239.91 356.32 239.91M403.36 250L391.04 250L391.04 207.80L403.36 207.80L403.36 250M403.36 216.89L385.42 216.89L385.42 207.80L403.36 207.80L403.36 216.89M395.82 203.65Q392.35 203.65 390.70 201.84Q389.04 200.03 389.04 197.25Q389.04 194.41 390.70 192.60Q392.35 190.79 395.82 190.79Q399.28 190.79 400.94 192.60Q402.59 194.41 402.59 197.25Q402.59 200.03 400.94 201.84Q399.28 203.65 395.82 203.65M439.86 250.54L433.93 250.54Q427.54 250.54 423.61 248.96Q419.69 247.38 417.88 243.65Q416.07 239.91 416.07 233.52L416.07 196.41L427.54 196.41L427.54 233.98Q427.54 236.99 429.12 238.57Q430.70 240.14 433.62 240.14L439.86 240.14L439.86 250.54M439.86 216.81L409.68 216.81L409.68 207.80L439.86 207.80L439.86 216.81M483.29 250L473.51 250L473.51 237.53L471.43 237.53L471.43 223.97Q471.43 220.74 469.89 219.12Q468.35 217.51 464.96 217.51Q463.27 217.51 460.50 217.58Q457.73 217.66 454.80 217.81Q451.87 217.97 449.49 218.12L449.49 207.73Q451.26 207.57 453.64 207.42Q456.03 207.26 458.57 207.19Q461.11 207.11 463.35 207.11Q469.81 207.11 474.24 208.96Q478.67 210.81 480.98 214.54Q483.29 218.28 483.29 224.13L483.29 250M460.04 251.08Q455.49 251.08 452.07 249.46Q448.64 247.84 446.71 244.80Q444.79 241.76 444.79 237.53Q444.79 232.91 447.18 229.94Q449.56 226.98 453.88 225.55Q458.19 224.13 463.81 224.13L472.82 224.13L472.82 230.98L463.73 230.98Q460.50 230.98 458.77 232.56Q457.03 234.14 457.03 236.83Q457.03 239.37 458.77 240.95Q460.50 242.53 463.73 242.53Q465.81 242.53 467.47 241.80Q469.12 241.07 470.20 239.30Q471.28 237.53 471.43 234.37L474.36 237.45Q473.97 241.84 472.24 244.84Q470.51 247.84 467.47 249.46Q464.42 251.08 460.04 251.08M506.70 250L494.30 250L494.30 193.79L506.70 193.79L506.70 250M506.70 202.88L489.30 202.88L489.30 193.79L506.70 193.79L506.70 202.88M554.28 250L542.35 250L529.72 207.80L542.43 207.80L554.28 250M558.60 250L546.20 250L546.20 239.76L558.60 239.76L558.60 250M561.91 250L550.74 250L560.98 207.80L572.84 207.80L561.91 250M594.48 250L582.16 250L582.16 207.80L594.48 207.80L594.48 250M594.48 216.89L576.54 216.89L576.54 207.80L594.48 207.80L594.48 216.89M586.93 203.65Q583.47 203.65 581.81 201.84Q580.16 200.03 580.16 197.25Q580.16 194.41 581.81 192.60Q583.47 190.79 586.93 190.79Q590.40 190.79 592.05 192.60Q593.71 194.41 593.71 197.25Q593.71 200.03 592.05 201.84Q590.40 203.65 586.93 203.65M621.89 251.31Q612.88 251.31 607.80 247.61Q602.72 243.92 602.41 237.22L613.34 237.22Q613.65 239.22 615.77 240.80Q617.89 242.38 622.12 242.38Q625.35 242.38 627.47 241.26Q629.59 240.14 629.59 238.06Q629.59 236.22 627.97 235.10Q626.36 233.98 622.20 233.52L618.89 233.21Q611.26 232.44 607.45 228.98Q603.64 225.51 603.64 220.12Q603.64 215.66 605.87 212.66Q608.11 209.65 612.07 208.11Q616.04 206.57 621.12 206.57Q629.28 206.57 634.29 210.15Q639.29 213.73 639.52 220.51L628.59 220.51Q628.28 218.43 626.43 217.01Q624.58 215.58 620.97 215.58Q618.12 215.58 616.42 216.66Q614.73 217.74 614.73 219.59Q614.73 221.36 616.19 222.28Q617.65 223.20 620.97 223.59L624.28 223.90Q632.05 224.74 636.37 228.21Q640.68 231.67 640.68 237.53Q640.68 241.76 638.37 244.88Q636.06 248 631.82 249.65Q627.59 251.31 621.89 251.31M663.01 250L650.69 250L650.69 207.80L663.01 207.80L663.01 250M663.01 216.89L645.07 216.89L645.07 207.80L663.01 207.80L663.01 216.89M655.46 203.65Q652 203.65 650.34 201.84Q648.69 200.03 648.69 197.25Q648.69 194.41 650.34 192.60Q652 190.79 655.46 190.79Q658.93 190.79 660.58 192.60Q662.24 194.41 662.24 197.25Q662.24 200.03 660.58 201.84Q658.93 203.65 655.46 203.65M699.51 250.54L693.58 250.54Q687.19 250.54 683.26 248.96Q679.33 247.38 677.52 243.65Q675.71 239.91 675.71 233.52L675.71 196.41L687.19 196.41L687.19 233.98Q687.19 236.99 688.76 238.57Q690.34 240.14 693.27 240.14L699.51 240.14L699.51 250.54M699.51 216.81L669.32 216.81L669.32 207.80L699.51 207.80L699.51 216.81M722.14 250L709.82 250L709.82 207.80L722.14 207.80L722.14 250M722.14 216.89L704.20 216.89L704.20 207.80L722.14 207.80L722.14 216.89M714.60 203.65Q711.13 203.65 709.48 201.84Q707.82 200.03 707.82 197.25Q707.82 194.41 709.48 192.60Q711.13 190.79 714.60 190.79Q718.06 190.79 719.72 192.60Q721.37 194.41 721.37 197.25Q721.37 200.03 719.72 201.84Q718.06 203.65 714.60 203.65M745.86 250L733.54 250L733.54 207.80L743.32 207.80L743.32 225.90L742.63 225.90Q742.63 219.43 744.28 215.12Q745.94 210.81 749.32 208.65Q752.71 206.50 757.56 206.50L758.10 206.50Q765.49 206.50 769.38 211.31Q773.27 216.12 773.27 225.90L773.27 250L760.95 250L760.95 225.21Q760.95 221.82 758.95 219.66Q756.95 217.51 753.56 217.51Q750.09 217.51 747.98 219.70Q745.86 221.90 745.86 225.44L745.86 250M800.38 266.79Q797.30 266.79 794.06 266.56Q790.83 266.32 788.13 265.94L788.13 255.54Q790.83 255.93 794.10 256.20Q797.37 256.47 800.07 256.47Q805.07 256.47 808.19 255.31Q811.31 254.16 812.77 251.81Q814.24 249.46 814.24 245.76L814.24 237.37L816.47 232.44Q816.31 238.06 814.27 242.07Q812.23 246.07 808.61 248.19Q805 250.31 799.99 250.31Q795.68 250.31 792.17 248.73Q788.67 247.15 786.21 244.30Q783.74 241.45 782.43 237.64Q781.13 233.83 781.13 229.36L781.13 227.59Q781.13 223.13 782.51 219.28Q783.90 215.43 786.52 212.58Q789.13 209.73 792.75 208.15Q796.37 206.57 800.76 206.57Q805.84 206.57 809.58 208.81Q813.31 211.04 815.47 215.35Q817.62 219.66 817.78 225.75L816.08 226.21L816.08 207.80L825.86 207.80L825.86 245Q825.86 252.77 823.09 257.55Q820.32 262.32 814.66 264.55Q809 266.79 800.38 266.79M803.84 239.91Q806.69 239.91 809 238.64Q811.31 237.37 812.66 234.99Q814 232.60 814 229.21L814 226.98Q814 223.67 812.58 221.39Q811.16 219.12 808.85 217.93Q806.54 216.74 803.92 216.74Q800.84 216.74 798.45 218.20Q796.06 219.66 794.75 222.28Q793.45 224.90 793.45 228.44Q793.45 232.06 794.79 234.64Q796.14 237.22 798.49 238.57Q800.84 239.91 803.84 239.91M871.68 251.46Q866.21 251.46 862.17 249.65Q858.13 247.84 855.43 244.76Q852.74 241.68 851.43 237.80Q850.12 233.91 850.12 229.75L850.12 228.29Q850.12 223.97 851.50 220.01Q852.89 216.04 855.58 212.96Q858.28 209.88 862.32 208.11Q866.36 206.34 871.60 206.34Q877.30 206.34 881.69 208.54Q886.08 210.73 888.69 214.66Q891.31 218.58 891.62 223.67L879.53 223.67Q879.22 220.82 877.26 218.85Q875.30 216.89 871.60 216.89Q868.52 216.89 866.48 218.43Q864.44 219.97 863.44 222.66Q862.44 225.36 862.44 229.06Q862.44 232.44 863.36 235.18Q864.29 237.91 866.33 239.41Q868.37 240.91 871.68 240.91Q874.14 240.91 875.87 240.03Q877.61 239.14 878.65 237.56Q879.69 235.99 879.92 233.91L891.93 233.91Q891.70 239.14 889 243.11Q886.31 247.07 881.84 249.27Q877.38 251.46 871.68 251.46M935.05 250L925.27 250L925.27 237.53L923.19 237.53L923.19 223.97Q923.19 220.74 921.65 219.12Q920.11 217.51 916.72 217.51Q915.03 217.51 912.26 217.58Q909.48 217.66 906.56 217.81Q903.63 217.97 901.25 218.12L901.25 207.73Q903.02 207.57 905.40 207.42Q907.79 207.26 910.33 207.19Q912.87 207.11 915.11 207.11Q921.57 207.11 926 208.96Q930.43 210.81 932.74 214.54Q935.05 218.28 935.05 224.13L935.05 250M911.79 251.08Q907.25 251.08 903.82 249.46Q900.40 247.84 898.47 244.80Q896.55 241.76 896.55 237.53Q896.55 232.91 898.94 229.94Q901.32 226.98 905.63 225.55Q909.95 224.13 915.57 224.13L924.58 224.13L924.58 230.98L915.49 230.98Q912.26 230.98 910.52 232.56Q908.79 234.14 908.79 236.83Q908.79 239.37 910.52 240.95Q912.26 242.53 915.49 242.53Q917.57 242.53 919.22 241.80Q920.88 241.07 921.96 239.30Q923.04 237.53 923.19 234.37L926.12 237.45Q925.73 241.84 924 244.84Q922.27 247.84 919.22 249.46Q916.18 251.08 911.79 251.08M957.84 250L945.52 250L945.52 207.80L955.30 207.80L955.30 225.90L955.07 225.90Q955.07 216.97 958.88 212.12Q962.69 207.26 969.93 207.26L971.55 207.26L971.55 217.89L968.47 217.89Q963.38 217.89 960.61 220.62Q957.84 223.36 957.84 228.52L957.84 250M995.11 251.39Q990.64 251.39 986.99 249.77Q983.33 248.15 980.63 245.26Q977.94 242.38 976.51 238.45Q975.09 234.52 975.09 229.98L975.09 228.21Q975.09 223.67 976.44 219.74Q977.78 215.81 980.36 212.85Q982.94 209.88 986.56 208.23Q990.18 206.57 994.65 206.57Q999.73 206.57 1003.42 208.77Q1007.12 210.96 1009.20 215.23Q1011.28 219.51 1011.51 225.75L1008.28 222.74L1008.28 193.79L1020.67 193.79L1020.67 250L1010.89 250L1010.89 232.52L1012.59 232.52Q1012.36 238.53 1010.09 242.76Q1007.81 247 1003.96 249.19Q1000.11 251.39 995.11 251.39M998.19 241.07Q1001.04 241.07 1003.39 239.80Q1005.73 238.53 1007.16 236.06Q1008.58 233.60 1008.58 230.13L1008.58 227.28Q1008.58 223.90 1007.12 221.59Q1005.66 219.28 1003.27 218.05Q1000.88 216.81 998.11 216.81Q995.03 216.81 992.61 218.39Q990.18 219.97 988.79 222.70Q987.41 225.44 987.41 229.06Q987.41 232.75 988.79 235.45Q990.18 238.14 992.64 239.60Q995.11 241.07 998.19 241.07" fill="#ffffff"/>
  <path d="M183.82 348.35L178.62 348.35L178.62 319.15L186.38 319.15L193.70 336.59L194.42 336.59L201.70 319.15L209.58 319.15L209.58 348.35L203.94 348.35L203.94 323.43L204.66 323.51L196.78 342.39L190.98 342.39L183.06 323.51L183.82 323.43L183.82 348.35M233.90 348.35L229.50 348.35L229.50 341.91L228.58 341.91L228.58 334.75Q228.58 332.87 227.66 331.95Q226.74 331.03 224.82 331.03Q223.82 331.03 222.42 331.07Q221.02 331.11 219.60 331.17Q218.18 331.23 217.06 331.31L217.06 326.59Q217.98 326.51 219.14 326.43Q220.30 326.35 221.52 326.33Q222.74 326.31 223.82 326.31Q227.18 326.31 229.40 327.19Q231.62 328.07 232.76 329.95Q233.90 331.83 233.90 334.87L233.90 348.35M222.50 348.91Q220.14 348.91 218.36 348.07Q216.58 347.23 215.60 345.67Q214.62 344.11 214.62 341.91Q214.62 339.51 215.80 337.99Q216.98 336.47 219.12 335.71Q221.26 334.95 224.14 334.95L229.18 334.95L229.18 338.27L224.06 338.27Q222.14 338.27 221.12 339.21Q220.10 340.15 220.10 341.63Q220.10 343.11 221.12 344.03Q222.14 344.95 224.06 344.95Q225.22 344.95 226.20 344.53Q227.18 344.11 227.84 343.09Q228.50 342.07 228.58 340.31L229.94 341.87Q229.74 344.15 228.84 345.71Q227.94 347.27 226.36 348.09Q224.78 348.91 222.50 348.91M261.34 348.35L255.06 348.35L247.78 338.19L244.54 338.19L253.78 326.63L259.58 326.63L251.06 337.31L251.18 334.51L261.34 348.35M245.42 348.35L239.86 348.35L239.86 319.15L245.42 319.15L245.42 348.35M273.54 349.11Q270.74 349.11 268.64 348.15Q266.54 347.19 265.16 345.57Q263.78 343.95 263.08 341.95Q262.38 339.95 262.38 337.87L262.38 337.11Q262.38 334.95 263.08 332.93Q263.78 330.91 265.16 329.33Q266.54 327.75 268.58 326.81Q270.62 325.87 273.30 325.87Q276.82 325.87 279.20 327.41Q281.58 328.95 282.78 331.45Q283.98 333.95 283.98 336.83L283.98 338.83L264.74 338.83L264.74 335.43L280.50 335.43L278.78 337.11Q278.78 335.03 278.18 333.55Q277.58 332.07 276.36 331.27Q275.14 330.47 273.30 330.47Q271.46 330.47 270.18 331.31Q268.90 332.15 268.24 333.73Q267.58 335.31 267.58 337.51Q267.58 339.55 268.22 341.13Q268.86 342.71 270.18 343.61Q271.50 344.51 273.54 344.51Q275.58 344.51 276.86 343.69Q278.14 342.87 278.50 341.67L283.62 341.67Q283.14 343.91 281.78 345.59Q280.42 347.27 278.32 348.19Q276.22 349.11 273.54 349.11M314.82 348.35L310.42 348.35L310.42 341.91L309.50 341.91L309.50 334.75Q309.50 332.87 308.58 331.95Q307.66 331.03 305.74 331.03Q304.74 331.03 303.34 331.07Q301.94 331.11 300.52 331.17Q299.10 331.23 297.98 331.31L297.98 326.59Q298.90 326.51 300.06 326.43Q301.22 326.35 302.44 326.33Q303.66 326.31 304.74 326.31Q308.10 326.31 310.32 327.19Q312.54 328.07 313.68 329.95Q314.82 331.83 314.82 334.87L314.82 348.35M303.42 348.91Q301.06 348.91 299.28 348.07Q297.50 347.23 296.52 345.67Q295.54 344.11 295.54 341.91Q295.54 339.51 296.72 337.99Q297.90 336.47 300.04 335.71Q302.18 334.95 305.06 334.95L310.10 334.95L310.10 338.27L304.98 338.27Q303.06 338.27 302.04 339.21Q301.02 340.15 301.02 341.63Q301.02 343.11 302.04 344.03Q303.06 344.95 304.98 344.95Q306.14 344.95 307.12 344.53Q308.10 344.11 308.76 343.09Q309.42 342.07 309.50 340.31L310.86 341.87Q310.66 344.15 309.76 345.71Q308.86 347.27 307.28 348.09Q305.70 348.91 303.42 348.91M334.98 348.35L329.42 348.35L329.42 326.63L333.82 326.63L333.82 335.95L333.42 335.95Q333.42 332.67 334.26 330.45Q335.10 328.23 336.76 327.09Q338.42 325.95 340.90 325.95L341.14 325.95Q343.66 325.95 345.32 327.09Q346.98 328.23 347.80 330.45Q348.62 332.67 348.62 335.95L347.22 335.95Q347.22 332.67 348.08 330.45Q348.94 328.23 350.60 327.09Q352.26 325.95 354.74 325.95L354.98 325.95Q357.50 325.95 359.18 327.09Q360.86 328.23 361.72 330.45Q362.58 332.67 362.58 335.95L362.58 348.35L357.02 348.35L357.02 335.43Q357.02 333.39 355.98 332.17Q354.94 330.95 353.02 330.95Q351.10 330.95 349.94 332.21Q348.78 333.47 348.78 335.59L348.78 348.35L343.22 348.35L343.22 335.43Q343.22 333.39 342.18 332.17Q341.14 330.95 339.22 330.95Q337.30 330.95 336.14 332.21Q334.98 333.47 334.98 335.59L334.98 348.35M378.26 349.11Q375.46 349.11 373.36 348.15Q371.26 347.19 369.88 345.57Q368.50 343.95 367.80 341.95Q367.10 339.95 367.10 337.87L367.10 337.11Q367.10 334.95 367.80 332.93Q368.50 330.91 369.88 329.33Q371.26 327.75 373.30 326.81Q375.34 325.87 378.02 325.87Q381.54 325.87 383.92 327.41Q386.30 328.95 387.50 331.45Q388.70 333.95 388.70 336.83L388.70 338.83L369.46 338.83L369.46 335.43L385.22 335.43L383.50 337.11Q383.50 335.03 382.90 333.55Q382.30 332.07 381.08 331.27Q379.86 330.47 378.02 330.47Q376.18 330.47 374.90 331.31Q373.62 332.15 372.96 333.73Q372.30 335.31 372.30 337.51Q372.30 339.55 372.94 341.13Q373.58 342.71 374.90 343.61Q376.22 344.51 378.26 344.51Q380.30 344.51 381.58 343.69Q382.86 342.87 383.22 341.67L388.34 341.67Q387.86 343.91 386.50 345.59Q385.14 347.27 383.04 348.19Q380.94 349.11 378.26 349.11M398.90 348.35L393.34 348.35L393.34 326.63L397.74 326.63L397.74 335.95L397.34 335.95Q397.34 332.67 398.18 330.45Q399.02 328.23 400.68 327.09Q402.34 325.95 404.82 325.95L405.06 325.95Q407.58 325.95 409.24 327.09Q410.90 328.23 411.72 330.45Q412.54 332.67 412.54 335.95L411.14 335.95Q411.14 332.67 412 330.45Q412.86 328.23 414.52 327.09Q416.18 325.95 418.66 325.95L418.90 325.95Q421.42 325.95 423.10 327.09Q424.78 328.23 425.64 330.45Q426.50 332.67 426.50 335.95L426.50 348.35L420.94 348.35L420.94 335.43Q420.94 333.39 419.90 332.17Q418.86 330.95 416.94 330.95Q415.02 330.95 413.86 332.21Q412.70 333.47 412.70 335.59L412.70 348.35L407.14 348.35L407.14 335.43Q407.14 333.39 406.10 332.17Q405.06 330.95 403.14 330.95Q401.22 330.95 400.06 332.21Q398.90 333.47 398.90 335.59L398.90 348.35M442.90 349.11Q440.02 349.11 437.82 348.19Q435.62 347.27 434.10 345.69Q432.58 344.11 431.80 342.11Q431.02 340.11 431.02 337.95L431.02 337.11Q431.02 334.87 431.84 332.85Q432.66 330.83 434.20 329.25Q435.74 327.67 437.94 326.77Q440.14 325.87 442.90 325.87Q445.66 325.87 447.86 326.77Q450.06 327.67 451.60 329.25Q453.14 330.83 453.94 332.85Q454.74 334.87 454.74 337.11L454.74 337.95Q454.74 340.11 453.96 342.11Q453.18 344.11 451.66 345.69Q450.14 347.27 447.94 348.19Q445.74 349.11 442.90 349.11M442.90 344.35Q444.94 344.35 446.34 343.45Q447.74 342.55 448.46 341.01Q449.18 339.47 449.18 337.51Q449.18 335.51 448.44 333.97Q447.70 332.43 446.28 331.53Q444.86 330.63 442.90 330.63Q440.94 330.63 439.52 331.53Q438.10 332.43 437.34 333.97Q436.58 335.51 436.58 337.51Q436.58 339.47 437.32 341.01Q438.06 342.55 439.46 343.45Q440.86 344.35 442.90 344.35M465.18 348.35L459.62 348.35L459.62 326.63L464.02 326.63L464.02 335.83L463.90 335.83Q463.90 331.15 465.90 328.75Q467.90 326.35 471.78 326.35L472.58 326.35L472.58 331.19L471.06 331.19Q468.26 331.19 466.72 332.69Q465.18 334.19 465.18 337.03L465.18 348.35M493.74 348.35L489.34 348.35L489.34 341.91L488.42 341.91L488.42 334.75Q488.42 332.87 487.50 331.95Q486.58 331.03 484.66 331.03Q483.66 331.03 482.26 331.07Q480.86 331.11 479.44 331.17Q478.02 331.23 476.90 331.31L476.90 326.59Q477.82 326.51 478.98 326.43Q480.14 326.35 481.36 326.33Q482.58 326.31 483.66 326.31Q487.02 326.31 489.24 327.19Q491.46 328.07 492.60 329.95Q493.74 331.83 493.74 334.87L493.74 348.35M482.34 348.91Q479.98 348.91 478.20 348.07Q476.42 347.23 475.44 345.67Q474.46 344.11 474.46 341.91Q474.46 339.51 475.64 337.99Q476.82 336.47 478.96 335.71Q481.10 334.95 483.98 334.95L489.02 334.95L489.02 338.27L483.90 338.27Q481.98 338.27 480.96 339.21Q479.94 340.15 479.94 341.63Q479.94 343.11 480.96 344.03Q481.98 344.95 483.90 344.95Q485.06 344.95 486.04 344.53Q487.02 344.11 487.68 343.09Q488.34 342.07 488.42 340.31L489.78 341.87Q489.58 344.15 488.68 345.71Q487.78 347.27 486.20 348.09Q484.62 348.91 482.34 348.91M512.46 349.07Q509.78 349.07 507.74 347.93Q505.70 346.79 504.54 344.59Q503.38 342.39 503.26 339.27L504.10 339.27L504.10 348.35L499.70 348.35L499.70 319.15L505.26 319.15L505.26 333.75L503.78 336.03Q503.94 332.67 505.12 330.43Q506.30 328.19 508.30 327.07Q510.30 325.95 512.82 325.95Q515.06 325.95 516.90 326.79Q518.74 327.63 520.06 329.13Q521.38 330.63 522.08 332.63Q522.78 334.63 522.78 336.99L522.78 337.83Q522.78 340.19 522.06 342.23Q521.34 344.27 519.98 345.81Q518.62 347.35 516.72 348.21Q514.82 349.07 512.46 349.07M511.22 344.39Q513.02 344.39 514.36 343.49Q515.70 342.59 516.46 341.03Q517.22 339.47 517.22 337.43Q517.22 335.35 516.46 333.83Q515.70 332.31 514.36 331.47Q513.02 330.63 511.22 330.63Q509.58 330.63 508.20 331.35Q506.82 332.07 505.96 333.47Q505.10 334.87 505.10 336.83L505.10 338.43Q505.10 340.31 505.98 341.63Q506.86 342.95 508.26 343.67Q509.66 344.39 511.22 344.39M533.50 348.35L527.94 348.35L527.94 319.15L533.50 319.15L533.50 348.35M533.50 323.31L525.22 323.31L525.22 319.15L533.50 319.15L533.50 323.31M549.58 349.11Q546.78 349.11 544.68 348.15Q542.58 347.19 541.20 345.57Q539.82 343.95 539.12 341.95Q538.42 339.95 538.42 337.87L538.42 337.11Q538.42 334.95 539.12 332.93Q539.82 330.91 541.20 329.33Q542.58 327.75 544.62 326.81Q546.66 325.87 549.34 325.87Q552.86 325.87 555.24 327.41Q557.62 328.95 558.82 331.45Q560.02 333.95 560.02 336.83L560.02 338.83L540.78 338.83L540.78 335.43L556.54 335.43L554.82 337.11Q554.82 335.03 554.22 333.55Q553.62 332.07 552.40 331.27Q551.18 330.47 549.34 330.47Q547.50 330.47 546.22 331.31Q544.94 332.15 544.28 333.73Q543.62 335.31 543.62 337.51Q543.62 339.55 544.26 341.13Q544.90 342.71 546.22 343.61Q547.54 344.51 549.58 344.51Q551.62 344.51 552.90 343.69Q554.18 342.87 554.54 341.67L559.66 341.67Q559.18 343.91 557.82 345.59Q556.46 347.27 554.36 348.19Q552.26 349.11 549.58 349.11M579.02 348.35L573.82 348.35L573.82 326.11Q573.82 322.39 575.88 320.61Q577.94 318.83 581.98 318.83L584.70 318.83L584.70 323.11L581.58 323.11Q580.34 323.11 579.68 323.77Q579.02 324.43 579.02 325.63L579.02 348.35M585.06 331.07L571.10 331.07L571.10 326.99L585.06 326.99L585.06 331.07M595.06 348.35L589.50 348.35L589.50 326.63L595.06 326.63L595.06 348.35M595.06 330.79L586.46 330.79L586.46 326.63L595.06 326.63L595.06 330.79M591.54 324.03Q589.90 324.03 589.12 323.17Q588.34 322.31 588.34 320.99Q588.34 319.67 589.12 318.83Q589.90 317.99 591.54 317.99Q593.18 317.99 593.94 318.83Q594.70 319.67 594.70 320.99Q594.70 322.31 593.94 323.17Q593.18 324.03 591.54 324.03M607.02 348.35L601.46 348.35L601.46 326.63L605.86 326.63L605.86 335.83L605.74 335.83Q605.74 331.15 607.74 328.75Q609.74 326.35 613.62 326.35L614.42 326.35L614.42 331.19L612.90 331.19Q610.10 331.19 608.56 332.69Q607.02 334.19 607.02 337.03L607.02 348.35M626.02 349.03Q621.54 349.03 619 347.13Q616.46 345.23 616.34 341.87L621.34 341.87Q621.46 342.99 622.58 343.91Q623.70 344.83 626.10 344.83Q628.10 344.83 629.28 344.11Q630.46 343.39 630.46 342.15Q630.46 341.07 629.56 340.43Q628.66 339.79 626.50 339.59L624.58 339.39Q620.94 338.99 618.98 337.31Q617.02 335.63 617.02 332.83Q617.02 330.59 618.14 329.07Q619.26 327.55 621.24 326.77Q623.22 325.99 625.78 325.99Q629.78 325.99 632.26 327.75Q634.74 329.51 634.86 332.91L629.86 332.91Q629.78 331.79 628.74 330.99Q627.70 330.19 625.74 330.19Q623.98 330.19 623.02 330.87Q622.06 331.55 622.06 332.63Q622.06 333.67 622.84 334.23Q623.62 334.79 625.38 334.99L627.30 335.19Q631.14 335.59 633.32 337.31Q635.50 339.03 635.50 341.95Q635.50 344.11 634.32 345.69Q633.14 347.27 631.02 348.15Q628.90 349.03 626.02 349.03M652.66 348.63L649.54 348.63Q646.54 348.63 644.60 347.85Q642.66 347.07 641.70 345.21Q640.74 343.35 640.74 340.19L640.78 320.51L645.98 320.51L645.94 340.55Q645.94 342.15 646.80 343.01Q647.66 343.87 649.26 343.87L652.66 343.87L652.66 348.63M652.66 330.71L637.30 330.71L637.30 326.63L652.66 326.63L652.66 330.71M672.58 348.35L667.02 348.35L667.02 326.63L672.58 326.63L672.58 348.35M672.58 330.79L663.98 330.79L663.98 326.63L672.58 326.63L672.58 330.79M669.06 324.03Q667.42 324.03 666.64 323.17Q665.86 322.31 665.86 320.99Q665.86 319.67 666.64 318.83Q667.42 317.99 669.06 317.99Q670.70 317.99 671.46 318.83Q672.22 319.67 672.22 320.99Q672.22 322.31 671.46 323.17Q670.70 324.03 669.06 324.03M684.54 348.35L678.98 348.35L678.98 326.63L683.38 326.63L683.38 335.95L682.98 335.95Q682.98 332.67 683.82 330.45Q684.66 328.23 686.32 327.09Q687.98 325.95 690.46 325.95L690.70 325.95Q693.22 325.95 694.88 327.09Q696.54 328.23 697.36 330.45Q698.18 332.67 698.18 335.95L696.78 335.95Q696.78 332.67 697.64 330.45Q698.50 328.23 700.16 327.09Q701.82 325.95 704.30 325.95L704.54 325.95Q707.06 325.95 708.74 327.09Q710.42 328.23 711.28 330.45Q712.14 332.67 712.14 335.95L712.14 348.35L706.58 348.35L706.58 335.43Q706.58 333.39 705.54 332.17Q704.50 330.95 702.58 330.95Q700.66 330.95 699.50 332.21Q698.34 333.47 698.34 335.59L698.34 348.35L692.78 348.35L692.78 335.43Q692.78 333.39 691.74 332.17Q690.70 330.95 688.78 330.95Q686.86 330.95 685.70 332.21Q684.54 333.47 684.54 335.59L684.54 348.35M723.66 356.35L718.10 356.35L718.10 326.63L722.50 326.63L722.50 335.99L721.82 335.95Q721.98 332.63 723.20 330.39Q724.42 328.15 726.46 327.05Q728.50 325.95 731.02 325.95Q733.34 325.95 735.20 326.79Q737.06 327.63 738.40 329.15Q739.74 330.67 740.46 332.69Q741.18 334.71 741.18 337.03L741.18 337.87Q741.18 340.23 740.48 342.25Q739.78 344.27 738.44 345.81Q737.10 347.35 735.22 348.21Q733.34 349.07 731.02 349.07Q728.58 349.07 726.56 348.05Q724.54 347.03 723.30 344.89Q722.06 342.75 721.90 339.35L723.66 342.03L723.66 356.35M729.62 344.39Q731.42 344.39 732.76 343.51Q734.10 342.63 734.86 341.05Q735.62 339.47 735.62 337.47Q735.62 335.39 734.86 333.87Q734.10 332.35 732.76 331.49Q731.42 330.63 729.62 330.63Q727.98 330.63 726.60 331.35Q725.22 332.07 724.36 333.47Q723.50 334.87 723.50 336.83L723.50 338.43Q723.50 340.31 724.38 341.63Q725.26 342.95 726.66 343.67Q728.06 344.39 729.62 344.39M751.62 348.35L746.06 348.35L746.06 326.63L750.46 326.63L750.46 335.83L750.34 335.83Q750.34 331.15 752.34 328.75Q754.34 326.35 758.22 326.35L759.02 326.35L759.02 331.19L757.50 331.19Q754.70 331.19 753.16 332.69Q751.62 334.19 751.62 337.03L751.62 348.35M772.30 349.11Q769.50 349.11 767.40 348.15Q765.30 347.19 763.92 345.57Q762.54 343.95 761.84 341.95Q761.14 339.95 761.14 337.87L761.14 337.11Q761.14 334.95 761.84 332.93Q762.54 330.91 763.92 329.33Q765.30 327.75 767.34 326.81Q769.38 325.87 772.06 325.87Q775.58 325.87 777.96 327.41Q780.34 328.95 781.54 331.45Q782.74 333.95 782.74 336.83L782.74 338.83L763.50 338.83L763.50 335.43L779.26 335.43L777.54 337.11Q777.54 335.03 776.94 333.55Q776.34 332.07 775.12 331.27Q773.90 330.47 772.06 330.47Q770.22 330.47 768.94 331.31Q767.66 332.15 767 333.73Q766.34 335.31 766.34 337.51Q766.34 339.55 766.98 341.13Q767.62 342.71 768.94 343.61Q770.26 344.51 772.30 344.51Q774.34 344.51 775.62 343.69Q776.90 342.87 777.26 341.67L782.38 341.67Q781.90 343.91 780.54 345.59Q779.18 347.27 777.08 348.19Q774.98 349.11 772.30 349.11M795.26 349.03Q790.78 349.03 788.24 347.13Q785.70 345.23 785.58 341.87L790.58 341.87Q790.70 342.99 791.82 343.91Q792.94 344.83 795.34 344.83Q797.34 344.83 798.52 344.11Q799.70 343.39 799.70 342.15Q799.70 341.07 798.80 340.43Q797.90 339.79 795.74 339.59L793.82 339.39Q790.18 338.99 788.22 337.31Q786.26 335.63 786.26 332.83Q786.26 330.59 787.38 329.07Q788.50 327.55 790.48 326.77Q792.46 325.99 795.02 325.99Q799.02 325.99 801.50 327.75Q803.98 329.51 804.10 332.91L799.10 332.91Q799.02 331.79 797.98 330.99Q796.94 330.19 794.98 330.19Q793.22 330.19 792.26 330.87Q791.30 331.55 791.30 332.63Q791.30 333.67 792.08 334.23Q792.86 334.79 794.62 334.99L796.54 335.19Q800.38 335.59 802.56 337.31Q804.74 339.03 804.74 341.95Q804.74 344.11 803.56 345.69Q802.38 347.27 800.26 348.15Q798.14 349.03 795.26 349.03M817.22 349.03Q812.74 349.03 810.20 347.13Q807.66 345.23 807.54 341.87L812.54 341.87Q812.66 342.99 813.78 343.91Q814.90 344.83 817.30 344.83Q819.30 344.83 820.48 344.11Q821.66 343.39 821.66 342.15Q821.66 341.07 820.76 340.43Q819.86 339.79 817.70 339.59L815.78 339.39Q812.14 338.99 810.18 337.31Q808.22 335.63 808.22 332.83Q808.22 330.59 809.34 329.07Q810.46 327.55 812.44 326.77Q814.42 325.99 816.98 325.99Q820.98 325.99 823.46 327.75Q825.94 329.51 826.06 332.91L821.06 332.91Q820.98 331.79 819.94 330.99Q818.90 330.19 816.94 330.19Q815.18 330.19 814.22 330.87Q813.26 331.55 813.26 332.63Q813.26 333.67 814.04 334.23Q814.82 334.79 816.58 334.99L818.50 335.19Q822.34 335.59 824.52 337.31Q826.70 339.03 826.70 341.95Q826.70 344.11 825.52 345.69Q824.34 347.27 822.22 348.15Q820.10 349.03 817.22 349.03M837.90 348.35L832.34 348.35L832.34 326.63L837.90 326.63L837.90 348.35M837.90 330.79L829.30 330.79L829.30 326.63L837.90 326.63L837.90 330.79M834.38 324.03Q832.74 324.03 831.96 323.17Q831.18 322.31 831.18 320.99Q831.18 319.67 831.96 318.83Q832.74 317.99 834.38 317.99Q836.02 317.99 836.78 318.83Q837.54 319.67 837.54 320.99Q837.54 322.31 836.78 323.17Q836.02 324.03 834.38 324.03M854.74 349.11Q851.86 349.11 849.66 348.19Q847.46 347.27 845.94 345.69Q844.42 344.11 843.64 342.11Q842.86 340.11 842.86 337.95L842.86 337.11Q842.86 334.87 843.68 332.85Q844.50 330.83 846.04 329.25Q847.58 327.67 849.78 326.77Q851.98 325.87 854.74 325.87Q857.50 325.87 859.70 326.77Q861.90 327.67 863.44 329.25Q864.98 330.83 865.78 332.85Q866.58 334.87 866.58 337.11L866.58 337.95Q866.58 340.11 865.80 342.11Q865.02 344.11 863.50 345.69Q861.98 347.27 859.78 348.19Q857.58 349.11 854.74 349.11M854.74 344.35Q856.78 344.35 858.18 343.45Q859.58 342.55 860.30 341.01Q861.02 339.47 861.02 337.51Q861.02 335.51 860.28 333.97Q859.54 332.43 858.12 331.53Q856.70 330.63 854.74 330.63Q852.78 330.63 851.36 331.53Q849.94 332.43 849.18 333.97Q848.42 335.51 848.42 337.51Q848.42 339.47 849.16 341.01Q849.90 342.55 851.30 343.45Q852.70 344.35 854.74 344.35M877.02 348.35L871.46 348.35L871.46 326.63L875.86 326.63L875.86 335.95L875.46 335.95Q875.46 332.63 876.34 330.41Q877.22 328.19 878.96 327.07Q880.70 325.95 883.30 325.95L883.54 325.95Q887.42 325.95 889.42 328.45Q891.42 330.95 891.42 335.91L891.42 348.35L885.86 348.35L885.86 335.43Q885.86 333.43 884.72 332.19Q883.58 330.95 881.58 330.95Q879.54 330.95 878.28 332.21Q877.02 333.47 877.02 335.59L877.02 348.35M902.74 348.35L896.50 348.35L896.50 341.95L902.74 341.95" fill="#E6E9FF" opacity="0.92"/>

  <!-- device frame -->
  <rect x="158" y="548" width="764" height="1324" rx="68" fill="#16142E"/>
  <rect x="180" y="570" width="720" height="1280" rx="48" fill="#EEF1FB"/>
  <!-- notch -->
  <rect x="470" y="564" width="140" height="22" rx="11" fill="#16142E"/>
  <!-- placeholder label -->
  <g fill="#9AA3C7" font-family="sans-serif" text-anchor="middle">
    <text x="540" y="1202" font-size="40" font-weight="700">Drop screenshot here</text>
    <text x="540" y="1254" font-size="32">1. Public card view</text>
    <text x="540" y="1306" font-size="26" opacity="0.8">1080 × 1920 (9:16)</text>
  </g>
</svg>
