<svg width="1080" height="1920" viewBox="0 0 1080 1920" fill="none" xmlns="http://www.w3.org/2000/svg">
  <defs>
    <linearGradient id="bg" x1="0" y1="0" x2="1080" y2="1920" gradientUnits="userSpaceOnUse">
      <stop stop-color="#7C79F2"/><stop offset="0.5" stop-color="#6366F1"/><stop offset="1" stop-color="#4B43DC"/>
    </linearGradient>
    <radialGradient id="glow" cx="0.5" cy="0.06" r="0.7">
      <stop stop-color="#AEB8FF" stop-opacity="0.45"/><stop offset="0.7" stop-color="#AEB8FF" stop-opacity="0"/>
    </radialGradient>
  </defs>
  <rect width="1080" height="1920" fill="url(#bg)"/>
  <rect width="1080" height="1920" fill="url(#glow)"/>
  <circle cx="120" cy="1700" r="200" fill="#ffffff" opacity="0.05"/>
  <circle cx="980" cy="120" r="150" fill="#ffffff" opacity="0.05"/>

  <!-- caption -->
  <path d="M198.20 250L186.04 250L186.04 191.60L207.56 191.60L229.56 239.36L232.28 239.36L230.68 240.80L230.68 191.60L243 191.60L243 250L221.32 250L199.32 202.24L196.60 202.24L198.20 200.80L198.20 250M275.48 251.52Q269.88 251.52 265.60 249.60Q261.32 247.68 258.48 244.44Q255.64 241.20 254.16 237.16Q252.68 233.12 252.68 228.88L252.68 227.28Q252.68 222.88 254.16 218.84Q255.64 214.80 258.44 211.60Q261.24 208.40 265.44 206.52Q269.64 204.64 275 204.64Q282.04 204.64 286.88 207.80Q291.72 210.96 294.28 216.04Q296.84 221.12 296.84 227.12L296.84 231.44L258.04 231.44L258.04 224.16L289.08 224.16L284.92 227.52Q284.92 223.60 283.80 220.80Q282.68 218 280.48 216.52Q278.28 215.04 275 215.04Q271.64 215.04 269.32 216.56Q267 218.08 265.80 221Q264.60 223.92 264.60 228.16Q264.60 232.08 265.72 235Q266.84 237.92 269.24 239.52Q271.64 241.12 275.48 241.12Q279 241.12 281.24 239.76Q283.48 238.40 284.28 236.40L296.04 236.40Q295.08 240.80 292.28 244.24Q289.48 247.68 285.24 249.60Q281 251.52 275.48 251.52M325.80 250L313.40 250L300.28 206.16L313.48 206.16L325.80 250M330.28 250L317.40 250L317.40 239.36L330.28 239.36L330.28 250M333.72 250L322.12 250L332.76 206.16L345.08 206.16L333.72 250M371.72 251.52Q366.12 251.52 361.84 249.60Q357.56 247.68 354.72 244.44Q351.88 241.20 350.40 237.16Q348.92 233.12 348.92 228.88L348.92 227.28Q348.92 222.88 350.40 218.84Q351.88 214.80 354.68 211.60Q357.48 208.40 361.68 206.52Q365.88 204.64 371.24 204.64Q378.28 204.64 383.12 207.80Q387.96 210.96 390.52 216.04Q393.08 221.12 393.08 227.12L393.08 231.44L354.28 231.44L354.28 224.16L385.32 224.16L381.16 227.52Q381.16 223.60 380.04 220.80Q378.92 218 376.72 216.52Q374.52 215.04 371.24 215.04Q367.88 215.04 365.56 216.56Q363.24 218.08 362.04 221Q360.84 223.92 360.84 228.16Q360.84 232.08 361.96 235Q363.08 237.92 365.48 239.52Q367.88 241.12 371.72 241.12Q375.24 241.12 377.48 239.76Q379.72 238.40 380.52 236.40L392.28 236.40Q391.32 240.80 388.52 244.24Q385.72 247.68 381.48 249.60Q377.24 251.52 371.72 251.52M414.36 250L401.56 250L401.56 206.16L411.72 206.16L411.72 224.96L411.48 224.96Q411.48 215.68 415.44 210.64Q419.40 205.60 426.92 205.60L428.60 205.60L428.60 216.64L425.40 216.64Q420.12 216.64 417.24 219.48Q414.36 222.32 414.36 227.68L414.36 250M464.84 250L452.04 250L452.04 206.16L462.20 206.16L462.20 225.04L461.48 225.04Q461.48 218.32 463.16 213.84Q464.84 209.36 468.20 207.08Q471.56 204.80 476.44 204.80L477 204.80Q481.96 204.80 485.28 207.08Q488.60 209.36 490.32 213.84Q492.04 218.32 492.04 225.04L488.92 225.04Q488.92 218.32 490.64 213.84Q492.36 209.36 495.72 207.08Q499.08 204.80 503.96 204.80L504.52 204.80Q509.48 204.80 512.88 207.08Q516.28 209.36 518.04 213.84Q519.80 218.32 519.80 225.04L519.80 250L507 250L507 224.32Q507 220.72 505.12 218.48Q503.24 216.24 499.80 216.24Q496.36 216.24 494.36 218.52Q492.36 220.80 492.36 224.56L492.36 250L479.48 250L479.48 224.32Q479.48 220.72 477.60 218.48Q475.72 216.24 472.36 216.24Q468.84 216.24 466.84 218.52Q464.84 220.80 464.84 224.56L464.84 250M545.56 250L532.76 250L532.76 206.16L545.56 206.16L545.56 250M545.56 215.60L526.92 215.60L526.92 206.16L545.56 206.16L545.56 215.60M537.72 201.84Q534.12 201.84 532.40 199.96Q530.68 198.08 530.68 195.20Q530.68 192.24 532.40 190.36Q534.12 188.48 537.72 188.48Q541.32 188.48 543.04 190.36Q544.76 192.24 544.76 195.20Q544.76 198.08 543.04 199.96Q541.32 201.84 537.72 201.84M574.04 251.36Q564.68 251.36 559.40 247.52Q554.12 243.68 553.80 236.72L565.16 236.72Q565.48 238.80 567.68 240.44Q569.88 242.08 574.28 242.08Q577.64 242.08 579.84 240.92Q582.04 239.76 582.04 237.60Q582.04 235.68 580.36 234.52Q578.68 233.36 574.36 232.88L570.92 232.56QNaN 231.76 559.04 228.16Q555.08 224.56 555.08 218.96Q555.08 214.32 557.40 211.20Q559.72 208.08 563.84 206.48Q567.96 204.88 573.24 204.88Q581.72 204.88 586.92 208.60Q592.12 212.32 592.36 219.36LNaN 219.36Q580.68 217.20 578.76 215.72Q576.84 214.24 573.08 214.24Q570.12 214.24 568.36 215.36Q566.60 216.48 566.60 218.40Q566.60 220.24 568.12 221.20Q569.64 222.16 573.08 222.56L576.52 222.88Q584.60 223.76 589.08 227.36Q593.56 230.96 593.56 237.04Q593.56 241.44 591.16 244.68Q588.76 247.92 584.36 249.64Q579.96 251.36 574.04 251.36M618.52 251.36Q609.16 251.36 603.88 247.52Q598.60 243.68 598.28 236.72L609.64 236.72Q609.96 238.80 612.16 240.44Q614.36 242.08 618.76 242.08Q622.12 242.08 624.32 240.92Q626.52 239.76 626.52 237.60Q626.52 235.68 624.84 234.52Q623.16 233.36 618.84 232.88L615.40 232.56Q607.48 231.76 603.52 228.16Q599.56 224.56 599.56 218.96Q599.56 214.32 601.88 211.20Q604.20 208.08 608.32 206.48Q612.44 204.88 617.72 204.88Q626.20 204.88 631.40 208.60Q636.60 212.32 636.84 219.36L625.48 219.36Q625.16 217.20 623.24 215.72Q621.32 214.24 617.56 214.24Q614.60 214.24 612.84 215.36Q611.08 216.48 611.08 218.40Q611.08 220.24 612.60 221.20Q614.12 222.16 617.56 222.56LNaN 222.88Q629.08 223.76 633.56 227.36Q638.04 230.96 638.04 237.04Q638.04 241.44 635.64 244.68Q633.24 247.92 628.84 249.64Q624.44 251.36 618.52 251.36M699.80 250L689.64 250L689.64 237.04L687.48 237.04L687.48 222.96Q687.48 219.60 685.88 217.92Q684.28 216.24 680.76 216.24Q679 216.24 676.12 216.32Q673.24 216.40 670.20 216.56Q667.16 216.72 664.68 216.88L664.68 206.08Q666.52 205.92 669 205.76Q671.48 205.60 674.12 205.52Q676.76 205.44 679.08 205.44Q685.80 205.44 690.40 207.36Q695 209.28 697.40 213.16Q699.80 217.04 699.80 223.12L699.80 250M675.64 251.12Q670.92 251.12 667.36 249.44Q663.80 247.76 661.80 244.60Q659.80 241.44 659.80 237.04Q659.80 232.24 662.28 229.16Q664.76 226.08 669.24 224.60Q673.72 223.12 679.56 223.12L688.92 223.12L688.92 230.24L679.48 230.24Q676.12 230.24 674.32 231.88Q672.52 233.52 672.52 236.32Q672.52 238.96 674.32 240.60Q676.12 242.24 679.48 242.24Q681.64 242.24 683.36 241.48Q685.08 240.72 686.20 238.88Q687.32 237.04 687.48 233.76L690.52 236.96Q690.12 241.52 688.32 244.64Q686.52 247.76 683.36 249.44Q680.20 251.12 675.64 251.12M740.92 250L728.04 250L728.04 191.60L740.92 191.60L740.92 250M740.92 201.04L722.84 201.04L722.84 191.60L740.92 191.60L740.92 201.04M772.76 251.52Q767.16 251.52 762.88 249.60Q758.60 247.68 755.76 244.44Q752.92 241.20 751.44 237.16Q749.96 233.12 749.96 228.88L749.96 227.28Q749.96 222.88 751.44 218.84Q752.92 214.80 755.72 211.60Q758.52 208.40 762.72 206.52Q766.92 204.64 772.28 204.64Q779.32 204.64 784.16 207.80Q789 210.96 791.56 216.04Q794.12 221.12 794.12 227.12L794.12 231.44L755.32 231.44L755.32 224.16L786.36 224.16L782.20 227.52Q782.20 223.60 781.08 220.80Q779.96 218 777.76 216.52Q775.56 215.04 772.28 215.04Q768.92 215.04 766.60 216.56Q764.28 218.08 763.08 221Q761.88 223.92 761.88 228.16Q761.88 232.08 763 235Q764.12 237.92 766.52 239.52Q768.92 241.12 772.76 241.12Q776.28 241.12 778.52 239.76Q780.76 238.40 781.56 236.40L793.32 236.40Q792.36 240.80 789.56 244.24Q786.76 247.68 782.52 249.60Q778.28 251.52 772.76 251.52M839.24 250L829.08 250L829.08 237.04L826.92 237.04L826.92 222.96Q826.92 219.60 825.32 217.92Q823.72 216.24 820.20 216.24Q818.44 216.24 815.56 216.32Q812.68 216.40 809.64 216.56Q806.60 216.72 804.12 216.88L804.12 206.08Q805.96 205.92 808.44 205.76Q810.92 205.60 813.56 205.52Q816.20 205.44 818.52 205.44Q825.24 205.44 829.84 207.36Q834.44 209.28 836.84 213.16Q839.24 217.04 839.24 223.12L839.24 250M815.08 251.12Q810.36 251.12 806.80 249.44Q803.24 247.76 801.24 244.60Q799.24 241.44 799.24 237.04Q799.24 232.24 801.72 229.16Q804.20 226.08 808.68 224.60Q813.16 223.12 819 223.12L828.36 223.12L828.36 230.24L818.92 230.24Q815.56 230.24 813.76 231.88Q811.96 233.52 811.96 236.32Q811.96 238.96 813.76 240.60Q815.56 242.24 818.92 242.24Q821.08 242.24 822.80 241.48Q824.52 240.72 825.64 238.88Q826.76 237.04 826.92 233.76L829.96 236.96Q829.56 241.52 827.76 244.64Q825.96 247.76 822.80 249.44Q819.64 251.12 815.08 251.12M868.20 251.44Q863.56 251.44 859.76 249.76Q855.96 248.08 853.16 245.08Q850.36 242.08 848.88 238Q847.40 233.92 847.40 229.20L847.40 227.36Q847.40 222.64 848.80 218.56Q850.20 214.48 852.88 211.40Q855.56 208.32 859.32 206.60Q863.08 204.88 867.72 204.88Q873 204.88 876.84 207.16Q880.68 209.44 882.84 213.88Q885 218.32 885.24 224.80L881.88 221.68L881.88 191.60L894.76 191.60L894.76 250L884.60 250L884.60 231.84L886.36 231.84Q886.12 238.08 883.76 242.48Q881.40 246.88 877.40 249.16Q873.40 251.44 868.20 251.44M871.40 240.72Q874.36 240.72 876.80 239.40Q879.24 238.08 880.72 235.52Q882.20 232.96 882.20 229.36L882.20 226.40Q882.20 222.88 880.68 220.48Q879.16 218.08 876.68 216.80Q874.20 215.52 871.32 215.52Q868.12 215.52 865.60 217.16Q863.08 218.80 861.64 221.64Q860.20 224.48 860.20 228.24Q860.20 232.08 861.64 234.88Q863.08 237.68 865.64 239.20Q868.20 240.72 871.40 240.72" fill="#ffffff"/>
  <path d="M195.12 350L185.76 350L176.44 320.80L182.32 320.80L190.04 346.08L188.36 345.28L192.68 345.28L190.96 346.08L198.08 320.80L203.76 320.80L195.12 350M213.88 350L208.32 350L208.32 328.28L213.88 328.28L213.88 350M213.88 332.44L205.28 332.44L205.28 328.28L213.88 328.28L213.88 332.44M210.36 325.68Q208.72 325.68 207.94 324.82Q207.16 323.96 207.16 322.64Q207.16 321.32 207.94 320.48Q208.72 319.64 210.36 319.64QNaN 319.64 212.76 320.48Q213.52 321.32 213.52 322.64Q213.52 323.96 212.76 324.82QNaN 325.68 210.36 325.68M228.16 350.68Q223.68 350.68 221.14 348.78Q218.60 346.88 218.48 343.52L223.48 343.52Q223.60 344.64 224.72 345.56Q225.84 346.48 228.24 346.48Q230.24 346.48 231.42 345.76Q232.60 345.04 232.60 343.80Q232.60 342.72 231.70 342.08Q230.80 341.44 228.64 341.24L226.72 341.04Q223.08 340.64 221.12 338.96Q219.16 337.28 219.16 334.48Q219.16 332.24 220.28 330.72Q221.40 329.20 223.38 328.42Q225.36 327.64 227.92 327.64Q231.92 327.64 234.40 329.40Q236.88 331.16 NaN 334.56LNaN 334.56Q231.92 333.44 230.88 332.64Q229.84 331.84 227.88 331.84Q226.12 331.84 225.16 332.52Q224.20 333.20 224.20 334.28Q224.20 335.32 224.98 335.88Q225.76 336.44 227.52 336.64L229.44 336.84Q233.28 337.24 235.46 338.96Q237.64 340.68 237.64 343.60Q237.64 345.76 236.46 347.34Q235.28 348.92 233.16 349.80Q231.04 350.68 228.16 350.68M248.84 350L243.28 350L243.28 328.28L248.84 328.28L248.84 350M248.84 332.44L240.24 332.44L240.24 328.28L248.84 328.28L248.84 332.44M245.32 325.68Q243.68 325.68 242.90 324.82Q242.12 323.96 242.12 322.64Q242.12 321.32 242.90 320.48Q243.68 319.64 245.32 319.64Q246.96 319.64 247.72 320.48Q248.48 321.32 248.48 322.64Q248.48 323.96 247.72 324.82Q246.96 325.68 245.32 325.68M267.80 350.28L264.68 350.28Q261.68 350.28 259.74 349.50Q257.80 348.72 256.84 346.86Q255.88 345 255.88 341.84L255.92 322.16L261.12 322.16L261.08 342.20Q261.08 343.80 261.94 344.66Q262.80 345.52 264.40 345.52L267.80 345.52L267.80 350.28M267.80 332.36L252.44 332.36L252.44 328.28L267.80 328.28L267.80 332.36M282.80 350.76Q279.92 350.76 277.72 349.84Q275.52 348.92 NaN 347.34Q272.48 345.76 271.70 343.76Q270.92 341.76 270.92 339.60L270.92 338.76Q270.92 336.52 271.74 334.50Q272.56 332.48 274.10 330.90Q275.64 329.32 277.84 328.42Q280.04 327.52 282.80 327.52Q285.56 327.52 287.76 328.42Q289.96 329.32 291.50 330.90Q293.04 332.48 293.84 334.50Q294.64 336.52 294.64 338.76L294.64 339.60Q294.64 341.76 293.86 343.76Q293.08 345.76 291.56 347.34Q290.04 348.92 287.84 349.84Q285.64 350.76 282.80 350.76M282.80 346Q284.84 346 286.24 345.10Q287.64 344.20 288.36 342.66Q289.08 341.12 289.08 339.16Q289.08 337.16 288.34 335.62Q287.60 334.08 286.18 333.18Q284.76 332.28 282.80 332.28Q280.84 332.28 279.42 333.18QNaN 334.08 277.24 335.62Q276.48 337.16 276.48 339.16Q276.48 341.12 277.22 342.66Q277.96 344.20 279.36 345.10Q280.76 346 282.80 346M305.08 350L299.52 350L299.52 328.28L303.92 328.28L303.92 337.48L303.80 337.48Q303.80 332.80 305.80 330.40Q307.80 328 311.68 328L312.48 328L312.48 332.84L310.96 332.84Q308.16 332.84 306.62 334.34Q305.08 335.84 305.08 338.68L305.08 350M324.08 350.68Q319.60 350.68 317.06 348.78Q314.52 346.88 314.40 343.52L319.40 343.52Q319.52 344.64 320.64 345.56Q321.76 346.48 324.16 346.48Q326.16 346.48 327.34 345.76Q328.52 345.04 328.52 343.80Q328.52 342.72 327.62 342.08Q326.72 341.44 324.56 341.24L322.64 341.04QNaN 340.64 317.04 338.96Q315.08 337.28 315.08 334.48Q315.08 332.24 316.20 330.72Q317.32 329.20 319.30 328.42Q321.28 327.64 323.84 327.64Q327.84 327.64 330.32 329.40Q332.80 331.16 332.92 334.56L327.92 334.56Q327.84 333.44 326.80 332.64Q325.76 331.84 323.80 331.84Q322.04 331.84 321.08 332.52Q320.12 333.20 320.12 334.28Q320.12 335.32 320.90 335.88Q321.68 336.44 323.44 336.64L325.36 336.84Q329.20 337.24 331.38 338.96Q333.56 340.68 333.56 343.60Q333.56 345.76 332.38 347.34Q331.20 348.92 329.08 349.80Q326.96 350.68 324.08 350.68M352.64 350L347.08 350L347.08 320.80L352.64 320.80L352.64 350M352.64 324.96L344.36 324.96L344.36 320.80L352.64 320.80L352.64 324.96M368.72 350.76Q365.92 350.76 363.82 349.80Q361.72 348.84 360.34 347.22Q358.96 345.60 358.26 343.60Q357.56 341.60 357.56 339.52L357.56 338.76Q357.56 336.60 358.26 334.58Q358.96 332.56 360.34 330.98Q361.72 329.40 363.76 328.46Q365.80 327.52 368.48 327.52QNaN 327.52 374.38 329.06Q376.76 330.60 377.96 333.10Q379.16 335.60 379.16 338.48L379.16 340.48L359.92 340.48L359.92 337.08L375.68 337.08L373.96 338.76Q373.96 336.68 373.36 335.20Q372.76 333.72 371.54 332.92Q370.32 332.12 368.48 332.12Q366.64 332.12 365.36 332.96Q364.08 333.80 363.42 335.38Q362.76 336.96 362.76 339.16Q362.76 341.20 363.40 342.78Q364.04 344.36 365.36 345.26Q366.68 346.16 368.72 346.16Q370.76 346.16 372.04 345.34Q373.32 344.52 373.68 343.32L378.80 343.32Q378.32 345.56 376.96 347.24Q375.60 348.92 373.50 349.84Q371.40 350.76 368.72 350.76M401.36 350L396.96 350L396.96 343.56L396.04 343.56L396.04 336.40Q396.04 334.52 395.12 333.60Q394.20 332.68 392.28 332.68Q391.28 332.68 389.88 332.72Q388.48 332.76 387.06 332.82Q385.64 332.88 384.52 332.96L384.52 328.24Q385.44 328.16 386.60 328.08Q387.76 328 388.98 327.98Q390.20 327.96 391.28 327.96Q394.64 327.96 396.86 328.84Q399.08 329.72 400.22 331.60Q401.36 333.48 401.36 336.52L401.36 350M389.96 350.56Q387.60 350.56 385.82 349.72Q384.04 348.88 383.06 347.32Q382.08 345.76 382.08 343.56Q382.08 341.16 383.26 339.64Q384.44 338.12 386.58 337.36Q388.72 336.60 391.60 336.60L396.64 336.60L396.64 339.92L391.52 339.92Q389.60 339.92 388.58 340.86Q387.56 341.80 387.56 343.28Q387.56 344.76 388.58 345.68Q389.60 346.60 391.52 346.60Q392.68 346.60 393.66 346.18Q394.64 345.76 395.30 344.74Q395.96 343.72 396.04 341.96L397.40 343.52Q397.20 345.80 396.30 347.36Q395.40 348.92 393.82 349.74Q392.24 350.56 389.96 350.56M416.84 350L411.40 350L404.60 328.28L410.32 328.28L416.84 350M418.92 350L413.04 350L413.04 345.44L418.92 345.44L418.92 350M420.32 350L415.24 350L420.84 328.28L426.20 328.28L420.32 350M439.64 350.76Q436.84 350.76 434.74 349.80Q432.64 348.84 431.26 347.22Q429.88 345.60 429.18 343.60Q428.48 341.60 428.48 339.52L428.48 338.76Q428.48 336.60 429.18 334.58Q429.88 332.56 431.26 330.98Q432.64 329.40 434.68 328.46Q436.72 327.52 439.40 327.52Q442.92 327.52 445.30 329.06Q447.68 330.60 448.88 333.10Q450.08 335.60 450.08 338.48L450.08 340.48L430.84 340.48L430.84 337.08L446.60 337.08L444.88 338.76Q444.88 336.68 444.28 335.20Q443.68 333.72 442.46 332.92Q441.24 332.12 439.40 332.12Q437.56 332.12 436.28 332.96QNaN 333.80 434.34 335.38Q433.68 336.96 433.68 339.16Q433.68 341.20 434.32 342.78Q434.96 344.36 436.28 345.26Q437.60 346.16 439.64 346.16Q441.68 346.16 442.96 345.34Q444.24 344.52 444.60 343.32L449.72 343.32Q449.24 345.56 447.88 347.24Q446.52 348.92 444.42 349.84Q442.32 350.76 439.64 350.76M475.92 350.28L472.80 350.28Q469.80 350.28 467.86 349.50Q465.92 348.72 464.96 346.86QNaN 345 NaN 341.84L464.04 322.16L469.24 322.16L469.20 342.20Q469.20 343.80 470.06 344.66Q470.92 345.52 472.52 345.52L475.92 345.52L475.92 350.28M475.92 332.36L460.56 332.36L460.56 328.28L475.92 328.28L475.92 332.36M486.16 350L480.60 350L480.60 320.80L486.16 320.80L486.16 337.84L485.20 337.84Q485.20 334.56 486.04 332.28Q486.88 330 488.54 328.80Q490.20 327.60 492.76 327.60LNaN 327.60Q496.72 327.60 498.64 330.16Q500.56 332.72 500.56 337.60L500.56 350LNaN 350LNaN 337.08QNaN 335 493.82 333.80Q492.64 332.60 490.72 332.60Q488.68 332.60 487.42 333.94Q486.16 335.28 486.16 337.44L486.16 350M516.24 350.76Q513.44 350.76 511.34 349.80Q509.24 348.84 507.86 347.22Q506.48 345.60 505.78 343.60Q505.08 341.60 505.08 339.52L505.08 338.76Q505.08 336.60 505.78 334.58Q506.48 332.56 507.86 330.98Q509.24 329.40 511.28 328.46Q513.32 327.52 NaN 327.52Q519.52 327.52 521.90 329.06Q524.28 330.60 525.48 333.10Q526.68 335.60 526.68 338.48L526.68 340.48L507.44 340.48L507.44 337.08L523.20 337.08L521.48 338.76Q521.48 336.68 520.88 335.20Q520.28 333.72 519.06 332.92Q517.84 332.12 NaN 332.12Q514.16 332.12 512.88 332.96Q511.60 333.80 510.94 335.38Q510.28 336.96 510.28 339.16Q510.28 341.20 510.92 342.78Q511.56 344.36 512.88 345.26Q514.20 346.16 516.24 346.16Q518.28 346.16 519.56 345.34Q520.84 344.52 521.20 343.32L526.32 343.32Q525.84 345.56 524.48 347.24Q523.12 348.92 521.02 349.84Q518.92 350.76 516.24 350.76M537.92 350L532.36 350L532.36 328.28L537.92 328.28L537.92 350M537.92 332.44L529.32 332.44L529.32 328.28L537.92 328.28L537.92 332.44M534.40 325.68Q532.76 325.68 531.98 324.82Q531.20 323.96 531.20 322.64Q531.20 321.32 531.98 320.48Q532.76 319.64 534.40 319.64Q536.04 319.64 536.80 320.48Q537.56 321.32 537.56 322.64Q537.56 323.96 536.80 324.82Q536.04 325.68 534.40 325.68M549.88 350L544.32 350L544.32 328.28L548.72 328.28L548.72 337.48L548.60 337.48Q548.60 332.80 550.60 330.40Q552.60 328 556.48 328L557.28 328L557.28 332.84L555.76 332.84Q552.96 332.84 551.42 334.34Q549.88 335.84 549.88 338.68L549.88 350M578.64 350.72Q576.36 350.72 574.44 349.88Q572.52 349.04 571.12 347.52Q569.72 346 568.96 343.98Q568.20 341.96 568.20 339.60L568.20 338.76Q568.20 336.44 568.94 334.40Q569.68 332.36 571.02 330.84Q572.36 329.32 574.26 328.46Q576.16 327.60 578.48 327.60Q581.04 327.60 582.98 328.70Q584.92 329.80 586.08 332Q587.24 334.20 587.36 337.52L585.72 335.60L585.72 320.80L591.28 320.80L591.28 350L586.88 350L586.88 340.76L587.84 340.76Q587.72 344.08 586.48 346.30Q585.24 348.52 583.22 349.62Q581.20 350.72 578.64 350.72M579.88 346.04Q581.52 346.04 582.88 345.30Q584.24 344.56 585.06 343.14Q585.88 341.72 585.88 339.80L585.88 338.20Q585.88 336.28 585.04 334.98Q584.20 333.68 582.84 332.98Q581.48 332.28 579.88 332.28Q578.08 332.28 576.70 333.14Q575.32 334 574.54 335.56Q573.76 337.12 573.76 339.20Q573.76 341.28 574.56 342.82Q575.36 344.36 576.74 345.20Q578.12 346.04 579.88 346.04M607.32 350.76Q604.52 350.76 602.42 349.80Q600.32 348.84 598.94 347.22Q597.56 345.60 596.86 343.60Q596.16 341.60 596.16 339.52L596.16 338.76Q596.16 336.60 596.86 334.58Q597.56 332.56 598.94 330.98Q600.32 329.40 602.36 328.46Q604.40 327.52 607.08 327.52Q610.60 327.52 612.98 329.06Q615.36 330.60 616.56 333.10Q617.76 335.60 617.76 338.48L617.76 340.48L598.52 340.48L598.52 337.08L614.28 337.08L612.56 338.76Q612.56 336.68 611.96 335.20Q611.36 333.72 610.14 332.92Q608.92 332.12 607.08 332.12Q605.24 332.12 603.96 332.96Q602.68 333.80 602.02 335.38Q601.36 336.96 601.36 339.16Q601.36 341.20 602 342.78Q602.64 344.36 603.96 345.26Q605.28 346.16 607.32 346.16Q609.36 346.16 610.64 345.34Q611.92 344.52 612.28 343.32L617.40 343.32Q616.92 345.56 615.56 347.24Q614.20 348.92 612.10 349.84Q610 350.76 607.32 350.76M634.96 350.28L631.84 350.28Q628.84 350.28 626.90 349.50Q624.96 348.72 624 346.86Q623.04 345 623.04 341.84L623.08 322.16L628.28 322.16L628.24 342.20Q628.24 343.80 629.10 344.66Q629.96 345.52 631.56 345.52L634.96 345.52L634.96 350.28M634.96 332.36L619.60 332.36L619.60 328.28L634.96 328.28L634.96 332.36M657.12 350L652.72 350L652.72 343.56L651.80 343.56L651.80 336.40Q651.80 334.52 650.88 333.60Q649.96 332.68 648.04 332.68Q647.04 332.68 645.64 332.72Q644.24 332.76 642.82 332.82Q641.40 332.88 640.28 332.96L640.28 328.24Q641.20 328.16 642.36 328.08Q643.52 328 644.74 327.98Q645.96 327.96 647.04 327.96Q650.40 327.96 652.62 328.84Q654.84 329.72 655.98 331.60Q657.12 333.48 657.12 336.52L657.12 350M645.72 350.56Q643.36 350.56 641.58 349.72Q639.80 348.88 638.82 347.32Q637.84 345.76 637.84 343.56Q637.84 341.16 639.02 339.64Q640.20 338.12 642.34 337.36Q644.48 336.60 647.36 336.60L652.40 336.60L652.40 339.92L647.28 339.92Q645.36 339.92 644.34 340.86Q643.32 341.80 643.32 343.28Q643.32 344.76 644.34 345.68Q645.36 346.60 647.28 346.60Q648.44 346.60 649.42 346.18Q650.40 345.76 651.06 344.74Q651.72 343.72 651.80 341.96L653.16 343.52Q652.96 345.80 652.06 347.36Q651.16 348.92 649.58 349.74Q648 350.56 645.72 350.56M669.68 350L664.12 350L664.12 328.28L669.68 328.28L669.68 350M669.68 332.44L661.08 332.44L661.08 328.28L669.68 328.28L669.68 332.44M666.16 325.68Q664.52 325.68 663.74 324.82Q662.96 323.96 662.96 322.64Q662.96 321.32 663.74 320.48Q664.52 319.64 666.16 319.64Q667.80 319.64 668.56 320.48Q669.32 321.32 669.32 322.64Q669.32 323.96 668.56 324.82Q667.80 325.68 666.16 325.68M681.92 350L676.36 350L676.36 320.80L681.92 320.80L681.92 350M681.92 324.96L673.64 324.96L673.64 320.80L681.92 320.80L681.92 324.96M696.16 350.68Q691.68 350.68 689.14 348.78Q686.60 346.88 686.48 343.52L691.48 343.52Q691.60 344.64 692.72 345.56Q693.84 346.48 696.24 346.48Q698.24 346.48 699.42 345.76Q700.60 345.04 700.60 343.80Q700.60 342.72 699.70 342.08Q698.80 341.44 696.64 341.24L694.72 341.04Q691.08 340.64 689.12 338.96Q687.16 337.28 687.16 334.48Q687.16 332.24 688.28 330.72Q689.40 329.20 691.38 328.42Q693.36 327.64 695.92 327.64Q699.92 327.64 702.40 329.40Q704.88 331.16 705 334.56L700 334.56Q699.92 333.44 698.88 332.64Q697.84 331.84 695.88 331.84Q694.12 331.84 693.16 332.52Q692.20 333.20 692.20 334.28Q692.20 335.32 692.98 335.88Q693.76 336.44 695.52 336.64L697.44 336.84Q701.28 337.24 703.46 338.96Q705.64 340.68 705.64 343.60Q705.64 345.76 704.46 347.34Q703.28 348.92 701.16 349.80Q699.04 350.68 696.16 350.68M725.48 350L719.92 350L719.92 328.28L725.48 328.28L725.48 350M725.48 332.44L716.88 332.44L716.88 328.28L725.48 328.28L725.48 332.44M721.96 325.68Q720.32 325.68 719.54 324.82Q718.76 323.96 718.76 322.64Q718.76 321.32 719.54 320.48Q720.32 319.64 721.96 319.64Q723.60 319.64 724.36 320.48Q725.12 321.32 725.12 322.64Q725.12 323.96 724.36 324.82Q723.60 325.68 721.96 325.68M737.44 350L731.88 350L731.88 328.28L736.28 328.28L736.28 337.60L735.88 337.60Q735.88 334.28 736.76 332.06Q737.64 329.84 739.38 328.72Q741.12 327.60 743.72 327.60L743.96 327.60Q747.84 327.60 749.84 330.10Q751.84 332.60 751.84 337.56L751.84 350L746.28 350L746.28 337.08Q746.28 335.08 745.14 333.84Q744 332.60 742 332.60Q739.96 332.60 738.70 333.86Q737.44 335.12 737.44 337.24L737.44 350M765.68 350.68Q761.20 350.68 758.66 348.78Q756.12 346.88 756 343.52L761 343.52Q761.12 344.64 762.24 345.56Q763.36 346.48 765.76 346.48Q767.76 346.48 768.94 345.76Q770.12 345.04 770.12 343.80Q770.12 342.72 769.22 342.08Q768.32 341.44 766.16 341.24L764.24 341.04Q760.60 340.64 758.64 338.96Q756.68 337.28 756.68 334.48Q756.68 332.24 757.80 330.72Q758.92 329.20 760.90 328.42Q762.88 327.64 765.44 327.64Q769.44 327.64 771.92 329.40Q774.40 331.16 774.52 334.56L769.52 334.56Q769.44 333.44 768.40 332.64Q767.36 331.84 765.40 331.84Q763.64 331.84 762.68 332.52Q761.72 333.20 761.72 334.28Q761.72 335.32 762.50 335.88Q763.28 336.44 765.04 336.64L766.96 336.84Q770.80 337.24 772.98 338.96Q775.16 340.68 775.16 343.60Q775.16 345.76 773.98 347.34Q772.80 348.92 770.68 349.80Q768.56 350.68 765.68 350.68M792.32 350.28L789.20 350.28Q786.20 350.28 784.26 349.50Q782.32 348.72 781.36 346.86Q780.40 345 780.40 341.84L780.44 322.16L785.64 322.16L785.60 342.20Q785.60 343.80 786.46 344.66Q787.32 345.52 788.92 345.52L792.32 345.52L792.32 350.28M792.32 332.36L776.96 332.36L776.96 328.28L792.32 328.28L792.32 332.36M814.48 350L810.08 350L810.08 343.56L809.16 343.56L809.16 336.40Q809.16 334.52 808.24 333.60Q807.32 332.68 805.40 332.68Q804.40 332.68 803 332.72Q801.60 332.76 800.18 332.82Q798.76 332.88 797.64 332.96L797.64 328.24Q798.56 328.16 799.72 328.08Q800.88 328 802.10 327.98Q803.32 327.96 804.40 327.96Q807.76 327.96 809.98 328.84Q812.20 329.72 813.34 331.60Q814.48 333.48 814.48 336.52L814.48 350M803.08 350.56Q800.72 350.56 798.94 349.72Q797.16 348.88 796.18 347.32Q795.20 345.76 795.20 343.56Q795.20 341.16 796.38 339.64Q797.56 338.12 799.70 337.36Q801.84 336.60 804.72 336.60L809.76 336.60L809.76 339.92L804.64 339.92Q802.72 339.92 801.70 340.86Q800.68 341.80 800.68 343.28Q800.68 344.76 801.70 345.68Q802.72 346.60 804.64 346.60Q805.80 346.60 806.78 346.18Q807.76 345.76 808.42 344.74Q809.08 343.72 809.16 341.96L810.52 343.52Q810.32 345.80 809.42 347.36Q808.52 348.92 806.94 349.74Q805.36 350.56 803.08 350.56M826 350L820.44 350L820.44 328.28L824.84 328.28L824.84 337.60L824.44 337.60Q824.44 334.28 825.32 332.06Q826.20 329.84 827.94 328.72Q829.68 327.60 832.28 327.60L832.52 327.60Q836.40 327.60 838.40 330.10Q840.40 332.60 840.40 337.56L840.40 350L834.84 350L834.84 337.08Q834.84 335.08 833.70 333.84Q832.56 332.60 830.56 332.60Q828.52 332.60 827.26 333.86Q826 335.12 826 337.24L826 350M858.92 350.28L855.80 350.28Q852.80 350.28 850.86 349.50Q848.92 348.72 847.96 346.86Q847 345 847 341.84L847.04 322.16L852.24 322.16L852.20 342.20Q852.20 343.80 853.06 344.66Q853.92 345.52 855.52 345.52L858.92 345.52L858.92 350.28M858.92 332.36L843.56 332.36L843.56 328.28L858.92 328.28L858.92 332.36M869.44 350L863.88 350L863.88 320.80L869.44 320.80L869.44 350M869.44 324.96L861.16 324.96L861.16 320.80L869.44 320.80L869.44 324.96M878.72 358.56L875.16 358.56L875.16 353.80L879.24 353.80Q880.40 353.80 881.18 353.50Q881.96 353.20 882.48 352.54Q883 351.88 883.28 350.72L889.12 328.28L894.44 328.28L888 351.92Q887.36 354.36 886.20 355.82Q885.04 357.28 883.22 357.92Q881.40 358.56 878.72 358.56M886.56 349.52L881.92 349.52L881.92 345.12L886.56 345.12L886.56 349.52M885.28 349.52L880.04 349.52L873 328.28L878.60 328.28L885.28 349.52M902.16 350L895.92 350L895.92 343.60L902.16 343.60" fill="#E6E9FF" opacity="0.92"/>

  <!-- device frame -->
  <rect x="158" y="548" width="764" height="1324" rx="68" fill="#16142E"/>
  <rect x="180" y="570" width="720" height="1280" rx="48" fill="#EEF1FB"/>
  <!-- notch -->
  <rect x="470" y="564" width="140" height="22" rx="11" fill="#16142E"/>
  <!-- placeholder label -->
  <g fill="#9AA3C7" font-family="sans-serif" text-anchor="middle">
    <text x="540" y="1202" font-size="40" font-weight="700">Drop screenshot here</text>
    <text x="540" y="1254" font-size="32">4. Leads inbox</text>
    <text x="540" y="1306" font-size="26" opacity="0.8">1080 × 1920 (9:16)</text>
  </g>
</svg>
